<svg width="47" height="47" viewBox="0 0 47 47" fill="none" xmlns="http://www.w3.org/2000/svg">
<path d="M4.40625 24.9688V35.25C4.40625 35.6395 4.56099 36.0131 4.83644 36.2886C5.11188 36.564 5.48546 36.7188 5.875 36.7188H10.2812V41.125C10.2812 41.5145 10.436 41.8881 10.7114 42.1636C10.9869 42.439 11.3605 42.5938 11.75 42.5938H35.25C35.6395 42.5938 36.0131 42.439 36.2886 42.1636C36.564 41.8881 36.7188 41.5145 36.7188 41.125V13.2188L27.9062 4.40625H11.75C11.3605 4.40625 10.9869 4.56099 10.7114 4.83644C10.436 5.11188 10.2812 5.48546 10.2812 5.875V23.5H5.875C5.48546 23.5 5.11188 23.6547 4.83644 23.9302C4.56099 24.2056 4.40625 24.5792 4.40625 24.9688Z" fill="#F2F2F2"/>
<path d="M10.2812 36.7188V38.1875H29.375C29.7645 38.1875 30.1381 38.0328 30.4136 37.7573C30.689 37.4819 30.8438 37.1083 30.8438 36.7188V35.25H10.2812V36.7188Z" fill="#A6A6A6"/>
<path d="M27.9062 13.2188L36.7188 20.5625V13.2188L27.9062 4.40625V13.2188Z" fill="#C1C1C1"/>
<path d="M27.9062 4.40625V13.2188H36.7188L27.9062 4.40625Z" fill="#F20505"/>
<path d="M29.375 23.5H5.875C5.06383 23.5 4.40625 24.1576 4.40625 24.9688V35.25C4.40625 36.0612 5.06383 36.7188 5.875 36.7188H29.375C30.1862 36.7188 30.8438 36.0612 30.8438 35.25V24.9688C30.8438 24.1576 30.1862 23.5 29.375 23.5Z" fill="#F20505"/>
<path d="M27.1719 28.6406H23.5V27.9062C23.5 27.7115 23.5774 27.5247 23.7151 27.387C23.8528 27.2492 24.0396 27.1719 24.2344 27.1719H27.1719C27.3666 27.1719 27.5534 27.0945 27.6912 26.9568C27.8289 26.8191 27.9062 26.6323 27.9062 26.4375C27.9062 26.2427 27.8289 26.0559 27.6912 25.9182C27.5534 25.7805 27.3666 25.7031 27.1719 25.7031H24.2344C23.6501 25.7031 23.0897 25.9352 22.6765 26.3484C22.2634 26.7616 22.0312 27.3219 22.0312 27.9062V33.7812C22.0312 33.976 22.1086 34.1628 22.2463 34.3005C22.3841 34.4383 22.5709 34.5156 22.7656 34.5156C22.9604 34.5156 23.1472 34.4383 23.2849 34.3005C23.4226 34.1628 23.5 33.976 23.5 33.7812V30.1094H27.1719C27.3666 30.1094 27.5534 30.032 27.6912 29.8943C27.8289 29.7566 27.9062 29.5698 27.9062 29.375C27.9062 29.1802 27.8289 28.9934 27.6912 28.8557C27.5534 28.718 27.3666 28.6406 27.1719 28.6406ZM16.1562 25.7031H15.4219C15.2271 25.7031 15.0403 25.7805 14.9026 25.9182C14.7649 26.0559 14.6875 26.2427 14.6875 26.4375V33.7812C14.6875 33.976 14.7649 34.1628 14.9026 34.3005C15.0403 34.4383 15.2271 34.5156 15.4219 34.5156H16.1562C17.3249 34.5156 18.4456 34.0514 19.2719 33.2251C20.0983 32.3987 20.5625 31.278 20.5625 30.1094C20.5625 28.9408 20.0983 27.82 19.2719 26.9937C18.4456 26.1674 17.3249 25.7031 16.1562 25.7031ZM16.1562 33.0469V27.1719C16.9353 27.1719 17.6825 27.4814 18.2334 28.0322C18.7843 28.5831 19.0938 29.3303 19.0938 30.1094C19.0938 30.8884 18.7843 31.6356 18.2334 32.1865C17.6825 32.7374 16.9353 33.0469 16.1562 33.0469ZM10.2812 25.7031H8.07812C7.88336 25.7031 7.69657 25.7805 7.55884 25.9182C7.42112 26.0559 7.34375 26.2427 7.34375 26.4375V33.7812C7.34375 33.976 7.42112 34.1628 7.55884 34.3005C7.69657 34.4383 7.88336 34.5156 8.07812 34.5156C8.27289 34.5156 8.45968 34.4383 8.59741 34.3005C8.73513 34.1628 8.8125 33.976 8.8125 33.7812V31.5781H10.2812C11.0603 31.5781 11.8075 31.2686 12.3584 30.7178C12.9093 30.1669 13.2188 29.4197 13.2188 28.6406C13.2188 27.8616 12.9093 27.1144 12.3584 26.5635C11.8075 26.0126 11.0603 25.7031 10.2812 25.7031ZM10.2812 30.1094H8.8125V27.1719H10.2812C10.6708 27.1719 11.0444 27.3266 11.3198 27.6021C11.5953 27.8775 11.75 28.2511 11.75 28.6406C11.75 29.0302 11.5953 29.4037 11.3198 29.6792C11.0444 29.9546 10.6708 30.1094 10.2812 30.1094ZM27.1719 28.6406H23.5V27.9062C23.5 27.7115 23.5774 27.5247 23.7151 27.387C23.8528 27.2492 24.0396 27.1719 24.2344 27.1719H27.1719C27.3666 27.1719 27.5534 27.0945 27.6912 26.9568C27.8289 26.8191 27.9062 26.6323 27.9062 26.4375C27.9062 26.2427 27.8289 26.0559 27.6912 25.9182C27.5534 25.7805 27.3666 25.7031 27.1719 25.7031H24.2344C23.6501 25.7031 23.0897 25.9352 22.6765 26.3484C22.2634 26.7616 22.0312 27.3219 22.0312 27.9062V33.7812C22.0312 33.976 22.1086 34.1628 22.2463 34.3005C22.3841 34.4383 22.5709 34.5156 22.7656 34.5156C22.9604 34.5156 23.1472 34.4383 23.2849 34.3005C23.4226 34.1628 23.5 33.976 23.5 33.7812V30.1094H27.1719C27.3666 30.1094 27.5534 30.032 27.6912 29.8943C27.8289 29.7566 27.9062 29.5698 27.9062 29.375C27.9062 29.1802 27.8289 28.9934 27.6912 28.8557C27.5534 28.718 27.3666 28.6406 27.1719 28.6406ZM16.1562 25.7031H15.4219C15.2271 25.7031 15.0403 25.7805 14.9026 25.9182C14.7649 26.0559 14.6875 26.2427 14.6875 26.4375V33.7812C14.6875 33.976 14.7649 34.1628 14.9026 34.3005C15.0403 34.4383 15.2271 34.5156 15.4219 34.5156H16.1562C17.3249 34.5156 18.4456 34.0514 19.2719 33.2251C20.0983 32.3987 20.5625 31.278 20.5625 30.1094C20.5625 28.9408 20.0983 27.82 19.2719 26.9937C18.4456 26.1674 17.3249 25.7031 16.1562 25.7031ZM16.1562 33.0469V27.1719C16.9353 27.1719 17.6825 27.4814 18.2334 28.0322C18.7843 28.5831 19.0938 29.3303 19.0938 30.1094C19.0938 30.8884 18.7843 31.6356 18.2334 32.1865C17.6825 32.7374 16.9353 33.0469 16.1562 33.0469ZM10.2812 25.7031H8.07812C7.88336 25.7031 7.69657 25.7805 7.55884 25.9182C7.42112 26.0559 7.34375 26.2427 7.34375 26.4375V33.7812C7.34375 33.976 7.42112 34.1628 7.55884 34.3005C7.69657 34.4383 7.88336 34.5156 8.07812 34.5156C8.27289 34.5156 8.45968 34.4383 8.59741 34.3005C8.73513 34.1628 8.8125 33.976 8.8125 33.7812V31.5781H10.2812C11.0603 31.5781 11.8075 31.2686 12.3584 30.7178C12.9093 30.1669 13.2188 29.4197 13.2188 28.6406C13.2188 27.8616 12.9093 27.1144 12.3584 26.5635C11.8075 26.0126 11.0603 25.7031 10.2812 25.7031ZM10.2812 30.1094H8.8125V27.1719H10.2812C10.6708 27.1719 11.0444 27.3266 11.3198 27.6021C11.5953 27.8775 11.75 28.2511 11.75 28.6406C11.75 29.0302 11.5953 29.4037 11.3198 29.6792C11.0444 29.9546 10.6708 30.1094 10.2812 30.1094ZM27.1719 28.6406H23.5V27.9062C23.5 27.7115 23.5774 27.5247 23.7151 27.387C23.8528 27.2492 24.0396 27.1719 24.2344 27.1719H27.1719C27.3666 27.1719 27.5534 27.0945 27.6912 26.9568C27.8289 26.8191 27.9062 26.6323 27.9062 26.4375C27.9062 26.2427 27.8289 26.0559 27.6912 25.9182C27.5534 25.7805 27.3666 25.7031 27.1719 25.7031H24.2344C23.6501 25.7031 23.0897 25.9352 22.6765 26.3484C22.2634 26.7616 22.0312 27.3219 22.0312 27.9062V33.7812C22.0312 33.976 22.1086 34.1628 22.2463 34.3005C22.3841 34.4383 22.5709 34.5156 22.7656 34.5156C22.9604 34.5156 23.1472 34.4383 23.2849 34.3005C23.4226 34.1628 23.5 33.976 23.5 33.7812V30.1094H27.1719C27.3666 30.1094 27.5534 30.032 27.6912 29.8943C27.8289 29.7566 27.9062 29.5698 27.9062 29.375C27.9062 29.1802 27.8289 28.9934 27.6912 28.8557C27.5534 28.718 27.3666 28.6406 27.1719 28.6406ZM16.1562 25.7031H15.4219C15.2271 25.7031 15.0403 25.7805 14.9026 25.9182C14.7649 26.0559 14.6875 26.2427 14.6875 26.4375V33.7812C14.6875 33.976 14.7649 34.1628 14.9026 34.3005C15.0403 34.4383 15.2271 34.5156 15.4219 34.5156H16.1562C17.3249 34.5156 18.4456 34.0514 19.2719 33.2251C20.0983 32.3987 20.5625 31.278 20.5625 30.1094C20.5625 28.9408 20.0983 27.82 19.2719 26.9937C18.4456 26.1674 17.3249 25.7031 16.1562 25.7031ZM16.1562 33.0469V27.1719C16.9353 27.1719 17.6825 27.4814 18.2334 28.0322C18.7843 28.5831 19.0938 29.3303 19.0938 30.1094C19.0938 30.8884 18.7843 31.6356 18.2334 32.1865C17.6825 32.7374 16.9353 33.0469 16.1562 33.0469ZM10.2812 25.7031H8.07812C7.88336 25.7031 7.69657 25.7805 7.55884 25.9182C7.42112 26.0559 7.34375 26.2427 7.34375 26.4375V33.7812C7.34375 33.976 7.42112 34.1628 7.55884 34.3005C7.69657 34.4383 7.88336 34.5156 8.07812 34.5156C8.27289 34.5156 8.45968 34.4383 8.59741 34.3005C8.73513 34.1628 8.8125 33.976 8.8125 33.7812V31.5781H10.2812C11.0603 31.5781 11.8075 31.2686 12.3584 30.7178C12.9093 30.1669 13.2188 29.4197 13.2188 28.6406C13.2188 27.8616 12.9093 27.1144 12.3584 26.5635C11.8075 26.0126 11.0603 25.7031 10.2812 25.7031ZM10.2812 30.1094H8.8125V27.1719H10.2812C10.6708 27.1719 11.0444 27.3266 11.3198 27.6021C11.5953 27.8775 11.75 28.2511 11.75 28.6406C11.75 29.0302 11.5953 29.4037 11.3198 29.6792C11.0444 29.9546 10.6708 30.1094 10.2812 30.1094Z" fill="#F2F2F2"/>
<path d="M17.625 16.8906H13.2188C13.024 16.8906 12.8372 16.968 12.6995 17.1057C12.5617 17.2434 12.4844 17.4302 12.4844 17.625C12.4844 17.8198 12.5617 18.0066 12.6995 18.1443C12.8372 18.282 13.024 18.3594 13.2188 18.3594H17.625C17.8198 18.3594 18.0066 18.282 18.1443 18.1443C18.282 18.0066 18.3594 17.8198 18.3594 17.625C18.3594 17.4302 18.282 17.2434 18.1443 17.1057C18.0066 16.968 17.8198 16.8906 17.625 16.8906ZM20.5625 12.4844H13.2188C13.024 12.4844 12.8372 12.5617 12.6995 12.6995C12.5617 12.8372 12.4844 13.024 12.4844 13.2188C12.4844 13.4135 12.5617 13.6003 12.6995 13.738C12.8372 13.8758 13.024 13.9531 13.2188 13.9531H20.5625C20.7573 13.9531 20.9441 13.8758 21.0818 13.738C21.2195 13.6003 21.2969 13.4135 21.2969 13.2188C21.2969 13.024 21.2195 12.8372 21.0818 12.6995C20.9441 12.5617 20.7573 12.4844 20.5625 12.4844ZM22.0312 8.07812H13.2188C13.024 8.07812 12.8372 8.1555 12.6995 8.29322C12.5617 8.43094 12.4844 8.61773 12.4844 8.8125C12.4844 9.00727 12.5617 9.19406 12.6995 9.33178C12.8372 9.4695 13.024 9.54688 13.2188 9.54688H22.0312C22.226 9.54688 22.4128 9.4695 22.5505 9.33178C22.6883 9.19406 22.7656 9.00727 22.7656 8.8125C22.7656 8.61773 22.6883 8.43094 22.5505 8.29322C22.4128 8.1555 22.226 8.07812 22.0312 8.07812ZM22.0312 8.07812H13.2188C13.024 8.07812 12.8372 8.1555 12.6995 8.29322C12.5617 8.43094 12.4844 8.61773 12.4844 8.8125C12.4844 9.00727 12.5617 9.19406 12.6995 9.33178C12.8372 9.4695 13.024 9.54688 13.2188 9.54688H22.0312C22.226 9.54688 22.4128 9.4695 22.5505 9.33178C22.6883 9.19406 22.7656 9.00727 22.7656 8.8125C22.7656 8.61773 22.6883 8.43094 22.5505 8.29322C22.4128 8.1555 22.226 8.07812 22.0312 8.07812ZM20.5625 12.4844H13.2188C13.024 12.4844 12.8372 12.5617 12.6995 12.6995C12.5617 12.8372 12.4844 13.024 12.4844 13.2188C12.4844 13.4135 12.5617 13.6003 12.6995 13.738C12.8372 13.8758 13.024 13.9531 13.2188 13.9531H20.5625C20.7573 13.9531 20.9441 13.8758 21.0818 13.738C21.2195 13.6003 21.2969 13.4135 21.2969 13.2188C21.2969 13.024 21.2195 12.8372 21.0818 12.6995C20.9441 12.5617 20.7573 12.4844 20.5625 12.4844ZM17.625 16.8906H13.2188C13.024 16.8906 12.8372 16.968 12.6995 17.1057C12.5617 17.2434 12.4844 17.4302 12.4844 17.625C12.4844 17.8198 12.5617 18.0066 12.6995 18.1443C12.8372 18.282 13.024 18.3594 13.2188 18.3594H17.625C17.8198 18.3594 18.0066 18.282 18.1443 18.1443C18.282 18.0066 18.3594 17.8198 18.3594 17.625C18.3594 17.4302 18.282 17.2434 18.1443 17.1057C18.0066 16.968 17.8198 16.8906 17.625 16.8906ZM22.0312 8.07812H13.2188C13.024 8.07812 12.8372 8.1555 12.6995 8.29322C12.5617 8.43094 12.4844 8.61773 12.4844 8.8125C12.4844 9.00727 12.5617 9.19406 12.6995 9.33178C12.8372 9.4695 13.024 9.54688 13.2188 9.54688H22.0312C22.226 9.54688 22.4128 9.4695 22.5505 9.33178C22.6883 9.19406 22.7656 9.00727 22.7656 8.8125C22.7656 8.61773 22.6883 8.43094 22.5505 8.29322C22.4128 8.1555 22.226 8.07812 22.0312 8.07812ZM20.5625 12.4844H13.2188C13.024 12.4844 12.8372 12.5617 12.6995 12.6995C12.5617 12.8372 12.4844 13.024 12.4844 13.2188C12.4844 13.4135 12.5617 13.6003 12.6995 13.738C12.8372 13.8758 13.024 13.9531 13.2188 13.9531H20.5625C20.7573 13.9531 20.9441 13.8758 21.0818 13.738C21.2195 13.6003 21.2969 13.4135 21.2969 13.2188C21.2969 13.024 21.2195 12.8372 21.0818 12.6995C20.9441 12.5617 20.7573 12.4844 20.5625 12.4844ZM17.625 16.8906H13.2188C13.024 16.8906 12.8372 16.968 12.6995 17.1057C12.5617 17.2434 12.4844 17.4302 12.4844 17.625C12.4844 17.8198 12.5617 18.0066 12.6995 18.1443C12.8372 18.282 13.024 18.3594 13.2188 18.3594H17.625C17.8198 18.3594 18.0066 18.282 18.1443 18.1443C18.282 18.0066 18.3594 17.8198 18.3594 17.625C18.3594 17.4302 18.282 17.2434 18.1443 17.1057C18.0066 16.968 17.8198 16.8906 17.625 16.8906Z" fill="#999999"/>
</svg>
