<svg width="34" height="34" viewBox="0 0 34 34" fill="none" xmlns="http://www.w3.org/2000/svg">
<g clip-path="url(#clip0_918_8107)">
<path d="M32.7548 10.6259H17.0021C13.4815 10.6225 10.6246 13.4737 10.6211 16.9943C10.62 18.0878 10.9003 19.1632 11.4349 20.1171L3.55859 6.60275C9.29537 -0.822134 19.965 -2.19057 27.3899 3.5462C29.7744 5.38858 31.626 7.832 32.7548 10.6259Z" fill="#F44336"/>
<path d="M33.9991 16.9997C33.9913 26.3849 26.3851 33.9911 16.9999 33.999C16.2892 34.0016 15.5791 33.9543 14.875 33.8573L22.5247 20.1871C24.2779 17.1349 23.2328 13.2396 20.1873 11.475C19.223 10.9167 18.1282 10.6234 17.014 10.625H32.7525C33.5797 12.6483 34.0032 14.8139 33.9991 16.9997Z" fill="#FFC107"/>
<path d="M22.5253 20.1868L14.8757 33.857H14.8615C5.55259 32.6809 -1.04032 24.181 0.135815 14.8721C0.516508 11.859 1.69792 9.00306 3.55704 6.60156L11.4333 20.116L11.4758 20.1868C13.2323 23.238 17.1296 24.2877 20.1808 22.5313C21.1555 21.9703 21.9643 21.1614 22.5253 20.1868Z" fill="#4CAF50"/>
<path d="M22.5241 20.1871C20.7677 23.2384 16.8703 24.288 13.8191 22.5316C12.8445 21.9706 12.0356 21.1617 11.4746 20.1871L11.4321 20.1163C9.71085 17.0451 10.8053 13.16 13.8765 11.4388C14.8304 10.9042 15.9058 10.6239 16.9993 10.625H17.0135C18.1277 10.6234 19.2225 10.9167 20.1867 11.475C23.2323 13.2397 24.2773 17.135 22.5241 20.1871Z" fill="#F44336"/>
<path d="M22.5241 20.1871C20.7677 23.2384 16.8703 24.288 13.8191 22.5316C12.8445 21.9706 12.0356 21.1617 11.4746 20.1871L11.4321 20.1163C9.71085 17.0451 10.8053 13.16 13.8765 11.4388C14.8304 10.9042 15.9058 10.6239 16.9993 10.625H17.0135C18.1277 10.6234 19.2225 10.9167 20.1867 11.475C23.2323 13.2397 24.2773 17.135 22.5241 20.1871Z" fill="#2196F3"/>
<path d="M16.9783 24.084C15.7433 24.0838 14.5301 23.7584 13.4608 23.1405C12.3826 22.5169 11.4872 21.621 10.8642 20.5425C8.90827 17.1547 10.069 12.8228 13.4568 10.8669C14.5347 10.2446 15.7577 9.91729 17.0024 9.91797C20.9142 9.91492 24.0879 13.0837 24.0908 16.9955C24.0918 18.2407 23.7645 19.4641 23.1419 20.5425C22.5146 21.6209 21.6151 22.5156 20.5335 23.1371C19.4518 23.7586 18.2258 24.0851 16.9783 24.084ZM17.015 11.3346C16.0165 11.3292 15.0344 11.5886 14.1686 12.0863C13.3029 12.584 12.5846 13.3022 12.0867 14.1678C10.5219 16.881 11.453 20.3491 14.1662 21.9138C16.8795 23.4785 20.3475 22.5475 21.9122 19.8342C23.477 17.1241 22.5484 13.6585 19.8382 12.0937C18.9801 11.5984 18.0072 11.3366 17.0164 11.3346L17.015 11.3346Z" fill="#FAFAFA"/>
</g>
<defs>
<clipPath id="clip0_918_8107">
<rect width="34" height="34" fill="white"/>
</clipPath>
</defs>
</svg>
