<svg width="18" height="18" viewBox="0 0 18 18" fill="none" xmlns="http://www.w3.org/2000/svg">
<path d="M15.7217 10.897C15.6655 11.092 15.5417 11.2495 15.3655 11.3508L14.158 12.0258V13.4058C14.158 13.8183 13.8205 14.1558 13.408 14.1558H12.0242L11.353 15.3633C11.2517 15.5395 11.0942 15.6633 10.8992 15.7195C10.708 15.772 10.5055 15.7495 10.3292 15.652L9.00172 14.9095L7.67422 15.652C7.55797 15.7158 7.43422 15.7458 7.30672 15.7458C7.23922 15.7458 7.17172 15.7383 7.10422 15.7195C6.90922 15.6633 6.75172 15.5395 6.65047 15.3633L5.97922 14.1558H4.59547C4.18297 14.1558 3.84547 13.8183 3.84547 13.4058V12.0258L2.63797 11.3508C2.46172 11.2495 2.33797 11.092 2.28172 10.897C2.22922 10.7058 2.25172 10.5033 2.34922 10.327L3.09172 8.99952L2.34922 7.67202C2.14672 7.30827 2.27797 6.85077 2.63797 6.64827L3.84547 5.97327V4.59327C3.84547 4.18077 4.18297 3.84327 4.59547 3.84327H5.97922L6.65047 2.63577C6.75172 2.45952 6.90922 2.33577 7.10422 2.27952C7.29547 2.22702 7.49797 2.24952 7.67422 2.34702L9.00172 3.08952L10.3292 2.34702C10.5055 2.24952 10.708 2.22702 10.8992 2.27952C11.0942 2.33577 11.2517 2.45952 11.353 2.63577L12.0242 3.84327H13.408C13.8205 3.84327 14.158 4.18077 14.158 4.59327V5.97327L15.3655 6.64827C15.7255 6.85077 15.8567 7.30827 15.6542 7.67202L14.9117 8.99952L15.6542 10.327C15.7517 10.5033 15.7742 10.7058 15.7217 10.897Z" fill="#32BA55"/>
<path d="M8.2507 11.2487C8.20145 11.2488 8.15268 11.2391 8.10718 11.2203C8.06168 11.2014 8.02035 11.1737 7.98558 11.1389L6.11058 9.26387C6.07476 9.22928 6.04619 9.1879 6.02654 9.14215C6.00689 9.0964 5.99654 9.04719 5.99611 8.9974C5.99568 8.94761 6.00516 8.89823 6.02402 8.85214C6.04287 8.80606 6.07072 8.76419 6.10593 8.72898C6.14114 8.69377 6.18301 8.66592 6.22909 8.64707C6.27518 8.62821 6.32456 8.61872 6.37435 8.61915C6.42414 8.61959 6.47335 8.62993 6.5191 8.64959C6.56486 8.66924 6.60623 8.69781 6.64083 8.73362L8.2507 10.3435L11.7356 6.85862C11.7702 6.82281 11.8115 6.79424 11.8573 6.77459C11.9031 6.75493 11.9523 6.74459 12.0021 6.74415C12.0518 6.74372 12.1012 6.75321 12.1473 6.77207C12.1934 6.79092 12.2353 6.81877 12.2705 6.85398C12.3057 6.88919 12.3335 6.93106 12.3524 6.97714C12.3712 7.02323 12.3807 7.07261 12.3803 7.1224C12.3799 7.17219 12.3695 7.2214 12.3499 7.26715C12.3302 7.3129 12.3016 7.35428 12.2658 7.38887L8.51583 11.1389C8.48105 11.1737 8.43973 11.2014 8.39423 11.2203C8.34873 11.2391 8.29995 11.2488 8.2507 11.2487Z" fill="white"/>
</svg>
