<svg width="15" height="16" viewBox="0 0 15 16" fill="none" xmlns="http://www.w3.org/2000/svg">
<g clip-path="url(#clip0_562_2630)">
<path d="M7.43057 7.04131C7.90473 7.04131 8.28911 6.65692 8.28911 6.18276C8.28911 5.7086 7.90473 5.32422 7.43057 5.32422C6.95641 5.32422 6.57202 5.7086 6.57202 6.18276C6.57202 6.65692 6.95641 7.04131 7.43057 7.04131Z" fill="#4F4F4F"/>
<path d="M7.43116 1.89062C5.06425 1.89062 3.13843 3.73247 3.13843 5.99555C3.13843 7.07329 3.62968 8.50652 4.59849 10.2556C5.37655 11.6598 6.27668 12.9297 6.74485 13.5615C6.82397 13.6695 6.92741 13.7572 7.04679 13.8177C7.16616 13.8783 7.29812 13.9098 7.43196 13.9098C7.5658 13.9098 7.69776 13.8783 7.81714 13.8177C7.93651 13.7572 8.03996 13.6695 8.11907 13.5615C8.58644 12.9297 9.48738 11.6598 10.2655 10.2556C11.2326 8.50706 11.7239 7.07382 11.7239 5.99555C11.7239 3.73247 9.79808 1.89062 7.43116 1.89062ZM7.43116 7.90045C7.09155 7.90045 6.75957 7.79974 6.47719 7.61105C6.19482 7.42238 5.97474 7.15421 5.84477 6.84045C5.71481 6.52669 5.68081 6.18145 5.74706 5.84836C5.81331 5.51528 5.97685 5.20933 6.21699 4.96918C6.45713 4.72905 6.76309 4.5655 7.09617 4.49925C7.42925 4.43299 7.7745 4.467 8.08826 4.59697C8.40202 4.72693 8.67019 4.94701 8.85887 5.22939C9.04754 5.51176 9.14825 5.84374 9.14825 6.18335C9.14775 6.6386 8.96668 7.07506 8.64477 7.39697C8.32287 7.71888 7.88641 7.89995 7.43116 7.90045Z" fill="#4F4F4F"/>
</g>
<defs>
<clipPath id="clip0_562_2630">
<rect width="14.5953" height="14.5953" fill="white" transform="translate(0.132812 0.701172)"/>
</clipPath>
</defs>
</svg>
