<svg width="21" height="21" viewBox="0 0 21 21" fill="none" xmlns="http://www.w3.org/2000/svg">
<path fill-rule="evenodd" clip-rule="evenodd" d="M11.687 4.43196C11.7644 4.35447 11.8563 4.29299 11.9574 4.25104C12.0586 4.20909 12.167 4.1875 12.2765 4.1875C12.386 4.1875 12.4944 4.20909 12.5956 4.25104C12.6967 4.29299 12.7886 4.35447 12.866 4.43196L17.866 9.43196C17.9435 9.50933 18.005 9.60122 18.0469 9.70237C18.0889 9.80352 18.1105 9.91195 18.1105 10.0215C18.1105 10.131 18.0889 10.2394 18.0469 10.3405C18.005 10.4417 17.9435 10.5336 17.866 10.611L12.866 15.611C12.7097 15.7673 12.4976 15.8551 12.2765 15.8551C12.0554 15.8551 11.8433 15.7673 11.687 15.611C11.5307 15.4546 11.4428 15.2426 11.4428 15.0215C11.4428 14.8004 11.5307 14.5883 11.687 14.432L15.265 10.855H3.943C3.72194 10.855 3.50994 10.7671 3.35362 10.6108C3.19731 10.4545 3.1095 10.2425 3.1095 10.0215C3.1095 9.8004 3.19731 9.5884 3.35362 9.43209C3.50994 9.27578 3.72194 9.18796 3.943 9.18796H15.265L11.687 5.61096C11.6095 5.53359 11.548 5.4417 11.5061 5.34055C11.4641 5.2394 11.4425 5.13097 11.4425 5.02146C11.4425 4.91196 11.4641 4.80352 11.5061 4.70237C11.548 4.60122 11.6095 4.50933 11.687 4.43196Z" fill="black"/>
</svg>
