<svg width="82" height="27" viewBox="0 0 82 27" fill="none" xmlns="http://www.w3.org/2000/svg">
<g clip-path="url(#clip0_562_4116)">
<g clip-path="url(#clip1_562_4116)">
<path d="M5.47551 19.8617C3.23574 19.8617 1.39258 18.7733 1.39258 16.1943C1.39258 13.3077 4.14564 12.2666 7.64532 12.2666H9.16184V11.6278C9.16184 9.9715 8.60189 9.14337 6.94538 9.14337C5.47552 9.14337 4.75226 9.85319 4.61227 11.0836H1.88253C2.11584 8.19693 4.37896 6.99023 7.1087 6.99023C9.83843 6.99023 11.9849 8.12595 11.9849 11.5094V19.6252H9.2085V18.1108C8.41524 19.1756 7.342 19.8617 5.47551 19.8617ZM6.15212 17.8032C7.87862 17.8032 9.16184 16.8805 9.16184 15.2952V14.0648H7.71531C5.56885 14.0648 4.19231 14.5617 4.19231 16.076C4.19231 17.1171 4.75226 17.8032 6.15212 17.8032Z" fill="#010101"/>
<path d="M17.8411 19.6247L13.3848 7.25H16.4178L19.6143 16.6907L22.7639 7.25H25.5403L21.1308 19.6247H17.8411Z" fill="#010101"/>
<path d="M32.3097 19.8617C28.7168 19.8617 26.127 17.472 26.127 13.5679V13.3787C26.127 9.5456 28.7168 6.99023 32.193 6.99023C35.2261 6.99023 37.9558 8.81212 37.9558 13.2367V14.0648H29.02C29.1133 16.4072 30.2799 17.7322 32.3797 17.7322C34.0828 17.7322 34.9695 17.0461 35.1795 15.8394H37.9092C37.5125 18.442 35.4361 19.8617 32.3097 19.8617ZM29.0666 12.1483H35.1561C35.0161 10.0188 33.9428 9.07239 32.193 9.07239C30.4898 9.07239 29.3466 10.2318 29.0666 12.1483Z" fill="#010101"/>
<path d="M40.2441 19.6252V7.25051H43.0673V9.21434C43.6505 8.00765 45.0037 6.99023 47.0102 6.99023C49.46 6.99023 51.1865 8.43354 51.1865 11.8407V19.6252H48.3633V12.101C48.3633 10.2318 47.6168 9.37997 45.937 9.37997C44.3505 9.37997 43.0673 10.3737 43.0673 12.3376V19.6252H40.2441Z" fill="#010101"/>
<path d="M57.4014 19.8617C55.1615 19.8617 53.3184 18.7733 53.3184 16.1943C53.3184 13.3077 56.0714 12.2666 59.5711 12.2666H61.0876V11.6278C61.0876 9.9715 60.5277 9.14337 58.8712 9.14337C57.4014 9.14337 56.678 9.85319 56.538 11.0836H53.8083C54.0417 8.19693 56.3047 6.99023 59.0345 6.99023C61.7642 6.99023 63.9107 8.12595 63.9107 11.5094V19.6252H61.1342V18.1108C60.341 19.1756 59.2677 19.8617 57.4014 19.8617ZM58.0779 17.8032C59.8044 17.8032 61.0876 16.8805 61.0876 15.2952V14.0648H59.6411C57.4947 14.0648 56.1181 14.5617 56.1181 16.076C56.1181 17.1171 56.678 17.8032 58.0779 17.8032Z" fill="#010101"/>
<path d="M69.8799 19.8617C67.64 19.8617 65.7969 18.7733 65.7969 16.1943C65.7969 13.3077 68.5499 12.2666 72.0496 12.2666H73.5661V11.6278C73.5661 9.9715 73.0062 9.14337 71.3497 9.14337C69.8799 9.14337 69.1566 9.85319 69.0166 11.0836H66.2869C66.5202 8.19693 68.7832 6.99023 71.513 6.99023C74.2427 6.99023 76.3892 8.12595 76.3892 11.5094V19.6252H73.6128V18.1108C72.8196 19.1756 71.7463 19.8617 69.8799 19.8617ZM70.5564 17.8032C72.2829 17.8032 73.5661 16.8805 73.5661 15.2952V14.0648H72.1196C69.9732 14.0648 68.5966 14.5617 68.5966 16.076C68.5966 17.1171 69.1566 17.8032 70.5564 17.8032Z" fill="#010101"/>
</g>
</g>
<defs>
<clipPath id="clip0_562_4116">
<rect width="81.1034" height="25.3448" fill="white" transform="translate(0.353516 0.871094)"/>
</clipPath>
<clipPath id="clip1_562_4116">
<rect width="81.1034" height="25.3448" fill="white" transform="translate(0.353516 0.871094)"/>
</clipPath>
</defs>
</svg>
