<svg width="13" height="13" viewBox="0 0 13 13" fill="none" xmlns="http://www.w3.org/2000/svg">
<g clip-path="url(#clip0_562_2651)">
<path d="M4.64853 4.46439L6.05578 1.63039C6.09675 1.54837 6.15975 1.47939 6.23772 1.43118C6.3157 1.38296 6.40556 1.35742 6.49724 1.35742C6.58892 1.35742 6.67878 1.38296 6.75676 1.43118C6.83473 1.47939 6.89773 1.54837 6.9387 1.63039L8.34595 4.46439L11.4919 4.92156C11.5827 4.93414 11.6681 4.97198 11.7383 5.03076C11.8086 5.08954 11.8609 5.1669 11.8893 5.25399C11.9177 5.34109 11.9211 5.43441 11.899 5.52332C11.8769 5.61223 11.8303 5.69314 11.7644 5.75681L9.48832 7.96139L10.0257 11.076C10.0944 11.4757 9.67195 11.7801 9.31066 11.5916L6.49724 10.1205L3.68328 11.5916C3.32253 11.7807 2.90003 11.4757 2.96882 11.0754L3.50616 7.96085L1.23007 5.75627C1.16452 5.69255 1.11816 5.61173 1.09626 5.52298C1.07436 5.43423 1.0778 5.34111 1.10618 5.25422C1.13456 5.16733 1.18675 5.09014 1.25681 5.03142C1.32688 4.97271 1.41201 4.93484 1.50253 4.9221L4.64853 4.46439Z" fill="#FDD5A9" stroke="#FDD5A9" stroke-width="1.5" stroke-linecap="round" stroke-linejoin="round"/>
</g>
<defs>
<clipPath id="clip0_562_2651">
<rect width="13" height="13" fill="white" transform="translate(-0.00195312 0.00390625)"/>
</clipPath>
</defs>
</svg>
