<svg width="32" height="33" viewBox="0 0 32 33" fill="none" xmlns="http://www.w3.org/2000/svg">
<path d="M23 11.5898C25.2091 11.5898 27 9.79898 27 7.58984C27 5.3807 25.2091 3.58984 23 3.58984C20.7909 3.58984 19 5.3807 19 7.58984C19 9.79898 20.7909 11.5898 23 11.5898Z" fill="#00A251"/>
<path d="M10 13.5898C9.99928 13.2544 10.0294 12.9197 10.09 12.5898H7C5.67392 12.5898 4.40215 13.1166 3.46447 14.0543C2.52678 14.9919 2 16.2637 2 17.5898V22.5898C2 22.855 2.10536 23.1094 2.29289 23.2969C2.48043 23.4844 2.73478 23.5898 3 23.5898H7C7.00109 22.2287 7.39896 20.8975 8.14491 19.759C8.89087 18.6205 9.95254 17.7242 11.2 17.1798C10.4231 16.144 10.0022 14.8846 10 13.5898ZM25 12.5898H21.91C21.9706 12.9197 22.0007 13.2544 22 13.5898C21.9978 14.8846 21.5769 16.144 20.8 17.1798C22.0475 17.7242 23.1091 18.6205 23.8551 19.759C24.601 20.8975 24.9989 22.2287 25 23.5898H29C29.2652 23.5898 29.5196 23.4844 29.7071 23.2969C29.8946 23.1094 30 22.855 30 22.5898V17.5898C30 16.2637 29.4732 14.9919 28.5355 14.0543C27.5979 13.1166 26.3261 12.5898 25 12.5898Z" fill="#00A251"/>
<path d="M9 11.5898C11.2091 11.5898 13 9.79898 13 7.58984C13 5.3807 11.2091 3.58984 9 3.58984C6.79086 3.58984 5 5.3807 5 7.58984C5 9.79898 6.79086 11.5898 9 11.5898Z" fill="#00A251"/>
<path d="M16 17.5898C18.2091 17.5898 20 15.7989 20 13.5898C20 11.3807 18.2091 9.58984 16 9.58984C13.7909 9.58984 12 11.3807 12 13.5898C12 15.7989 13.7909 17.5898 16 17.5898Z" fill="#00A251"/>
<path d="M18 18.5898H14C12.6739 18.5898 11.4021 19.1166 10.4645 20.0543C9.52678 20.9919 9 22.2637 9 23.5898V28.5898C9 28.855 9.10536 29.1094 9.29289 29.2969C9.48043 29.4844 9.73478 29.5898 10 29.5898H22C22.2652 29.5898 22.5196 29.4844 22.7071 29.2969C22.8946 29.1094 23 28.855 23 28.5898V23.5898C23 22.9332 22.8707 22.283 22.6194 21.6764C22.3681 21.0698 21.9998 20.5186 21.5355 20.0543C21.0712 19.59 20.52 19.2217 19.9134 18.9704C19.3068 18.7191 18.6566 18.5898 18 18.5898Z" fill="#00A251"/>
</svg>
