<svg width="25" height="24" viewBox="0 0 25 24" fill="none" xmlns="http://www.w3.org/2000/svg">
<path d="M7.82812 12C7.56291 12 7.30855 12.1054 7.12102 12.2929C6.93348 12.4804 6.82812 12.7348 6.82812 13V15C6.82812 15.2652 6.93348 15.5196 7.12102 15.7071C7.30855 15.8946 7.56291 16 7.82812 16H9.82812C10.0933 16 10.3477 15.8946 10.5352 15.7071C10.7228 15.5196 10.8281 15.2652 10.8281 15V13C10.8281 12.7348 10.7228 12.4804 10.5352 12.2929C10.3477 12.1054 10.0933 12 9.82812 12H7.82812Z" fill="#191E3B"/>
<path fill-rule="evenodd" clip-rule="evenodd" d="M8.82812 4H16.8281V2.5C16.8281 2.36739 16.8808 2.24021 16.9746 2.14645C17.0683 2.05268 17.1955 2 17.3281 2H18.3281C18.4607 2 18.5879 2.05268 18.6817 2.14645C18.7754 2.24021 18.8281 2.36739 18.8281 2.5V4H19.8281C20.6238 4 21.3868 4.31607 21.9494 4.87868C22.5121 5.44129 22.8281 6.20435 22.8281 7V19C22.8281 19.7956 22.5121 20.5587 21.9494 21.1213C21.3868 21.6839 20.6238 22 19.8281 22H5.82812C5.03248 22 4.26941 21.6839 3.7068 21.1213C3.1442 20.5587 2.82813 19.7956 2.82812 19V7C2.82813 6.20435 3.1442 5.44129 3.7068 4.87868C4.26941 4.31607 5.03248 4 5.82812 4H6.82812V2.5C6.82812 2.36739 6.8808 2.24021 6.97457 2.14645C7.06834 2.05268 7.19552 2 7.32812 2H8.32812C8.46073 2 8.58791 2.05268 8.68168 2.14645C8.77545 2.24021 8.82812 2.36739 8.82812 2.5V4ZM4.82812 7C4.82812 6.73478 4.93348 6.48043 5.12102 6.29289C5.30855 6.10536 5.56291 6 5.82812 6H19.8281C20.0933 6 20.3477 6.10536 20.5352 6.29289C20.7228 6.48043 20.8281 6.73478 20.8281 7V8H4.82812V7ZM4.82812 10H20.8281V19C20.8281 19.2652 20.7228 19.5196 20.5352 19.7071C20.3477 19.8946 20.0933 20 19.8281 20H5.82812C5.56291 20 5.30855 19.8946 5.12102 19.7071C4.93348 19.5196 4.82812 19.2652 4.82812 19V10Z" fill="#191E3B"/>
</svg>
