<svg width="45" height="44" viewBox="0 0 45 44" fill="none" xmlns="http://www.w3.org/2000/svg">
<rect x="0.251709" y="0.194336" width="43.7771" height="43.7771" rx="21.8886" fill="white"/>
<g clip-path="url(#clip0_0_4974)">
<g clip-path="url(#clip1_0_4974)">
<g clip-path="url(#clip2_0_4974)">
<path d="M22.0698 10.8951C22.0463 10.9045 21.9617 10.9233 21.8817 10.9421C21.7782 10.9656 21.2845 11.4265 20.0289 12.6727C19.0884 13.6085 18.2607 14.4597 18.1854 14.5584C18.0726 14.7089 18.0491 14.7889 18.0491 14.9958C18.0491 15.2873 18.129 15.466 18.3312 15.6353C18.5005 15.7811 18.731 15.8328 18.9802 15.7858C19.1307 15.7576 19.3141 15.593 20.2734 14.6431L21.3879 13.5333V18.5368C21.3879 23.4323 21.3879 23.5451 21.482 23.7285C21.6137 24.006 21.8441 24.1471 22.1592 24.1471C22.4836 24.1471 22.7094 24.0107 22.841 23.738C22.9398 23.5404 22.9398 23.4981 22.9398 18.5368V13.5333L24.059 14.6431C25.1312 15.7106 25.183 15.7576 25.3945 15.7858C25.5216 15.8046 25.6814 15.7952 25.7708 15.767C25.9542 15.7059 26.2034 15.4613 26.2552 15.2967C26.3162 15.0945 26.2833 14.7747 26.1893 14.6196C26.1375 14.5349 25.3052 13.6837 24.3411 12.7197C22.8598 11.2478 22.5589 10.9656 22.399 10.9233C22.2062 10.8716 22.1545 10.8669 22.0698 10.8951Z" fill="black"/>
<path d="M16.159 17.0798C15.2561 17.188 14.4567 17.9357 14.2639 18.8527C14.1604 19.3277 14.1604 29.175 14.2639 29.6499C14.4567 30.5669 15.2232 31.2912 16.1449 31.4228C16.587 31.4839 27.6946 31.4839 28.1366 31.4228C29.0583 31.2912 29.8249 30.5669 30.0177 29.6499C30.1211 29.175 30.1211 19.3277 30.0177 18.8527C29.8484 18.058 29.2934 17.4419 28.494 17.1645C28.1978 17.061 28.1178 17.0563 26.8387 17.0563H25.4985L25.3245 17.1739C25.0846 17.3338 24.9435 17.6347 24.9764 17.9122C25 18.152 25.1128 18.326 25.3386 18.4765C25.4891 18.58 25.5266 18.5846 26.6506 18.5846C27.2855 18.5846 27.8827 18.6082 27.972 18.6317C28.1648 18.6834 28.414 18.9185 28.4846 19.116C28.5222 19.2054 28.5363 20.8419 28.5363 24.2607C28.5363 29.2361 28.5363 29.2784 28.4376 29.476C28.3811 29.5982 28.2683 29.7252 28.1695 29.7863L27.9955 29.8945H22.1408H16.286L16.112 29.7863C16.0132 29.7252 15.9004 29.5982 15.844 29.476C15.7452 29.2784 15.7452 29.2361 15.7452 24.2607C15.7452 20.8419 15.7593 19.2054 15.7969 19.116C15.8675 18.9185 16.1167 18.6834 16.3095 18.6317C16.3989 18.6082 16.9867 18.5846 17.6168 18.5846C18.8677 18.5846 18.9195 18.5752 19.1452 18.3025C19.2863 18.1332 19.3427 17.9028 19.2957 17.6629C19.2533 17.4278 18.9712 17.1315 18.7314 17.0798C18.5056 17.0281 16.6105 17.0281 16.159 17.0798Z" fill="black"/>
</g>
</g>
</g>
<defs>
<clipPath id="clip0_0_4974">
<rect width="23.7126" height="21.8886" fill="white" transform="translate(10.2839 10.2266)"/>
</clipPath>
<clipPath id="clip1_0_4974">
<rect width="23.7126" height="21.8886" fill="white" transform="translate(10.2839 10.2266)"/>
</clipPath>
<clipPath id="clip2_0_4974">
<rect width="17.5108" height="21.8886" fill="white" transform="translate(13.385 10.2266)"/>
</clipPath>
</defs>
</svg>
