<svg width="16" height="15" viewBox="0 0 16 15" fill="none" xmlns="http://www.w3.org/2000/svg">
<path d="M7.59664 13.9026C7.68503 13.9929 7.80544 14.043 7.93153 14.043C8.05755 14.043 8.17797 13.9929 8.26643 13.9026L14.2832 7.80613C15.8454 6.22381 15.8454 3.64818 14.2832 2.06525C13.5244 1.2964 12.5153 0.873047 11.441 0.873047C10.3667 0.873047 9.35827 1.2964 8.5994 2.06464L7.93153 2.74195L7.26359 2.06525C6.5048 1.2964 5.49567 0.873047 4.42203 0.873047C3.34777 0.873047 2.33865 1.2964 1.57985 2.06525C0.0176539 3.64818 0.0176539 6.22381 1.57985 7.80551L7.59664 13.9026ZM2.24902 2.72567C2.82973 2.13798 3.60173 1.81376 4.42141 1.81376C5.24171 1.81376 6.0131 2.13798 6.59319 2.72628L7.59602 3.74225C7.77219 3.92095 8.08896 3.92095 8.26513 3.74225L9.26796 2.72567C9.84997 2.13798 10.6214 1.81376 11.441 1.81376C12.2613 1.81376 13.0327 2.13798 13.6134 2.72567C14.8156 3.94415 14.8156 5.92655 13.6134 7.14571L7.93153 12.9035L2.24902 7.1451C1.04676 5.92717 1.04676 3.94415 2.24902 2.72567Z" fill="black"/>
</svg>
