<svg width="32" height="33" viewBox="0 0 32 33" fill="none" xmlns="http://www.w3.org/2000/svg">
<g clip-path="url(#clip0_556_4442)">
<mask id="mask0_556_4442" style="mask-type:luminance" maskUnits="userSpaceOnUse" x="0" y="0" width="32" height="33">
<path d="M32 0.589844H0V32.5898H32V0.589844Z" fill="white"/>
</mask>
<g mask="url(#mask0_556_4442)">
<path d="M16.646 30.1575L15.737 30.4005C15.398 30.4915 15.0392 30.4758 14.7094 30.3556C14.3796 30.2353 14.0949 30.0164 13.894 29.7285L10.003 24.1795L16.544 24.877L17.7855 27.834C18.182 28.794 17.651 29.8885 16.646 30.1575ZM4.01901 12.6275L1.90701 13.197C0.537508 13.568 -0.281991 14.976 0.0895084 16.346L1.42701 21.338C1.51414 21.6641 1.66484 21.9698 1.87046 22.2375C2.07607 22.5052 2.33255 22.7296 2.62516 22.8979C2.91777 23.0662 3.24075 23.175 3.57553 23.2181C3.91032 23.2612 4.25032 23.2377 4.57601 23.149L6.68801 22.586L4.01901 12.6275ZM25.066 22.6835L19.8885 3.35803C19.8526 3.22363 19.7845 3.09999 19.6901 2.99783C19.5956 2.89566 19.4777 2.81803 19.3466 2.77165C19.2154 2.72527 19.0749 2.71154 18.9373 2.73164C18.7996 2.75175 18.6689 2.80508 18.5565 2.88703L5.87251 12.134L8.54001 22.089L24.148 23.756C24.2862 23.7708 24.4259 23.7517 24.5551 23.7004C24.6843 23.6491 24.799 23.5671 24.8894 23.4615C24.9798 23.3559 25.0431 23.2299 25.0739 23.0943C25.1047 22.9588 25.102 22.8178 25.066 22.6835ZM25.8515 6.68053C25.7011 6.68057 25.5534 6.641 25.4232 6.5658C25.2929 6.4906 25.1848 6.38241 25.1097 6.25214C25.0346 6.12187 24.9951 5.97411 24.9952 5.82373C24.9954 5.67335 25.0351 5.52566 25.1105 5.39553L26.349 3.25103C26.4052 3.15362 26.4801 3.06824 26.5694 2.99977C26.6586 2.9313 26.7604 2.88107 26.8691 2.85196C26.9777 2.82285 27.091 2.81543 27.2026 2.83011C27.3141 2.84479 27.4216 2.88129 27.519 2.93753C27.6164 2.99377 27.7018 3.06864 27.7703 3.15788C27.8387 3.24711 27.889 3.34896 27.9181 3.4576C27.9472 3.56625 27.9546 3.67956 27.9399 3.79107C27.9252 3.90259 27.8887 4.01012 27.8325 4.10753L26.594 6.25203C26.435 6.52703 26.147 6.68053 25.8515 6.68053ZM27.0745 12.645C26.8669 12.6445 26.6664 12.5687 26.5105 12.4316C26.3546 12.2944 26.2537 12.1054 26.2267 11.8995C26.1997 11.6936 26.2483 11.4849 26.3636 11.3122C26.4789 11.1395 26.653 11.0145 26.8535 10.9605L29.2455 10.32C29.3542 10.2908 29.4677 10.2833 29.5793 10.2979C29.691 10.3125 29.7986 10.349 29.8962 10.4053C29.9937 10.4616 30.0792 10.5366 30.1477 10.6259C30.2162 10.7152 30.2664 10.8172 30.2955 10.926C30.3542 11.1455 30.3233 11.3793 30.2097 11.5761C30.096 11.7729 29.909 11.9165 29.6895 11.9755L27.2975 12.616C27.2248 12.6353 27.1498 12.6451 27.0745 12.645ZM31.1425 19.6605C30.9924 19.6606 30.8448 19.6209 30.715 19.5455L28.5705 18.307C28.4731 18.2507 28.3877 18.1759 28.3193 18.0866C28.2508 17.9974 28.2006 17.8956 28.1714 17.7869C28.1126 17.5675 28.1434 17.3337 28.257 17.137C28.3706 16.9403 28.5577 16.7967 28.7771 16.7379C28.9965 16.6791 29.2303 16.7099 29.427 16.8235L31.5715 18.062C31.7354 18.156 31.8635 18.3015 31.936 18.476C32.0085 18.6504 32.0213 18.8439 31.9723 19.0264C31.9234 19.2088 31.8154 19.3699 31.6653 19.4846C31.5152 19.5993 31.3314 19.6612 31.1425 19.6605Z" fill="#00A251"/>
</g>
</g>
<defs>
<clipPath id="clip0_556_4442">
<rect width="32" height="32" fill="white" transform="translate(0 0.589844)"/>
</clipPath>
</defs>
</svg>
