<svg width="20" height="19" viewBox="0 0 20 19" fill="none" xmlns="http://www.w3.org/2000/svg">
<g clip-path="url(#clip0_0_4931)">
<g clip-path="url(#clip1_0_4931)">
<g clip-path="url(#clip2_0_4931)">
<path fill-rule="evenodd" clip-rule="evenodd" d="M5.66027 0.295898H11.7586L16.9272 5.68327V16.1617C16.9272 17.4744 15.8652 18.5364 14.5571 18.5364H5.66027C4.34761 18.5364 3.28564 17.4744 3.28564 16.1617V2.67052C3.28562 1.35787 4.3476 0.295898 5.66027 0.295898Z" fill="#F5959E"/>
<path d="M6.74013 3.05353C6.71786 3.06381 6.68188 3.09636 6.66304 3.12206C6.62877 3.17003 6.62706 3.18888 6.62191 3.94958L6.61678 4.7274H6.40262C6.16618 4.7274 6.09936 4.74454 6.03939 4.82163C6.01199 4.85761 6.00171 4.89188 6.00171 4.96042V5.05122L6.63733 5.8359C6.98513 6.26765 7.29181 6.63429 7.3175 6.64971C7.37062 6.68569 7.49911 6.68912 7.55565 6.65828C7.58649 6.64115 8.73953 5.23625 8.84747 5.08548C8.89372 5.01867 8.89201 4.88331 8.84233 4.82163C8.78237 4.74454 8.71554 4.7274 8.47911 4.7274H8.26495L8.25981 3.95129C8.25467 3.10835 8.25639 3.12719 8.15531 3.06552C8.1039 3.03296 8.0645 3.03125 7.44086 3.03125C6.95086 3.03125 6.77097 3.03639 6.74013 3.05353Z" fill="white"/>
<path opacity="0.302" fill-rule="evenodd" clip-rule="evenodd" d="M11.7542 0.295898V5.64224H16.9273L11.7542 0.295898Z" fill="white"/>
<path d="M5.92456 13.905V10.5732H7.34205C7.69301 10.5732 7.97105 10.6689 8.1807 10.8649C8.39036 11.0563 8.4952 11.3162 8.4952 11.6398C8.4952 11.9633 8.39036 12.2232 8.1807 12.4146C7.97105 12.6106 7.69301 12.7063 7.34205 12.7063H6.77688V13.905H5.92456ZM6.77688 11.9816H7.24635C7.37396 11.9816 7.47423 11.9542 7.54261 11.8905C7.61096 11.8312 7.64745 11.7491 7.64745 11.6398C7.64745 11.5304 7.61099 11.4483 7.54261 11.389C7.47425 11.3253 7.37398 11.2979 7.24635 11.2979H6.77688V11.9816ZM8.84614 13.905V10.5732H10.0266C10.2591 10.5732 10.4778 10.6051 10.6829 10.6735C10.888 10.7419 11.0749 10.8375 11.239 10.9698C11.4031 11.0974 11.5353 11.2706 11.631 11.4894C11.7221 11.7082 11.7723 11.9588 11.7723 12.2414C11.7723 12.5194 11.7221 12.7701 11.631 12.9888C11.5353 13.2076 11.4031 13.3808 11.239 13.5084C11.0749 13.6407 10.888 13.7363 10.6829 13.8047C10.4778 13.873 10.2591 13.905 10.0266 13.905H8.84614ZM9.68022 13.1803H9.92634C10.0585 13.1803 10.1816 13.1667 10.2955 13.1348C10.4049 13.1028 10.5097 13.0527 10.61 12.9844C10.7057 12.916 10.7832 12.8202 10.8379 12.6926C10.8926 12.565 10.92 12.4146 10.92 12.2414C10.92 12.0636 10.8926 11.9132 10.8379 11.7856C10.7832 11.658 10.7057 11.5622 10.61 11.4939C10.5097 11.4255 10.4049 11.3754 10.2955 11.3435C10.1816 11.3116 10.0585 11.2979 9.92634 11.2979H9.68022V13.1803ZM12.2007 13.905V10.5732H14.5708V11.2979H13.053V11.8312H14.2654V12.5513H13.053V13.905H12.2007Z" fill="white"/>
</g>
</g>
</g>
<defs>
<clipPath id="clip0_0_4931">
<rect width="18.2405" height="18.2405" fill="white" transform="translate(0.986084 0.295898)"/>
</clipPath>
<clipPath id="clip1_0_4931">
<rect width="18.2405" height="18.2405" fill="white" transform="translate(0.986084 0.295898)"/>
</clipPath>
<clipPath id="clip2_0_4931">
<rect width="14.5924" height="18.2405" fill="white" transform="translate(2.81006 0.295898)"/>
</clipPath>
</defs>
</svg>
