<svg width="32" height="33" viewBox="0 0 32 33" fill="none" xmlns="http://www.w3.org/2000/svg">
<path d="M21.385 10.5898C20.33 5.68987 18.08 2.58987 15.999 2.58987C13.918 2.58987 11.668 5.68987 10.613 10.5898H21.385ZM9.99895 16.5898C9.9987 17.9276 10.0879 19.2639 10.266 20.5898H21.732C21.91 19.2639 21.9992 17.9276 21.999 16.5898C21.9992 15.252 21.91 13.9157 21.732 12.5898H10.266C10.0879 13.9157 9.9987 15.252 9.99895 16.5898ZM10.613 22.5898C11.668 27.4898 13.918 30.5898 15.999 30.5898C18.08 30.5898 20.33 27.4898 21.385 22.5898H10.613ZM23.433 10.5898H29.733C28.7864 8.43564 27.3481 6.53322 25.5335 5.03521C23.7189 3.5372 21.5785 2.4853 19.284 1.96387C21.181 3.63287 22.669 6.71887 23.433 10.5898ZM30.452 12.5898H23.752C23.9169 13.9168 23.9994 15.2527 23.999 16.5898C23.9991 17.927 23.9163 19.2629 23.751 20.5898H30.451C31.1802 17.973 31.1812 15.2066 30.452 12.5898ZM19.284 31.2158C21.5788 30.6947 23.7197 29.6429 25.5346 28.1449C27.3496 26.6469 28.7882 24.7443 29.735 22.5898H23.435C22.669 26.4608 21.181 29.5468 19.284 31.2158ZM8.56495 22.5898H2.26495C3.21174 24.7443 4.65033 26.6469 6.46529 28.1449C8.28025 29.6429 10.4211 30.6947 12.716 31.2158C10.817 29.5468 9.32895 26.4608 8.56495 22.5898ZM12.714 1.96387C10.4191 2.48502 8.27825 3.53679 6.46329 5.03481C4.64833 6.53284 3.20974 8.4354 2.26295 10.5898H8.56295C9.32895 6.71887 10.817 3.63287 12.714 1.96387ZM7.99895 16.5898C7.99882 15.2526 8.08165 13.9167 8.24695 12.5898H1.54695C0.817683 15.2066 0.817683 17.973 1.54695 20.5898H8.24695C8.08165 19.2629 7.99882 17.927 7.99895 16.5898Z" fill="#00A251"/>
</svg>
