<svg width="32" height="33" viewBox="0 0 32 33" fill="none" xmlns="http://www.w3.org/2000/svg">
<path d="M24 8.08984C24 7.12984 23.84 6.20984 23.54 5.34984C25.59 6.43984 27 8.60984 27 11.0898C27 14.6698 24.08 17.5898 20.5 17.5898C19.16 17.5898 17.9 17.1798 16.87 16.4798C17.86 16.3198 18.8 15.9898 19.64 15.5098C20.9337 14.7865 22.0163 13.7382 22.781 12.4685C23.5456 11.1988 23.9658 9.75162 24 8.26984V8.08984ZM15.02 14.5698C15.18 14.5798 15.34 14.5898 15.5 14.5898C16.15 14.5898 16.78 14.4898 17.37 14.3198C20.04 13.5098 22 11.0198 22 8.08984C22 7.64984 21.96 7.22984 21.87 6.80984C21.71 6.00984 21.41 5.26984 20.98 4.60984C20.3946 3.68586 19.5855 2.92462 18.6275 2.39669C17.6695 1.86877 16.5938 1.59124 15.5 1.58984C11.92 1.58984 9 4.50984 9 8.08984C9 11.5098 11.66 14.3198 15.02 14.5698ZM6.85 17.7198C6.58 17.6298 6.29 17.5898 6 17.5898H4C2.35 17.5898 1 18.9398 1 20.5898V28.5698C1 30.2198 2.35 31.5698 4 31.5698H6C6.28 31.5698 6.56 31.5298 6.82 31.4498C6.251 30.9802 5.7928 30.3907 5.47817 29.7234C5.16354 29.0561 5.00026 28.3275 5 27.5898V21.5898C5 20.0298 5.72 18.6298 6.85 17.7198ZM30.184 19.7568C30.062 19.5834 29.92 19.425 29.761 19.2848C29.5556 19.1058 29.3264 18.956 29.08 18.8398C28.64 18.6398 28.16 18.5698 27.686 18.6148C27.52 18.6308 27.359 18.6778 27.197 18.7208C26.895 18.8008 26.6 18.9108 26.33 19.0798L22.438 21.6428L21 22.5898L19.008 23.9178C18.3509 24.356 17.5788 24.5898 16.789 24.5898H14C13.45 24.5898 13 24.1398 13 23.5898C13 23.0398 13.45 22.5898 14 22.5898H17C18.1 22.5898 19 21.6898 19 20.5898C18.9978 20.0689 18.793 19.5693 18.4288 19.1969C18.0646 18.8245 17.5697 18.6086 17.049 18.5948C17.032 18.5948 17.017 18.5898 17 18.5898H10C9.976 18.5898 9.954 18.5978 9.93 18.5988C9.72218 18.6041 9.51544 18.6305 9.313 18.6778C9.222 18.6988 9.137 18.7308 9.05 18.7598C8.92579 18.8005 8.80451 18.8496 8.687 18.9068C8.637 18.9308 8.579 18.9428 8.531 18.9698C8.467 19.0068 8.407 19.0508 8.346 19.0918L8.308 19.1168C8.158 19.2208 8.016 19.3348 7.888 19.4638L7.857 19.4988C7.7175 19.6432 7.59256 19.8009 7.484 19.9698C7.3914 20.1108 7.31078 20.2593 7.243 20.4138L7.224 20.4658C7.1655 20.6122 7.11869 20.763 7.084 20.9168C7.074 20.9618 7.064 21.0068 7.056 21.0518C7.02175 21.2288 7.00368 21.4085 7.002 21.5888V27.5948C7.00341 27.8195 7.03059 28.0433 7.083 28.2618C7.121 28.4298 7.169 28.5938 7.235 28.7498L7.238 28.7598C7.32207 28.9544 7.42666 29.1394 7.55 29.3118C7.647 29.4498 7.752 29.5798 7.87 29.6988L7.884 29.7138C8.005 29.8338 8.138 29.9408 8.278 30.0388C8.318 30.0668 8.359 30.0918 8.4 30.1178C8.441 30.1438 8.48 30.1738 8.522 30.1978C8.554 30.2158 8.592 30.2228 8.625 30.2398C8.776 30.3188 8.934 30.3828 9.099 30.4358C9.164 30.4558 9.225 30.4798 9.291 30.4958C9.52 30.5518 9.756 30.5898 10.003 30.5898H20.265C20.576 30.5898 20.879 30.5328 21.171 30.4408C21.5524 30.3201 21.9069 30.1269 22.215 29.8718L27.741 25.1508L30.004 23.2188L30.154 23.0588C30.484 22.6188 30.714 21.9288 30.714 21.3788C30.714 20.7758 30.522 20.2188 30.188 19.7558L30.184 19.7568Z" fill="#00A251"/>
</svg>
