<svg width="32" height="33" viewBox="0 0 32 33" fill="none" xmlns="http://www.w3.org/2000/svg">
<path d="M23.7492 7.90919V8.89586L19.0292 6.16252C17.2425 5.13586 14.7492 5.13586 12.9759 6.16252L8.25586 8.90919V7.90919C8.25586 4.90919 9.89586 3.25586 12.8959 3.25586H19.1092C22.1092 3.25586 23.7492 4.90919 23.7492 7.90919Z" fill="#00A251"/>
<path d="M23.788 11.2129L23.6013 11.1195L21.788 10.0796L18.028 7.90625C16.8813 7.23958 15.1213 7.23958 13.9746 7.90625L10.2146 10.0663L8.4013 11.1329L8.1613 11.2529C5.82797 12.8262 5.66797 13.1195 5.66797 15.6395V21.6662C5.66797 24.1862 5.82797 24.4795 8.21464 26.0929L13.9746 29.4129C14.548 29.7595 15.268 29.9062 16.0013 29.9062C16.7213 29.9062 17.4546 29.7462 18.028 29.4129L23.8413 26.0529C26.188 24.4795 26.3346 24.1995 26.3346 21.6662V15.6395C26.3346 13.1195 26.1746 12.8262 23.788 11.2129ZM19.7213 18.5862L18.908 19.5862C18.7746 19.7329 18.6813 20.0129 18.6946 20.2129L18.7746 21.4929C18.828 22.2795 18.268 22.6795 17.5346 22.3995L16.348 21.9195C16.1262 21.8529 15.8897 21.8529 15.668 21.9195L14.4813 22.3862C13.748 22.6795 13.188 22.2662 13.2413 21.4795L13.3213 20.1995C13.3263 19.972 13.2507 19.7501 13.108 19.5729L12.2813 18.5862C11.7746 17.9862 12.0013 17.3195 12.7613 17.1195L14.0013 16.7995C14.2013 16.7462 14.428 16.5595 14.5346 16.3995L15.228 15.3329C15.6546 14.6662 16.3346 14.6662 16.7746 15.3329L17.468 16.3995C17.5746 16.5729 17.8146 16.7462 18.0013 16.7995L19.2413 17.1195C20.0013 17.3195 20.228 17.9862 19.7213 18.5862Z" fill="#00A251"/>
</svg>
