<svg width="48" height="48" viewBox="0 0 48 48" fill="none" xmlns="http://www.w3.org/2000/svg">
<g clip-path="url(#clip0_562_2488)">
<g clip-path="url(#clip1_562_2488)">
<mask id="mask0_562_2488" style="mask-type:luminance" maskUnits="userSpaceOnUse" x="0" y="0" width="48" height="48">
<path d="M0 0H48V48H0V0Z" fill="white"/>
</mask>
<g mask="url(#mask0_562_2488)">
<path d="M24 48C37.254 48 48 37.254 48 24C48 10.746 37.254 0 24 0C10.746 0 0 10.746 0 24C0 37.254 10.746 48 24 48Z" fill="#22943F"/>
<path d="M31.2889 31.1367L33.2089 29.2767L38.6929 23.7927C38.8075 23.6627 38.8934 23.51 38.9451 23.3446C38.9968 23.1792 39.0131 23.0048 38.9929 22.8327L36.9589 11.6647C36.9183 11.5042 36.8346 11.3579 36.7168 11.2416C36.5991 11.1253 36.4518 11.0433 36.2909 11.0047L25.1789 9.01066C25.0055 8.99006 24.8298 9.00612 24.663 9.0578C24.4963 9.10948 24.3422 9.19563 24.2109 9.31066L7.66689 25.8547C7.56468 25.964 7.50781 26.108 7.50781 26.2577C7.50781 26.4073 7.56468 26.5514 7.66689 26.6607L21.3429 40.3367C21.5629 40.5547 21.9229 40.5567 22.1489 40.3367L28.8089 33.6767C30.1589 35.0167 32.2649 35.3707 33.9809 34.5467C34.8236 34.1355 35.5202 33.4762 35.9771 32.6575C36.4341 31.8387 36.6294 30.8997 36.5369 29.9667C36.5229 29.5187 36.4849 28.3627 36.1129 27.5907L34.2789 29.3247C34.3469 29.6267 34.4029 29.8767 34.4089 29.9647C34.447 30.6073 34.2318 31.2393 33.8092 31.725C33.3867 32.2107 32.7906 32.5114 32.1489 32.5627C31.5065 32.6008 30.8747 32.3854 30.3893 31.9629C29.9039 31.5403 29.6036 30.9442 29.5529 30.3027C29.4969 29.5127 29.8489 26.6267 30.3409 23.9067C30.5709 22.5867 30.8929 21.3467 31.2509 20.0567C32.3269 19.6367 33.0169 18.4527 32.8509 17.3107C32.7577 16.7431 32.4798 16.2222 32.0603 15.8288C31.6408 15.4353 31.1032 15.1913 30.5309 15.1347C29.9577 15.0981 29.3884 15.2515 28.9112 15.5711C28.4339 15.8907 28.0753 16.3587 27.8909 16.9027C27.5409 18.0027 28.0269 19.2847 29.0209 19.8747C28.5557 21.9209 28.1787 23.9861 27.8909 26.0647C27.6649 27.6247 27.3509 29.2847 27.4709 30.8687L26.1649 32.1747L15.8289 21.8427L25.3489 12.3287C25.4138 12.2711 25.49 12.2277 25.5727 12.2016C25.6554 12.1754 25.7427 12.1669 25.8289 12.1767L34.0009 13.6507C34.0817 13.67 34.1556 13.7112 34.2145 13.7697C34.2735 13.8283 34.3151 13.902 34.3349 13.9827L35.8709 22.1307C35.8813 22.2172 35.8732 22.305 35.847 22.3881C35.8208 22.4712 35.7771 22.5478 35.7189 22.6127L30.8389 27.4987C30.5249 28.6707 30.1569 30.7227 31.2909 31.1327L31.2889 31.1367ZM21.4489 36.4807L11.5549 26.5367C11.5026 26.4819 11.473 26.4095 11.4718 26.3338C11.4707 26.2582 11.4983 26.1849 11.5489 26.1287L14.2569 23.4247L24.5909 33.7567L21.8569 36.4887C21.801 36.5393 21.7278 36.5667 21.6523 36.5653C21.5768 36.5638 21.5048 36.5335 21.4509 36.4807H21.4489Z" fill="white"/>
</g>
</g>
</g>
<defs>
<clipPath id="clip0_562_2488">
<rect width="48" height="48" fill="white"/>
</clipPath>
<clipPath id="clip1_562_2488">
<rect width="48" height="48" fill="white"/>
</clipPath>
</defs>
</svg>
