<svg width="16" height="12" viewBox="0 0 16 12" fill="none" xmlns="http://www.w3.org/2000/svg">
<path fill-rule="evenodd" clip-rule="evenodd" d="M8.77708 0.412429C8.85445 0.334934 8.94634 0.273454 9.0475 0.231507C9.14865 0.18956 9.25708 0.167969 9.36658 0.167969C9.47609 0.167969 9.58452 0.18956 9.68567 0.231507C9.78683 0.273454 9.87872 0.334934 9.95608 0.412429L14.9561 5.41243C15.0336 5.4898 15.0951 5.58169 15.137 5.68284C15.179 5.78399 15.2005 5.89242 15.2005 6.00193C15.2005 6.11143 15.179 6.21987 15.137 6.32102C15.0951 6.42217 15.0336 6.51406 14.9561 6.59143L9.95608 11.5914C9.79974 11.7478 9.58769 11.8356 9.36658 11.8356C9.14548 11.8356 8.93343 11.7478 8.77708 11.5914C8.62074 11.4351 8.53291 11.223 8.53291 11.0019C8.53291 10.7808 8.62074 10.5688 8.77708 10.4124L12.3551 6.83543H1.03308C0.812027 6.83543 0.600023 6.74761 0.443712 6.5913C0.2874 6.43499 0.199585 6.22299 0.199585 6.00193C0.199585 5.78087 0.2874 5.56887 0.443712 5.41256C0.600023 5.25624 0.812027 5.16843 1.03308 5.16843H12.3551L8.77708 1.59143C8.69959 1.51406 8.63811 1.42217 8.59616 1.32102C8.55422 1.21987 8.53262 1.11143 8.53262 1.00193C8.53262 0.892424 8.55422 0.783993 8.59616 0.68284C8.63811 0.581688 8.69959 0.489798 8.77708 0.412429Z" fill="white"/>
</svg>
