<svg width="16" height="16" viewBox="0 0 16 16" fill="none" xmlns="http://www.w3.org/2000/svg">
<path d="M6.58835 12.704C3.20967 12.704 0.470703 9.96513 0.470703 6.5864C0.470703 3.20771 3.20967 0.46875 6.58835 0.46875C9.96708 0.46875 12.706 3.20771 12.706 6.5864C12.706 9.96513 9.96708 12.704 6.58835 12.704ZM6.58835 11.7629C9.44727 11.7629 11.7648 9.44529 11.7648 6.5864C11.7648 3.72751 9.44727 1.40993 6.58835 1.40993C3.72946 1.40993 1.41188 3.72751 1.41188 6.5864C1.41188 9.44529 3.72946 11.7629 6.58835 11.7629ZM14.7261 15.3898L11.432 12.0957C11.2483 11.9119 11.2483 11.6139 11.432 11.4301C11.6158 11.2464 11.9138 11.2464 12.0976 11.4301L15.3917 14.7242C15.5755 14.908 15.5755 15.206 15.3917 15.3898C15.2079 15.5735 14.91 15.5735 14.7261 15.3898Z" fill="white" stroke="white" stroke-width="0.8"/>
</svg>
