<svg width="8" height="9" viewBox="0 0 8 9" fill="none" xmlns="http://www.w3.org/2000/svg">
<g clip-path="url(#clip0_562_2664)">
<path fill-rule="evenodd" clip-rule="evenodd" d="M3.69571 1.0957C3.6616 1.09699 3.62907 1.11045 3.60402 1.13366C3.57897 1.15686 3.56306 1.18827 3.55916 1.22219C3.47901 1.96193 3.1486 2.65206 2.62268 3.1782C2.09675 3.70433 1.4069 4.03488 0.667456 4.11505C0.637311 4.11781 0.608822 4.13008 0.586097 4.15009C0.563373 4.17009 0.547587 4.1968 0.541016 4.22636V4.23901C0.541016 4.23901 0.541016 4.23901 0.541016 4.24787C0.541016 4.25672 0.541016 4.24786 0.541016 4.25546C0.541016 4.25546 0.541016 4.26304 0.541016 4.26557C0.544782 4.29782 0.559313 4.32785 0.58226 4.3508C0.605206 4.37376 0.635225 4.3883 0.667456 4.39207C1.40518 4.47343 2.09312 4.80402 2.61771 5.32927C3.14229 5.85453 3.47215 6.54304 3.55283 7.28113C3.5566 7.31337 3.57113 7.34341 3.59408 7.36636C3.61702 7.38932 3.64704 7.40385 3.67927 7.40762H3.69824C3.73227 7.40608 3.76466 7.39253 3.78966 7.36937C3.81466 7.34622 3.83065 7.31496 3.8348 7.28113C3.91812 6.54398 4.24992 5.8572 4.77553 5.33391C5.30115 4.81061 5.98925 4.48199 6.72649 4.40219C6.75657 4.39924 6.78496 4.3869 6.80765 4.36693C6.83034 4.34695 6.84618 4.32034 6.85293 4.29088V4.27822C6.85293 4.27822 6.85293 4.27822 6.85293 4.26937C6.85293 4.26051 6.85293 4.26937 6.85293 4.26178C6.85293 4.26178 6.85293 4.25546 6.85293 4.25166V4.23775C6.8455 4.20898 6.82936 4.1832 6.80673 4.16396C6.7841 4.14471 6.75607 4.13293 6.72649 4.13023C5.98631 4.04828 5.29641 3.71554 4.77133 3.18726C4.24624 2.65897 3.91757 1.96692 3.83985 1.22599C3.83608 1.19374 3.82155 1.16371 3.79861 1.14076C3.77566 1.1178 3.74565 1.10327 3.71341 1.0995H3.69571V1.0957Z" fill="#4F4F4F"/>
</g>
<defs>
<clipPath id="clip0_562_2664">
<rect width="6.81417" height="7.5713" fill="white" transform="translate(0.541016 0.554688)"/>
</clipPath>
</defs>
</svg>
