<svg width="14" height="14" viewBox="0 0 14 14" fill="none" xmlns="http://www.w3.org/2000/svg">
<g clip-path="url(#clip0_562_2644)">
<g clip-path="url(#clip1_562_2644)">
<path d="M12.9207 5.5656L10.3402 8.20981L10.9427 11.9119C10.9583 11.9938 10.9509 12.0784 10.9212 12.1563C10.8914 12.2342 10.8406 12.3021 10.7744 12.3528C10.7032 12.4073 10.6161 12.4368 10.5264 12.4369C10.4588 12.4362 10.3924 12.4197 10.3323 12.3887L7.14384 10.6241L3.95534 12.3864C3.8888 12.4199 3.81431 12.4344 3.74008 12.4282C3.66587 12.4221 3.59477 12.3956 3.53462 12.3517C3.46839 12.3011 3.41756 12.233 3.38783 12.1552C3.35811 12.0773 3.35066 11.9927 3.36633 11.9108L3.96319 8.20083L1.38277 5.55663C1.30374 5.47223 1.25977 5.36094 1.25977 5.24532C1.25977 5.12969 1.30374 5.0184 1.38277 4.934C1.4462 4.86666 1.53031 4.82244 1.62174 4.80835L5.17935 4.26089L6.77136 0.895341C6.79379 0.844255 6.82633 0.798245 6.86704 0.760089C6.90774 0.721932 6.95576 0.692422 7.00819 0.673339C7.06062 0.654256 7.11637 0.645997 7.17208 0.649061C7.22779 0.652125 7.2823 0.666448 7.33232 0.691164C7.4185 0.735349 7.48726 0.807277 7.52754 0.895341L9.12291 4.27436L12.6862 4.8162C12.7992 4.83599 12.8999 4.89941 12.9667 4.9928C13.0334 5.08619 13.0608 5.20205 13.0429 5.31543C13.0297 5.40968 12.9869 5.49728 12.9207 5.5656Z" fill="#FFD148"/>
</g>
</g>
<defs>
<clipPath id="clip0_562_2644">
<rect width="12.7709" height="12.7709" fill="white" transform="translate(0.769531 0.382812)"/>
</clipPath>
<clipPath id="clip1_562_2644">
<rect width="11.7885" height="12.7709" fill="white" transform="translate(1.25977 0.382812)"/>
</clipPath>
</defs>
</svg>
