<svg width="39" height="27" viewBox="0 0 39 27" fill="none" xmlns="http://www.w3.org/2000/svg">
<path d="M0 26.0248V0.568359H3.5394V17.5393H17.697V3.96255H31.8546C33.8012 3.96255 35.4677 4.62724 36.854 5.95664C38.2402 7.28603 38.9333 8.88412 38.9333 10.7509V26.0248H35.394V20.9335H3.5394V26.0248H0ZM10.6182 15.8422C9.14344 15.8422 7.8899 15.3472 6.85758 14.3573C5.82525 13.3673 5.30909 12.1652 5.30909 10.7509C5.30909 9.33668 5.82525 8.13457 6.85758 7.1446C7.8899 6.15463 9.14344 5.65964 10.6182 5.65964C12.0929 5.65964 13.3465 6.15463 14.3788 7.1446C15.4111 8.13457 15.9273 9.33668 15.9273 10.7509C15.9273 12.1652 15.4111 13.3673 14.3788 14.3573C13.3465 15.3472 12.0929 15.8422 10.6182 15.8422Z" fill="#22943F"/>
<ellipse cx="10.4822" cy="10.301" rx="5.98975" ry="6.73846" fill="white"/>
<circle cx="10.4813" cy="10.3016" r="5.24103" fill="#5D916A"/>
</svg>
