<svg width="49" height="33" viewBox="0 0 49 33" fill="none" xmlns="http://www.w3.org/2000/svg">
<g clip-path="url(#clip0_562_2445)">
<path d="M28.4629 25.0629H31.309V27.9381H28.4629V25.0629ZM38.301 25.0629H41.1471V27.9381H38.301V25.0629ZM35.9136 14.8659V11.9922H31.9691V13.3919L33.4405 14.8673L35.9136 14.8659Z" fill="#22943F"/>
<path d="M45.6672 30.4048V24.3424H46.5723L47.4135 23.5023L37.4475 13.4345H36.2102V15.1794H33.311L31.5838 13.4345H26.7981L16.843 23.4913L17.6841 24.341H19.0167V30.4034H16.4156C12.5255 26.6441 11.4911 18.1178 11.8545 11.7749L11.9185 11.6456H11.9498C13.6512 11.6456 15.1593 12.4789 16.0984 13.7631L16.108 13.7769C16.8157 14.7435 17.2418 15.9604 17.2418 17.2763C17.2418 18.1838 17.0403 19.0431 16.6783 19.8118L16.6932 19.776C17.4529 19.5796 18.159 19.2131 18.7594 18.7035L18.7512 18.7104C19.3767 18.1609 19.8779 17.4821 20.221 16.7199C20.5641 15.9576 20.741 15.1298 20.7398 14.2925C20.7398 12.9794 20.3124 11.768 19.591 10.7918L19.6019 10.8069C18.983 9.93493 18.1076 9.28232 17.1003 8.94191C16.0931 8.60149 15.0052 8.59059 13.9914 8.91076L14.0268 8.90114C14.3875 8.67426 14.8027 8.47351 15.2396 8.32089L15.2831 8.30714C15.877 8.08582 16.5053 7.9736 17.1383 7.97576C18.6124 7.97576 19.9477 8.57114 20.9236 9.53502L20.9222 9.53364C21.0677 8.76248 21.0242 7.96707 20.7956 7.21676L20.8052 7.25114C20.5795 6.58236 20.2214 5.967 19.7527 5.44253C19.284 4.91806 18.7145 4.49547 18.0789 4.20049C17.4434 3.90552 16.755 3.74433 16.0558 3.72676C15.3566 3.70918 14.6611 3.83558 14.0118 4.09826L14.0459 4.08589C13.7173 4.19992 13.3979 4.33921 13.0904 4.50251L13.1298 4.48326C13.0367 4.05338 12.8994 3.63448 12.7202 3.23339L12.7365 3.27326C11.5387 0.560389 8.79198 -0.721111 6.59651 0.399514C6.00395 0.706228 5.49462 1.15467 5.1129 1.70576L5.10473 1.71951C5.87756 1.79569 6.62205 2.05331 7.2788 2.47181C7.93554 2.89032 8.48635 3.45812 8.88726 4.12989L8.89951 4.15189C8.39046 3.89367 7.85132 3.70104 7.29476 3.57851L7.24849 3.57026C3.87293 2.83739 0.660708 4.68951 0.0849575 7.71589C-0.0688797 8.5461 -0.0179252 9.4018 0.233319 10.2074L0.223791 10.1716C0.978321 9.30559 1.95521 8.66718 3.04648 8.32697C4.13775 7.98676 5.30089 7.95801 6.40732 8.24389L6.36376 8.23426C6.92046 8.35251 7.41318 8.52302 7.8746 8.74714L7.83512 8.72927C6.73076 8.5799 5.6074 8.76709 4.60903 9.26684C3.61065 9.76659 2.78275 10.5561 2.23143 11.5343L2.21646 11.5618C1.64089 12.5426 1.33849 13.6624 1.34126 14.8026C1.34126 16.9586 2.39885 18.8644 4.01993 20.0194L4.04035 20.0331C4.73727 20.5075 5.53343 20.8125 6.36648 20.9241L6.39507 20.9269C5.79487 19.9216 5.47899 18.7693 5.48176 17.5953C5.48176 16.3949 5.80435 15.2701 6.36785 14.3063L6.35151 14.3365C6.76984 13.6002 7.34375 12.966 8.03236 12.4793C8.72097 11.9926 9.50734 11.6652 10.3355 11.5205L10.3695 11.515C8.44082 20.3879 7.90726 26.5699 9.4984 30.402H4.86246V32.987H48.6195V30.402H45.6672V30.4048ZM34.8464 24.4826H44.6001V30.4048H34.8464V24.4826ZM20.0633 23.3084L26.8008 16.5021L33.5383 23.3084V30.4048H26.1407V25.0643H22.399V30.4048H20.0552V23.3084H20.0633Z" fill="#22943F"/>
</g>
<defs>
<clipPath id="clip0_562_2445">
<rect width="49" height="33" fill="white"/>
</clipPath>
</defs>
</svg>
