<svg width="32" height="33" viewBox="0 0 32 33" fill="none" xmlns="http://www.w3.org/2000/svg">
<mask id="mask0_556_4430" style="mask-type:luminance" maskUnits="userSpaceOnUse" x="0" y="0" width="32" height="33">
<path d="M32 0.589844H0V32.5898H32V0.589844Z" fill="white"/>
</mask>
<g mask="url(#mask0_556_4430)">
<path d="M25.5252 18.8416L24.274 18.1192C24.3847 17.5804 24.4374 17.0826 24.4374 16.5898C24.4374 16.097 24.3847 15.5992 24.274 15.0603L25.5252 14.3379C25.7405 14.2136 25.8976 14.0089 25.962 13.7687C26.0264 13.5285 25.9927 13.2726 25.8683 13.0573L23.9933 9.80978C23.7344 9.36134 23.1612 9.20772 22.7127 9.46665L21.4729 10.1825C20.6958 9.52321 19.7938 9.00803 18.8125 8.6629V7.21484C18.8125 6.69709 18.3927 6.27734 17.875 6.27734H14.125C13.6072 6.27734 13.1875 6.69709 13.1875 7.21484V8.6629C12.2061 9.00803 11.3041 9.52328 10.527 10.1825L9.28722 9.46665C8.83878 9.20765 8.26541 9.3614 8.00659 9.80978L6.13159 13.0573C6.00731 13.2726 5.97364 13.5285 6.03799 13.7687C6.10233 14.0088 6.25943 14.2136 6.47472 14.3379L7.72591 15.0603C7.61509 15.5992 7.56241 16.097 7.56241 16.5898C7.56241 17.0826 7.61509 17.5804 7.72578 18.1193L6.47459 18.8417C6.2593 18.966 6.10218 19.1707 6.03778 19.4109C5.97346 19.6511 6.00716 19.907 6.13147 20.1223L8.00647 23.3699C8.26541 23.8184 8.83878 23.972 9.28709 23.713L10.5269 22.9972C11.304 23.6564 12.206 24.1716 13.1873 24.5167V25.9648C13.1873 26.4825 13.6071 26.9023 14.1248 26.9023H17.8748C18.3926 26.9023 18.8123 26.4825 18.8123 25.9648V24.5167C19.7937 24.1716 20.6957 23.6564 21.4728 22.9972L22.7126 23.713C23.161 23.9719 23.7343 23.8182 23.9932 23.3699L25.8682 20.1223C25.9298 20.0157 25.9698 19.898 25.9859 19.7759C26.002 19.6539 25.9938 19.5298 25.962 19.4109C25.9301 19.292 25.8751 19.1805 25.8002 19.0828C25.7252 18.9851 25.6318 18.9032 25.5252 18.8416ZM15.9999 19.4023C14.4491 19.4023 13.1874 18.1406 13.1874 16.5898C13.1874 15.039 14.4491 13.7773 15.9999 13.7773C17.5507 13.7773 18.8124 15.039 18.8124 16.5898C18.8124 18.1406 17.5507 19.4023 15.9999 19.4023Z" fill="#00A251"/>
<path d="M28.8218 7.01265L27.496 3.03515C27.3323 2.54396 26.8013 2.2784 26.3101 2.44222C25.8189 2.60596 25.5535 3.13684 25.7172 3.62809L25.8299 3.96615C24.9843 3.32249 24.0795 2.76062 23.1277 2.28809C20.8878 1.17709 18.4231 0.589844 16 0.589844C11.7494 0.589844 7.73787 2.26046 4.70431 5.29415C1.67062 8.32771 0 12.3392 0 16.5898C0 18.5529 0.412437 20.5641 1.22569 22.5675C1.37356 22.9317 1.72438 23.1525 2.09462 23.1525C2.21206 23.1525 2.3315 23.1304 2.447 23.0835C2.92675 22.8887 3.15775 22.3419 2.963 21.8622C2.241 20.0839 1.875 18.31 1.875 16.5898C1.875 8.80128 8.21144 2.46484 16 2.46484C18.8587 2.46484 21.7446 3.41584 24.1423 5.06522C23.684 4.97115 23.2173 5.23178 23.0656 5.68672C22.9019 6.17784 23.1673 6.70884 23.6585 6.87259L27.636 8.19846C27.8012 8.25348 27.9784 8.26143 28.1478 8.22141C28.3172 8.1814 28.4722 8.09501 28.5953 7.97191C28.7184 7.84882 28.8047 7.69388 28.8448 7.52446C28.8848 7.35503 28.8768 7.17781 28.8218 7.01265ZM30.7743 10.6121C30.5795 10.1323 30.0326 9.90153 29.553 10.0962C29.0732 10.2909 28.8423 10.8377 29.037 11.3174C29.759 13.0957 30.125 14.8696 30.125 16.5898C30.125 24.3784 23.7886 30.7148 16 30.7148C13.1412 30.7148 10.2554 29.7638 7.85769 28.1144C8.31594 28.2084 8.78275 27.9479 8.93444 27.4929C9.09813 27.0018 8.83269 26.4708 8.3415 26.3071L4.364 24.9812C4.19882 24.9261 4.02157 24.9181 3.8521 24.9581C3.68264 24.9981 3.52766 25.0845 3.40454 25.2076C3.28142 25.3307 3.19502 25.4857 3.15503 25.6552C3.11504 25.8246 3.12304 26.0019 3.17812 26.167L4.50394 30.1446C4.63494 30.5374 5.00063 30.7859 5.39325 30.7859C5.4915 30.7859 5.5915 30.7703 5.68981 30.7376C6.181 30.5738 6.44644 30.0429 6.28275 29.5517L6.17006 29.2136C7.01562 29.8573 7.92042 30.4191 8.87225 30.8917C11.1122 32.0025 13.5769 32.5898 16 32.5898C20.2506 32.5898 24.2621 30.9192 27.2957 27.8855C30.3294 24.8519 32 20.8404 32 16.5898C32 14.6267 31.5876 12.6155 30.7743 10.6121Z" fill="#00A251"/>
</g>
</svg>
