<svg width="25" height="24" viewBox="0 0 25 24" fill="none" xmlns="http://www.w3.org/2000/svg">
<path fill-rule="evenodd" clip-rule="evenodd" d="M12.6711 3C11.6102 3 10.5928 3.42143 9.84268 4.17157C9.09254 4.92172 8.67111 5.93913 8.67111 7C8.67111 8.06087 9.09254 9.07828 9.84268 9.82843C10.5928 10.5786 11.6102 11 12.6711 11C13.732 11 14.7494 10.5786 15.4995 9.82843C16.2497 9.07828 16.6711 8.06087 16.6711 7C16.6711 5.93913 16.2497 4.92172 15.4995 4.17157C14.7494 3.42143 13.732 3 12.6711 3ZM10.6711 7C10.6711 6.46957 10.8818 5.96086 11.2569 5.58579C11.632 5.21071 12.1407 5 12.6711 5C13.2015 5 13.7102 5.21071 14.0853 5.58579C14.4604 5.96086 14.6711 6.46957 14.6711 7C14.6711 7.53043 14.4604 8.03914 14.0853 8.41421C13.7102 8.78929 13.2015 9 12.6711 9C12.1407 9 11.632 8.78929 11.2569 8.41421C10.8818 8.03914 10.6711 7.53043 10.6711 7ZM12.6711 12C8.61511 12 5.25111 14.975 4.69211 18.86C4.51311 20.107 5.55211 21 6.61111 21H18.7311C19.7911 21 20.8291 20.107 20.6501 18.86C20.0911 14.976 16.7271 12 12.6711 12ZM12.6711 14C15.6791 14 18.1681 16.169 18.6471 19H6.69511C7.17411 16.169 9.66211 14 12.6711 14Z" fill="#191E3B"/>
</svg>
