<svg width="23" height="22" viewBox="0 0 23 22" fill="none" xmlns="http://www.w3.org/2000/svg">
<g clip-path="url(#clip0_0_4944)">
<g clip-path="url(#clip1_0_4944)">
<mask id="mask0_0_4944" style="mask-type:luminance" maskUnits="userSpaceOnUse" x="0" y="-1" width="23" height="23">
<path d="M22.682 -0.00195312H0.793457V21.8866H22.682V-0.00195312Z" fill="white"/>
</mask>
<g mask="url(#mask0_0_4944)">
<path d="M6.22304 1.86277C5.38511 2.04233 4.68827 2.72635 4.49161 3.55144C4.43605 3.78656 4.42749 4.54754 4.42749 9.11335C4.42749 12.7685 4.44031 14.4701 4.47451 14.6282C4.59849 15.2267 5.07303 15.8638 5.60314 16.1459C6.15891 16.4366 5.56467 16.4153 13.5677 16.4153H20.8054L21.1304 16.3084C21.8742 16.0561 22.4257 15.4747 22.6223 14.7266C22.6694 14.5556 22.6822 13.4783 22.6822 9.12618C22.6822 3.23508 22.6907 3.49587 22.4343 3.01704C22.3702 2.89735 22.1949 2.67077 22.0452 2.50831C21.7288 2.17486 21.2629 1.91835 20.8268 1.84139C20.6515 1.80719 18.3558 1.79437 13.5378 1.79865C7.65947 1.79865 6.4539 1.81147 6.22304 1.86277ZM20.6686 3.78656C20.7413 3.84642 20.8097 3.9533 20.8225 4.03025C20.8353 4.1072 20.8396 5.59066 20.8353 7.33063L20.8225 10.4899L19.339 8.7628C18.5225 7.80944 17.7872 6.98862 17.706 6.93305C17.0818 6.50981 16.2311 6.55683 15.6881 7.03992C15.6112 7.10406 14.786 8.07878 13.8541 9.20317L12.1526 11.2466L11.5242 10.6267C10.8103 9.92139 10.558 9.76315 10.0663 9.72038C9.75428 9.69046 9.33959 9.77601 9.09163 9.92558C9.00613 9.97264 8.33494 10.6139 7.60389 11.345L6.26579 12.6745V8.42079C6.26579 5.63769 6.28289 4.11147 6.30854 4.00888C6.33419 3.92338 6.40259 3.81222 6.46672 3.76092C6.57787 3.67542 6.5907 3.67542 13.5591 3.67542H20.5361L20.6686 3.78656Z" fill="white"/>
<path d="M8.61683 4.57757C8.091 4.68018 7.56943 5.09914 7.32576 5.6207C7.22742 5.83873 7.19322 5.97981 7.17612 6.25342C7.12482 7.04004 7.49248 7.68558 8.18078 8.02332C8.50141 8.18149 8.51423 8.18577 9.0016 8.18577C9.48896 8.18577 9.50178 8.18149 9.82242 8.02332C10.5107 7.68558 10.8784 7.04004 10.8271 6.25342C10.7587 5.14189 9.72836 4.35955 8.61683 4.57757Z" fill="white"/>
<path d="M3.05069 8.16463C3.03359 8.19883 2.52485 9.87469 1.92207 11.884C0.883211 15.3425 0.82336 15.5606 0.801984 15.9539C0.789158 16.2916 0.801984 16.4199 0.874661 16.6635C1.04139 17.2193 1.46035 17.7067 1.96909 17.9375C2.08879 17.9889 5.3849 18.8951 9.3009 19.9468L16.419 21.862H16.9576L17.4963 21.8663L17.8596 21.6868C18.2658 21.4858 18.5907 21.178 18.766 20.8232C18.86 20.6437 19.7322 17.9332 19.7322 17.8306C19.7322 17.7964 17.7827 17.7837 13.1827 17.7837C9.4719 17.7837 6.45368 17.7622 6.21854 17.7409C4.97877 17.6211 3.94419 16.8902 3.4269 15.7658C3.11054 15.0903 3.13192 15.3169 3.102 11.5206C3.08916 9.63957 3.06779 8.13043 3.05069 8.16463Z" fill="white"/>
</g>
</g>
</g>
<defs>
<clipPath id="clip0_0_4944">
<rect width="21.8886" height="21.8886" fill="white" transform="translate(0.712646 0.0556641)"/>
</clipPath>
<clipPath id="clip1_0_4944">
<rect width="21.8886" height="21.8886" fill="white" transform="translate(0.712646 0.0556641)"/>
</clipPath>
</defs>
</svg>
