<svg width="24" height="24" viewBox="0 0 24 24" fill="none" xmlns="http://www.w3.org/2000/svg">
<path fill-rule="evenodd" clip-rule="evenodd" d="M7.953 5.552C8.992 4.592 10.388 4 12 4C13.612 4 15.008 4.592 16.047 5.552L16.054 5.558C16.6667 6.10959 17.1566 6.78387 17.4919 7.53707C17.8271 8.29027 18.0003 9.10556 18 9.93C18 11.487 17.336 12.962 16.359 14.392C15.379 15.825 13.941 17.417 12 19.166C10.059 17.416 8.62 15.825 7.641 14.392C6.661 12.958 6 11.492 6 9.929C6.00002 9.10489 6.17327 8.29 6.50851 7.53716C6.84376 6.78432 7.33351 6.11037 7.946 5.559L7.953 5.552ZM12 2C9.88 2 8.002 2.785 6.6 4.08C5.78142 4.81889 5.12703 5.72137 4.67916 6.72907C4.2313 7.73677 3.99992 8.82726 4 9.93C4 12.07 4.908 13.936 5.99 15.52C7.206 17.298 8.991 19.21 11.344 21.255C11.526 21.4131 11.7589 21.5002 12 21.5002C12.2411 21.5002 12.474 21.4131 12.656 21.255C15.009 19.21 16.794 17.298 18.01 15.52C19.09 13.938 20 12.063 20 9.93C20.0001 8.82726 19.7687 7.73677 19.3208 6.72907C18.873 5.72137 18.2186 4.81889 17.4 4.08C15.999 2.785 14.12 2 12 2ZM12 12C12.5304 12 13.0391 11.7893 13.4142 11.4142C13.7893 11.0391 14 10.5304 14 10C14 9.46957 13.7893 8.96086 13.4142 8.58579C13.0391 8.21071 12.5304 8 12 8C11.4696 8 10.9609 8.21071 10.5858 8.58579C10.2107 8.96086 10 9.46957 10 10C10 10.5304 10.2107 11.0391 10.5858 11.4142C10.9609 11.7893 11.4696 12 12 12Z" fill="#191E3B"/>
</svg>
