<svg width="64" height="64" viewBox="0 0 64 64" fill="none" xmlns="http://www.w3.org/2000/svg">
<path d="M39.0369 10.0144C42.8929 6.17922 49.0529 4.98722 54.0065 7.10722C54.4825 7.31226 54.8662 7.68566 55.084 8.15594C55.3019 8.62622 55.3387 9.16033 55.1873 9.65602C55.0866 9.98452 54.9069 10.2834 54.6641 10.5264L48.3169 16.8752C48.0606 17.1364 47.917 17.4877 47.917 17.8536C47.917 18.2195 48.0606 18.5709 48.3169 18.832L51.1201 21.6352C51.381 21.8914 51.732 22.035 52.0977 22.035C52.4634 22.035 52.8144 21.8914 53.0753 21.6352L59.4561 15.2528C59.6934 15.0166 59.9836 14.8404 60.3027 14.7389C60.6218 14.6373 60.9605 14.6134 61.2906 14.6692C61.6208 14.7249 61.9329 14.8586 62.201 15.0591C62.4691 15.2597 62.6855 15.5214 62.8321 15.8224C63.8369 17.8864 64.1393 20.6624 63.6609 23.432C63.1521 26.368 61.8289 29.0096 59.9329 30.8816C56.6369 34.1248 51.5201 35.1216 45.9073 33.6256C45.6661 33.5617 45.412 33.5647 45.1724 33.6343C44.9328 33.7039 44.7167 33.8376 44.5473 34.0208L24.3249 55.6288C23.3553 56.7043 22.0796 57.457 20.6693 57.7857C19.2591 58.1143 17.7821 58.0032 16.4369 57.4672C15.3191 57.0205 14.3336 56.2962 13.5734 55.3628C12.8133 54.4295 12.3035 53.3177 12.0923 52.1327C11.8811 50.9476 11.9754 49.7282 12.3663 48.5897C12.7572 47.4511 13.4318 46.431 14.3265 45.6256L35.8977 25.5824C36.0848 25.4106 36.2206 25.1904 36.2901 24.946C36.3596 24.7017 36.36 24.443 36.2913 24.1984C34.6913 18.4976 35.6913 13.3344 39.0369 10.0144Z" fill="url(#paint0_linear_947_7551)"/>
<path d="M45.3256 39.0244C49.1128 42.4964 52.828 45.8404 54.5672 47.2868C54.9607 47.6138 55.2817 48.0193 55.5096 48.4774C55.7375 48.9355 55.8673 49.4361 55.8906 49.9472C55.914 50.4584 55.8304 50.9687 55.6452 51.4457C55.46 51.9227 55.1773 52.3557 54.8152 52.7172L50.6344 56.89C49.9355 57.5762 48.9962 57.962 48.0168 57.9652H47.8792C47.3693 57.9461 46.8687 57.823 46.4081 57.6035C45.9475 57.3839 45.5367 57.0725 45.2008 56.6884L45.1928 56.6772C43.796 55.0516 40.6072 51.578 37.084 47.834L45.3256 39.026V39.0244Z" fill="url(#paint1_linear_947_7551)"/>
<path d="M25.7823 6.06543C29.2415 6.06543 31.8783 7.61423 32.8943 8.53263C33.3263 8.93263 33.7263 9.36463 34.0911 9.82543C34.2863 10.0654 34.4191 10.2462 34.4511 10.2894C34.7058 10.6361 34.8416 11.0558 34.8382 11.4859C34.8349 11.9161 34.6927 12.3336 34.4327 12.6763C34.1728 13.019 33.809 13.2686 33.3957 13.3877C32.9824 13.5068 32.5416 13.4892 32.1391 13.3374C31.851 13.2325 31.5572 13.1438 31.2591 13.0718C30.6366 12.942 29.9985 12.9026 29.3647 12.955C28.0031 13.067 26.3999 13.7294 25.6911 14.2798C25.0127 14.8014 24.5023 15.5118 24.2223 16.3182C24.0361 16.861 23.984 17.4409 24.0707 18.0082C24.1574 18.5755 24.3801 19.1134 24.7199 19.5758L27.7807 23.7982L27.8623 23.8846C27.8703 23.8958 27.8783 23.907 27.8895 23.9166C28.8959 23.9646 29.8527 24.371 30.5839 25.0638L22.3215 32.7438C21.7083 31.9572 21.3896 30.9808 21.4207 29.9838C18.4879 27.0574 16.8047 25.9086 16.2143 25.5502C15.4191 25.067 14.8591 24.9854 14.7551 24.9742H14.7471C14.6662 24.9659 14.585 24.9863 14.5177 25.032C14.4504 25.0776 14.4013 25.1456 14.3791 25.2238C14.3664 25.2703 14.3635 25.319 14.3707 25.3666C14.3778 25.4143 14.3949 25.4599 14.4207 25.5006C14.6671 25.9054 14.7967 26.3694 14.7951 26.8446C14.7965 27.1872 14.7291 27.5266 14.5969 27.8427C14.4647 28.1587 14.2704 28.445 14.0255 28.6846L10.3503 32.2766C9.85993 32.7492 9.20476 33.0121 8.52374 33.0098C7.84272 33.0074 7.18941 32.7398 6.70233 32.2638L0.775935 26.4846C0.291525 26.0025 0.0157616 25.3494 0.00798168 24.6659C0.000201708 23.9825 0.261027 23.3233 0.734335 22.8302L0.774335 22.7886L4.44793 19.2078C4.93387 18.7317 5.58842 18.4671 6.26873 18.4718H6.40473C6.63254 18.4866 6.85764 18.4156 7.03584 18.273C7.21405 18.1303 7.33249 17.9262 7.36793 17.7006C7.44313 17.1726 7.64473 16.6686 7.95353 16.2318C8.77138 15.1444 9.66821 14.1187 10.6367 13.163L10.6479 13.1502C12.0879 11.7518 15.2207 9.11663 20.0063 7.18863C21.8413 6.44558 23.8026 6.06418 25.7823 6.06543Z" fill="url(#paint2_linear_947_7551)"/>
<defs>
<linearGradient id="paint0_linear_947_7551" x1="6.28471" y1="0.018193" x2="54.253" y2="66.2473" gradientUnits="userSpaceOnUse">
<stop stop-color="#55D475"/>
<stop offset="1" stop-color="#22943F"/>
</linearGradient>
<linearGradient id="paint1_linear_947_7551" x1="35.019" y1="36.8173" x2="52.5604" y2="60.8716" gradientUnits="userSpaceOnUse">
<stop stop-color="#55D475"/>
<stop offset="1" stop-color="#22943F"/>
</linearGradient>
<linearGradient id="paint2_linear_947_7551" x1="-3.81592" y1="2.9257" x2="18.5347" y2="42.8196" gradientUnits="userSpaceOnUse">
<stop stop-color="#55D475"/>
<stop offset="1" stop-color="#22943F"/>
</linearGradient>
</defs>
</svg>
