<svg width="64" height="64" viewBox="0 0 64 64" fill="none" xmlns="http://www.w3.org/2000/svg">
<path d="M35.0004 0C21.7636 0 11.0004 10.7648 11.0004 24V27.528L5.21158 39.104C5.05878 39.4085 4.98663 39.7471 5.00204 40.0875C5.01744 40.4278 5.11989 40.7585 5.29958 41.048C5.66438 41.6352 6.30758 42 7.00038 42H11.0004V51.632C11.0004 52.808 11.5124 53.9152 12.4084 54.6752C13.3044 55.4368 14.4804 55.76 15.6484 55.576L23.0004 54.36V62C23.0004 62.2904 23.0636 62.5773 23.1857 62.8408C23.3078 63.1042 23.4858 63.338 23.7074 63.5257C23.9289 63.7134 24.1887 63.8507 24.4686 63.9279C24.7485 64.0051 25.0419 64.0204 25.3284 63.9728L49.3284 59.9728C49.7955 59.8951 50.2199 59.6542 50.5261 59.293C50.8323 58.9317 51.0004 58.4735 51.0004 58V45.6752C51.0004 42.8992 52.3716 40.6608 53.5156 39.2672C57.0638 34.9709 59.0034 29.5721 59.0004 24C59.0004 10.7632 48.2356 0 35.0004 0ZM42.6004 23.2L30.6004 39.2C30.3168 39.5806 29.9066 39.8475 29.4437 39.9525C28.9808 40.0575 28.4957 39.9938 28.0756 39.7728C27.6544 39.5516 27.3256 39.1876 27.1483 38.7461C26.9709 38.3046 26.9565 37.8144 27.1076 37.3632L30.2244 28H25.0004C24.6602 27.9988 24.326 27.9111 24.0292 27.745C23.7323 27.579 23.4826 27.34 23.3037 27.0508C23.1247 26.7615 23.0224 26.4315 23.0062 26.0917C22.9901 25.752 23.0608 25.4137 23.2116 25.1088L29.2116 13.1088C29.3772 12.776 29.6324 12.4959 29.9483 12.3001C30.2643 12.1042 30.6286 12.0003 31.0004 12H37.0004C37.3415 11.9983 37.6774 12.0843 37.9758 12.2497C38.2742 12.4151 38.5251 12.6544 38.7045 12.9446C38.8839 13.2348 38.9857 13.5662 39.0003 13.907C39.0148 14.2479 38.9416 14.5868 38.7876 14.8912L36.2356 20H41.0004C41.3713 20.0012 41.7346 20.1053 42.0499 20.3008C42.3651 20.4964 42.6198 20.7756 42.7857 21.1073C42.9516 21.4391 43.0221 21.8104 42.9894 22.1799C42.9567 22.5494 42.822 22.9025 42.6004 23.2Z" fill="url(#paint0_linear_947_7560)"/>
<defs>
<linearGradient id="paint0_linear_947_7560" x1="-0.928223" y1="-7.45767" x2="60.6032" y2="64.2293" gradientUnits="userSpaceOnUse">
<stop stop-color="#55D475"/>
<stop offset="1" stop-color="#22943F"/>
</linearGradient>
</defs>
</svg>
