<svg width="40" height="40" viewBox="0 0 40 40" fill="none" xmlns="http://www.w3.org/2000/svg">
<path d="M40 20C40 8.9543 31.0457 0 20 0C8.9543 0 0 8.9543 0 20C0 31.0457 8.9543 40 20 40C31.0457 40 40 31.0457 40 20Z" fill="white"/>
<path d="M22 13C22 11.9 21.1 11 20 11C18.9 11 18 11.9 18 13C18 14.1 18.9 15 20 15C21.1 15 22 14.1 22 13Z" fill="#1E1E1E"/>
<path d="M22 27C22 25.9 21.1 25 20 25C18.9 25 18 25.9 18 27C18 28.1 18.9 29 20 29C21.1 29 22 28.1 22 27Z" fill="#1E1E1E"/>
<path d="M22 20C22 18.9 21.1 18 20 18C18.9 18 18 18.9 18 20C18 21.1 18.9 22 20 22C21.1 22 22 21.1 22 20Z" fill="#1E1E1E"/>
</svg>
