<svg width="40" height="40" viewBox="0 0 40 40" fill="none" xmlns="http://www.w3.org/2000/svg">
<path d="M40 20C40 8.9543 31.0457 0 20 0C8.9543 0 0 8.9543 0 20C0 31.0457 8.9543 40 20 40C31.0457 40 40 31.0457 40 20Z" fill="white"/>
<path d="M19.5918 28.2319C19.6995 28.3419 19.8461 28.403 19.9997 28.403C20.1532 28.403 20.2999 28.3419 20.4076 28.2319L27.7364 20.8062C29.6392 18.8788 29.6392 15.7416 27.7364 13.8135C26.8121 12.877 25.583 12.3613 24.2744 12.3613C22.9659 12.3613 21.7376 12.877 20.8132 13.8127L19.9997 14.6377L19.1861 13.8135C18.2619 12.877 17.0327 12.3613 15.725 12.3613C14.4165 12.3613 13.1873 12.877 12.2631 13.8135C10.3602 15.7416 10.3602 18.8788 12.2631 20.8054L19.5918 28.2319Z" fill="#FF0000"/>
</svg>
