<svg width="39" height="26" viewBox="0 0 39 26" fill="none" xmlns="http://www.w3.org/2000/svg">
<path d="M0 25.4564V0H3.5394V16.9709H17.697V3.39419H31.8546C33.8012 3.39419 35.4677 4.05889 36.854 5.38828C38.2402 6.71767 38.9333 8.31576 38.9333 10.1826V25.4564H35.394V20.3651H3.5394V25.4564H0ZM10.6182 15.2739C9.14344 15.2739 7.8899 14.7789 6.85758 13.7889C5.82525 12.7989 5.30909 11.5968 5.30909 10.1826C5.30909 8.76832 5.82525 7.56621 6.85758 6.57624C7.8899 5.58627 9.14344 5.09128 10.6182 5.09128C12.0929 5.09128 13.3465 5.58627 14.3788 6.57624C15.4111 7.56621 15.9273 8.76832 15.9273 10.1826C15.9273 11.5968 15.4111 12.7989 14.3788 13.7889C13.3465 14.7789 12.0929 15.2739 10.6182 15.2739Z" fill="#32BA55"/>
<ellipse cx="10.4819" cy="9.7326" rx="5.98975" ry="6.73846" fill="white"/>
<circle cx="10.4832" cy="9.73224" r="5.24103" fill="#5D916A"/>
</svg>
