<svg width="39" height="39" viewBox="0 0 39 39" fill="none" xmlns="http://www.w3.org/2000/svg">
<path d="M36.632 29.9651V25.1876H37.358L38.0327 24.5256L30.0388 16.5917H29.0463V17.9667H26.7209L25.3354 16.5917H21.4968L13.5116 24.5169L14.1863 25.1865H15.2551V29.964H13.1688C10.0485 27.0015 9.21873 20.2823 9.51024 15.2838L9.56155 15.182H9.58666C10.9514 15.182 12.161 15.8386 12.9144 16.8506L12.922 16.8615C13.4897 17.6232 13.8315 18.5822 13.8315 19.6192C13.8315 20.3343 13.6699 21.0115 13.3795 21.6173L13.3915 21.5891C14.0008 21.4343 14.5672 21.1454 15.0488 20.7439L15.0422 20.7493C15.5439 20.3163 15.9459 19.7813 16.2211 19.1807C16.4963 18.58 16.6383 17.9277 16.6373 17.2678C16.6373 16.233 16.2945 15.2784 15.7158 14.5091L15.7246 14.521C15.2281 13.8338 14.526 13.3195 13.718 13.0513C12.9101 12.783 12.0375 12.7744 11.2243 13.0267L11.2527 13.0192C11.542 12.8404 11.875 12.6822 12.2255 12.5619L12.2604 12.551C12.7368 12.3766 13.2407 12.2882 13.7485 12.2899C14.9309 12.2899 16.0019 12.7591 16.7847 13.5187L16.7836 13.5176C16.9003 12.9099 16.8654 12.2831 16.6821 11.6918L16.6897 11.7189C16.5087 11.1918 16.2214 10.7069 15.8455 10.2936C15.4696 9.88029 15.0128 9.54727 14.503 9.31481C13.9932 9.08236 13.441 8.95533 12.8802 8.94148C12.3193 8.92763 11.7615 9.02725 11.2407 9.23425L11.268 9.2245C11.0044 9.31436 10.7482 9.42412 10.5016 9.55282L10.5332 9.53765C10.4585 9.19888 10.3484 8.86877 10.2046 8.55269L10.2177 8.58411C9.25694 6.44623 7.05376 5.43635 5.29273 6.31945C4.81743 6.56116 4.40889 6.91455 4.10271 7.34884L4.09616 7.35968C4.71605 7.41971 5.31322 7.62273 5.84 7.95253C6.36679 8.28233 6.8086 8.72978 7.13018 9.25917L7.14001 9.27651C6.73168 9.07302 6.29924 8.92122 5.85281 8.82466L5.81569 8.81816C3.1081 8.24062 0.531531 9.70018 0.0697124 12.0851C-0.0536829 12.7394 -0.0128115 13.4137 0.188715 14.0485L0.181073 14.0204C0.786294 13.3379 1.56988 12.8348 2.4452 12.5667C3.32052 12.2986 4.25349 12.2759 5.14098 12.5012L5.10604 12.4936C5.55257 12.5868 5.94779 12.7212 6.3179 12.8978L6.28624 12.8837C5.40042 12.766 4.49935 12.9135 3.69854 13.3073C2.89773 13.7012 2.23365 14.3234 1.79143 15.0942L1.77942 15.1159C1.31775 15.8888 1.07519 16.7713 1.07741 17.6698C1.07741 19.3689 1.92572 20.8707 3.22602 21.7809L3.24239 21.7917C3.8014 22.1655 4.44002 22.4059 5.10822 22.4939L5.13115 22.496C4.64972 21.7038 4.39635 20.7957 4.39857 19.8705C4.39857 18.9246 4.65732 18.0382 5.10932 17.2787L5.09621 17.3025C5.43176 16.7222 5.8921 16.2225 6.44445 15.8389C6.99679 15.4553 7.62756 15.1974 8.29182 15.0833L8.31912 15.079C6.77208 22.0713 6.34411 26.943 7.62038 29.9629H3.90182V32H39V29.9629H36.632V29.9651ZM27.9524 25.2981H35.776V29.9651H27.9524V25.2981ZM16.0947 24.3728L21.4989 19.0091L26.9032 24.3728V29.9651H20.9694V25.7565H17.9682V29.9651H16.0881V24.3728H16.0947Z" fill="#32BA55"/>
</svg>
