<svg width="18" height="19" viewBox="0 0 18 19" fill="none" xmlns="http://www.w3.org/2000/svg">
<path d="M15.7217 11.397C15.6655 11.592 15.5417 11.7495 15.3655 11.8508L14.158 12.5258V13.9058C14.158 14.3183 13.8205 14.6558 13.408 14.6558H12.0242L11.353 15.8633C11.2517 16.0395 11.0942 16.1633 10.8992 16.2195C10.708 16.272 10.5055 16.2495 10.3292 16.152L9.00172 15.4095L7.67422 16.152C7.55797 16.2158 7.43422 16.2458 7.30672 16.2458C7.23922 16.2458 7.17172 16.2383 7.10422 16.2195C6.90922 16.1633 6.75172 16.0395 6.65047 15.8633L5.97922 14.6558H4.59547C4.18297 14.6558 3.84547 14.3183 3.84547 13.9058V12.5258L2.63797 11.8508C2.46172 11.7495 2.33797 11.592 2.28172 11.397C2.22922 11.2058 2.25172 11.0033 2.34922 10.827L3.09172 9.49952L2.34922 8.17202C2.14672 7.80827 2.27797 7.35077 2.63797 7.14827L3.84547 6.47327V5.09327C3.84547 4.68077 4.18297 4.34327 4.59547 4.34327H5.97922L6.65047 3.13577C6.75172 2.95952 6.90922 2.83577 7.10422 2.77952C7.29547 2.72702 7.49797 2.74952 7.67422 2.84702L9.00172 3.58952L10.3292 2.84702C10.5055 2.74952 10.708 2.72702 10.8992 2.77952C11.0942 2.83577 11.2517 2.95952 11.353 3.13577L12.0242 4.34327H13.408C13.8205 4.34327 14.158 4.68077 14.158 5.09327V6.47327L15.3655 7.14827C15.7255 7.35077 15.8567 7.80827 15.6542 8.17202L14.9117 9.49952L15.6542 10.827C15.7517 11.0033 15.7742 11.2058 15.7217 11.397Z" fill="#32BA55"/>
<path d="M8.2507 11.7497C8.20145 11.7498 8.15268 11.7401 8.10718 11.7212C8.06168 11.7024 8.02035 11.6747 7.98558 11.6399L6.11058 9.76485C6.07476 9.73026 6.04619 9.68888 6.02654 9.64313C6.00689 9.59738 5.99654 9.54817 5.99611 9.49838C5.99568 9.44858 6.00516 9.3992 6.02402 9.35312C6.04287 9.30703 6.07072 9.26516 6.10593 9.22995C6.14114 9.19474 6.18301 9.1669 6.22909 9.14804C6.27518 9.12919 6.32456 9.1197 6.37435 9.12013C6.42414 9.12056 6.47335 9.13091 6.5191 9.15056C6.56486 9.17022 6.60623 9.19878 6.64083 9.2346L8.2507 10.8445L11.7356 7.3596C11.7702 7.32378 11.8115 7.29522 11.8573 7.27556C11.9031 7.25591 11.9523 7.24556 12.0021 7.24513C12.0518 7.2447 12.1012 7.25419 12.1473 7.27304C12.1934 7.2919 12.2353 7.31974 12.2705 7.35495C12.3057 7.39016 12.3335 7.43203 12.3524 7.47812C12.3712 7.5242 12.3807 7.57358 12.3803 7.62338C12.3799 7.67317 12.3695 7.72238 12.3499 7.76813C12.3302 7.81388 12.3016 7.85526 12.2658 7.88985L8.51583 11.6399C8.48105 11.6747 8.43973 11.7024 8.39423 11.7212C8.34873 11.7401 8.29995 11.7498 8.2507 11.7497Z" fill="white"/>
</svg>
