<svg width="17" height="16" viewBox="0 0 17 16" fill="none" xmlns="http://www.w3.org/2000/svg">
<path d="M2.36316 14.0399V2.62662C2.36316 2.44981 2.4334 2.28025 2.55843 2.15522C2.68344 2.03019 2.85302 1.95996 3.02983 1.95996H9.08983C9.26665 1.95996 9.43621 2.03019 9.56124 2.15522C9.68626 2.28025 9.7565 2.44981 9.7565 2.62662V5.11996" stroke="#262626" stroke-width="0.914286" stroke-linecap="round" stroke-linejoin="round"/>
<path d="M1.41003 14.0402H14.65M13.6968 14.0402H5.74337V8.24012L9.72337 5.12012L13.6968 8.24012V14.0402Z" stroke="#262626" stroke-width="0.914286" stroke-linecap="round" stroke-linejoin="round"/>
<path d="M6.75694 3.31934H5.37028C5.00208 3.31934 4.70361 3.6178 4.70361 3.986V4.53266C4.70361 4.90086 5.00208 5.19934 5.37028 5.19934H6.75694C7.12513 5.19934 7.42361 4.90086 7.42361 4.53266V3.986C7.42361 3.6178 7.12513 3.31934 6.75694 3.31934Z" stroke="#262626" stroke-width="0.571429" stroke-linecap="round" stroke-linejoin="round"/>
<path d="M10.4303 8.92676H9.01694M8.08362 14.0401V10.8601H11.3569V14.0401M9.72361 10.8601V14.0401" stroke="#262626" stroke-width="0.914286" stroke-linecap="round" stroke-linejoin="round"/>
</svg>
