<svg width="15" height="14" viewBox="0 0 15 14" fill="none" xmlns="http://www.w3.org/2000/svg">
<path d="M12.9334 9.87038V11.6204C12.9341 11.7828 12.9008 11.9436 12.8357 12.0925C12.7706 12.2414 12.6752 12.375 12.5555 12.4848C12.4358 12.5946 12.2944 12.6782 12.1405 12.7303C11.9866 12.7823 11.8236 12.8017 11.6618 12.787C9.86675 12.592 8.14252 11.9786 6.6276 10.9962C5.21817 10.1006 4.02321 8.90565 3.1276 7.49622C2.14175 5.97442 1.52824 4.2418 1.33677 2.43872C1.32219 2.2774 1.34136 2.11483 1.39306 1.96133C1.44476 1.80783 1.52785 1.66678 1.63705 1.54716C1.74624 1.42754 1.87915 1.33196 2.02731 1.26652C2.17547 1.20108 2.33563 1.1672 2.4976 1.16705H4.2476C4.53069 1.16426 4.80514 1.26451 5.01979 1.44911C5.23444 1.63371 5.37464 1.89006 5.41427 2.17038C5.48813 2.73042 5.62511 3.28031 5.8226 3.80955C5.90108 4.01834 5.91807 4.24525 5.87154 4.4634C5.82502 4.68154 5.71694 4.88178 5.5601 5.04038L4.81927 5.78122C5.64967 7.24162 6.85886 8.45081 8.31927 9.28122L9.0601 8.54038C9.2187 8.38355 9.41894 8.27546 9.63709 8.22894C9.85523 8.18241 10.0821 8.1994 10.2909 8.27788C10.8202 8.47537 11.3701 8.61235 11.9301 8.68622C12.2135 8.72619 12.4723 8.86892 12.6572 9.08725C12.8422 9.30559 12.9405 9.5843 12.9334 9.87038Z" stroke="#262626" stroke-width="1.16667" stroke-linecap="round" stroke-linejoin="round"/>
</svg>
