<svg width="21" height="20" viewBox="0 0 21 20" fill="none" xmlns="http://www.w3.org/2000/svg">
<g clip-path="url(#clip0_556_4470)">
<g clip-path="url(#clip1_556_4470)">
<path fill-rule="evenodd" clip-rule="evenodd" d="M5.30386 2.85615C5.30386 2.41782 5.65919 2.0625 6.09751 2.0625H15.6213C16.0596 2.0625 16.415 2.41782 16.415 2.85615C16.415 3.29447 16.0596 3.6498 15.6213 3.6498H12.1181C12.6988 4.33573 13.0481 5.17118 13.1801 6.03075H15.6213C16.0596 6.03075 16.415 6.38608 16.415 6.8244C16.415 7.26272 16.0596 7.61805 15.6213 7.61805H13.1801C13.0429 8.51169 12.6708 9.37926 12.048 10.0799C11.2286 11.0016 10.0166 11.5863 8.47846 11.5863H8.09876L13.3874 16.5639C13.7067 16.8643 13.7219 17.3666 13.4214 17.6858C13.1211 18.005 12.6188 18.0202 12.2996 17.7198L5.55357 11.3706C5.31663 11.1476 5.23981 10.8026 5.35976 10.5001C5.47971 10.1976 5.77213 9.99896 6.09751 9.99896H8.47846C9.58593 9.99896 10.3582 9.59162 10.8616 9.02529C11.2089 8.63464 11.4471 8.14629 11.5659 7.61805H6.09751C5.65919 7.61805 5.30386 7.26272 5.30386 6.8244C5.30386 6.38608 5.65919 6.03075 6.09751 6.03075H11.5659C11.4471 5.50251 11.2089 5.01416 10.8616 4.62351C10.3582 4.05719 9.58593 3.6498 8.47846 3.6498H6.09751C5.65919 3.6498 5.30386 3.29447 5.30386 2.85615Z" fill="white"/>
</g>
</g>
<defs>
<clipPath id="clip0_556_4470">
<rect width="20" height="20" fill="white" transform="translate(0.859985)"/>
</clipPath>
<clipPath id="clip1_556_4470">
<rect width="20" height="20" fill="white" transform="translate(0.859985)"/>
</clipPath>
</defs>
</svg>
