<svg width="17" height="16" viewBox="0 0 17 16" fill="none" xmlns="http://www.w3.org/2000/svg">
<path d="M0.592285 2.70977C0.592285 2.41876 0.842285 2.18066 1.14784 2.18066H15.5923C15.8979 2.18066 16.1478 2.41876 16.1478 2.70977C16.1478 3.00077 15.8979 3.23887 15.5923 3.23887H1.14784C0.842285 3.23887 0.592285 3.00077 0.592285 2.70977ZM0.592285 8.00077C0.592285 7.70977 0.842285 7.47168 1.14784 7.47168H15.5923C15.8979 7.47168 16.1478 7.70977 16.1478 8.00077C16.1478 8.29178 15.8979 8.52987 15.5923 8.52987H1.14784C0.842285 8.52987 0.592285 8.29178 0.592285 8.00077ZM16.1478 13.2918C16.1478 13.5829 15.8979 13.8209 15.5923 13.8209H1.14784C0.842285 13.8209 0.592285 13.5829 0.592285 13.2918C0.592285 13.0007 0.842285 12.7627 1.14784 12.7627H15.5923C15.8979 12.7627 16.1478 13.0007 16.1478 13.2918Z" fill="#262626"/>
</svg>
