<svg width="12" height="14" viewBox="0 0 12 14" fill="none" xmlns="http://www.w3.org/2000/svg">
<path d="M11.3197 4.3011L7.31966 0.790039C6.56373 0.129883 5.43628 0.129883 4.68034 0.790039L0.680343 4.3011C0.247806 4.68095 -0.000125667 5.22872 4.77846e-08 5.80432V11.6663C0.00122291 12.7705 0.89592 13.6651 2 13.6663H3.66666H8.33334C8.33317 13.6663 8.33345 13.6663 8.33334 13.6663H10C11.1041 13.6651 11.9987 12.7705 12 11.6663V5.80432C12.0001 5.22872 11.7522 4.68095 11.3197 4.3011ZM8 12.9997H4V8.99967C4.00094 8.26367 4.59733 7.66727 5.33334 7.66634H6.66666C7.40267 7.66727 7.99906 8.26367 8 8.99967V12.9997ZM11.3334 11.6663C11.3323 12.4023 10.736 12.9988 10 12.9997H8.66666V8.99967C8.66544 7.89559 7.77075 7.0009 6.66666 6.99967H5.33334C4.22925 7.0009 3.33455 7.89559 3.33334 8.99967V12.9997H2C1.264 12.9988 0.6676 12.4023 0.666663 11.6663V5.80432C0.666503 5.42058 0.831863 5.05542 1.12045 4.80241L5.12045 1.29134C5.36373 1.078 5.67643 0.960656 6 0.961262C6.32357 0.960656 6.63627 1.078 6.87955 1.29134L10.8795 4.80237C11.1681 5.05538 11.3335 5.42058 11.3334 5.80432V11.6663Z" fill="#262626"/>
</svg>
