<svg width="21" height="20" viewBox="0 0 21 20" fill="none" xmlns="http://www.w3.org/2000/svg">
<g clip-path="url(#clip0_556_4478)">
<g clip-path="url(#clip1_556_4478)">
<g clip-path="url(#clip2_556_4478)">
<path fill-rule="evenodd" clip-rule="evenodd" d="M5.01379 1.00977H16.8253C18.0021 1.00977 18.9595 1.96715 18.9596 3.14392V8.93109C18.7277 8.87527 18.486 8.84494 18.2372 8.84494H15.6703V7.86672C15.6703 6.24594 14.3517 4.92733 12.731 4.92733H9.10825C7.48746 4.92733 6.16886 6.24594 6.16886 7.86672V8.84494H3.60202C3.35868 8.84506 3.11621 8.87398 2.87968 8.93109V3.14392C2.87968 1.96715 3.83702 1.00977 5.01379 1.00977ZM3.60202 10.0851H18.2372C19.2568 10.0851 20.0862 10.9146 20.0862 11.9342V15.6306H18.4196V18.3335C18.4196 18.7937 18.0465 19.1668 17.5862 19.1668C17.126 19.1668 16.7529 18.7937 16.7529 18.3335V15.6306H5.08626V18.3335C5.08626 18.7937 4.71317 19.1668 4.25293 19.1668C3.79269 19.1668 3.41959 18.7937 3.41959 18.3335V15.6306H1.75293V11.9342C1.75293 10.9146 2.5824 10.0851 3.60202 10.0851ZM9.10821 6.16749H12.7309C13.6679 6.16749 14.4302 6.92983 14.4302 7.86672V8.84495H7.40898V7.86672C7.40898 6.92976 8.17124 6.16749 9.10821 6.16749Z" fill="white"/>
</g>
</g>
</g>
<defs>
<clipPath id="clip0_556_4478">
<rect width="20" height="20" fill="white" transform="translate(0.919922)"/>
</clipPath>
<clipPath id="clip1_556_4478">
<rect width="20" height="20" fill="white" transform="translate(0.919922)"/>
</clipPath>
<clipPath id="clip2_556_4478">
<rect width="20" height="20" fill="white" transform="translate(0.919922)"/>
</clipPath>
</defs>
</svg>
