<svg width="19" height="18" viewBox="0 0 19 18" fill="none" xmlns="http://www.w3.org/2000/svg">
<path d="M18.1779 9.00105C18.1779 4.41284 14.4584 0.693359 9.8702 0.693359C5.28198 0.693359 1.5625 4.41284 1.5625 9.00105C1.5625 13.5893 5.28198 17.3087 9.8702 17.3087C14.4584 17.3087 18.1779 13.5893 18.1779 9.00105Z" fill="#F3F4F6"/>
<path d="M9.87046 9.0015C9.31966 9.0015 8.79136 8.78266 8.40185 8.39317C8.01235 8.00368 7.79354 7.47541 7.79354 6.92458C7.79354 6.37374 8.01235 5.84547 8.40185 5.45597C8.79136 5.06647 9.31966 4.84766 9.87046 4.84766C10.4213 4.84766 10.9495 5.06647 11.339 5.45597C11.7285 5.84547 11.9474 6.37374 11.9474 6.92458C11.9474 7.47541 11.7285 8.00368 11.339 8.39317C10.9495 8.78266 10.4213 9.0015 9.87046 9.0015ZM10.612 9.78035C12.2102 9.78035 13.5051 11.0752 13.5051 12.6734C13.5051 12.9396 13.2893 13.1553 13.0231 13.1553H6.71775C6.45165 13.1553 6.23584 12.9396 6.23584 12.6734C6.23584 11.0752 7.53067 9.78035 9.12893 9.78035H10.612Z" fill="#737373"/>
</svg>
