<svg width="12" height="14" viewBox="0 0 12 14" fill="none" xmlns="http://www.w3.org/2000/svg">
<g clip-path="url(#clip0_0_5391)">
<mask id="mask0_0_5391" style="mask-type:luminance" maskUnits="userSpaceOnUse" x="0" y="1" width="11" height="12">
<path d="M10.9997 1.05664H0.452637V12.415H10.9997V1.05664Z" fill="white"/>
</mask>
<g mask="url(#mask0_0_5391)">
<path d="M4.04028 1.66501C4.00338 1.68366 3.9578 1.7233 3.94043 1.75361C3.9209 1.78391 3.74291 2.2735 3.54537 2.8447C3.34567 3.4159 3.15249 3.94512 3.11559 4.02206C2.95496 4.37177 2.68581 4.74246 2.42099 4.98727C2.1323 5.25537 1.97819 5.34863 0.93846 5.88719C0.684497 6.01774 0.510847 6.12265 0.489141 6.15763C0.437046 6.23456 0.441387 6.39077 0.497824 6.4677C0.526042 6.50733 0.795199 6.66354 1.28359 6.92232C1.70252 7.14381 2.0954 7.36762 2.18657 7.43756C2.55123 7.715 2.87899 8.12067 3.08086 8.54032C3.13947 8.66621 3.35653 9.24207 3.5584 9.82028C3.76027 10.4008 3.9426 10.8927 3.95997 10.9137C4.04462 11.0139 4.21827 11.0256 4.31378 10.9393C4.34417 10.9137 4.49828 10.508 4.75007 9.79694C4.96279 9.18844 5.17985 8.61259 5.22761 8.51467C5.37087 8.23257 5.54452 7.98778 5.78111 7.74531C6.1219 7.39094 6.22175 7.32799 7.4373 6.70084C7.85189 6.48635 7.91267 6.40242 7.81933 6.1856C7.78026 6.09934 7.83887 6.13431 6.6906 5.53514C6.51044 5.44188 6.27167 5.29967 6.16097 5.22041C5.78545 4.94995 5.42947 4.52098 5.21892 4.08268C5.16249 3.96611 4.95194 3.40424 4.75007 2.83537C4.5482 2.26418 4.37238 1.77925 4.35719 1.75361C4.29858 1.65336 4.15098 1.61372 4.04028 1.66501Z" fill="#2F80ED"/>
<path d="M8.75401 7.68912C8.69757 7.72875 8.66501 7.80336 8.48485 8.32559C8.25477 8.99004 8.20267 9.10428 8.04639 9.31643C7.88793 9.5286 7.70777 9.66381 7.24109 9.91097C7.01318 10.0322 6.80914 10.1558 6.78743 10.186C6.73317 10.2584 6.73534 10.3772 6.7896 10.4518C6.81782 10.4891 7.00666 10.6034 7.27365 10.7433C7.72948 10.9857 7.85103 11.0743 8.03771 11.3097C8.17663 11.4869 8.26128 11.6735 8.48268 12.31C8.59121 12.6247 8.70192 12.9045 8.72579 12.9324C8.78874 13.0047 8.87773 13.0211 8.9689 12.9744C9.05355 12.9301 9.05355 12.9278 9.35527 12.0652C9.53543 11.5476 9.58753 11.4496 9.81763 11.2002L10.013 10.9881L10.484 10.7409C10.764 10.5941 10.9637 10.4751 10.9767 10.4471C11.0093 10.3842 11.0049 10.2326 10.9702 10.1814C10.9528 10.158 10.7358 10.0322 10.4883 9.89692C10.013 9.64516 9.87408 9.54025 9.70691 9.32343C9.56583 9.13692 9.50071 8.99004 9.27279 8.34191C9.15992 8.01785 9.04921 7.73342 9.02751 7.7101C8.9689 7.64482 8.83215 7.63549 8.75401 7.68912Z" fill="#2F80ED"/>
</g>
</g>
<defs>
<clipPath id="clip0_0_5391">
<rect width="10.9443" height="12.7683" fill="white" transform="translate(0.452637 0.539062)"/>
</clipPath>
</defs>
</svg>
