<svg width="15" height="16" viewBox="0 0 15 16" fill="none" xmlns="http://www.w3.org/2000/svg">
<g clip-path="url(#clip0_0_5037)">
<g clip-path="url(#clip1_0_5037)">
<g clip-path="url(#clip2_0_5037)">
<mask id="mask0_0_5037" style="mask-type:luminance" maskUnits="userSpaceOnUse" x="0" y="0" width="15" height="16">
<path d="M14.8148 0.662109H0.222412V15.2545H14.8148V0.662109Z" fill="white"/>
</mask>
<g mask="url(#mask0_0_5037)">
<path d="M14.3581 8.57556C14.0122 8.18339 13.5136 7.95842 12.9907 7.95842H1.43844V3.38736C1.43844 2.87602 1.66949 2.37016 2.103 2.09837C2.76513 1.68309 3.5738 1.88739 3.9921 2.44554L4.14958 2.65531L3.85591 4.34013C3.82064 4.5432 3.8626 4.75236 3.97386 4.92564C4.23228 5.32815 4.77827 5.42665 5.16072 5.13966L7.35322 3.49559C7.69797 3.23718 7.78491 2.75563 7.55204 2.39265L7.54413 2.37988C7.40003 2.15492 7.155 2.01386 6.88809 2.0017L5.12119 1.92326L5.0154 1.7822C4.61533 1.24897 4.04683 0.844642 3.3926 0.715134C1.70597 0.381334 0.222412 1.66911 0.222412 3.29677C0.222412 3.29677 0.224844 6.76853 0.22606 8.11408C0.22606 8.46429 0.248557 8.81025 0.291726 9.15803C0.353135 9.64992 0.435826 10.3132 0.435826 10.3132C0.588437 11.5323 1.17943 12.6037 2.03795 13.3758L1.76008 14.5007C1.67921 14.8266 1.87804 15.1561 2.20394 15.237C2.25319 15.2491 2.30182 15.2546 2.35046 15.2546C2.62347 15.2546 2.87154 15.0692 2.94024 14.7925L3.10866 14.1109C3.78295 14.4538 4.54358 14.6466 5.34372 14.6466H9.85338C10.5969 14.6466 11.3065 14.4806 11.9449 14.1815L12.0963 14.7925C12.1644 15.0692 12.4132 15.2546 12.6861 15.2546C12.7347 15.2546 12.7834 15.2486 12.8327 15.237C13.1585 15.1561 13.3574 14.8266 13.2765 14.5007L13.0272 13.4914C13.9575 12.7119 14.6026 11.5943 14.7625 10.3139L14.8002 10.0093C14.8647 9.49001 14.7047 8.96773 14.3581 8.57556ZM13.5939 9.85786L13.5562 10.1625C13.3234 12.0255 11.7315 13.4305 9.85402 13.4305H5.34433C3.46678 13.4305 1.87561 12.0255 1.64273 10.1625L1.51931 9.17445H12.9907C13.1677 9.17445 13.33 9.24741 13.4467 9.37997C13.5635 9.51312 13.6157 9.68215 13.5939 9.85786Z" fill="#1E1E1E"/>
</g>
</g>
</g>
</g>
<defs>
<clipPath id="clip0_0_5037">
<rect width="14.5924" height="14.5924" fill="white" transform="translate(0.222412 0.662109)"/>
</clipPath>
<clipPath id="clip1_0_5037">
<rect width="14.5924" height="14.5924" fill="white" transform="translate(0.222412 0.662109)"/>
</clipPath>
<clipPath id="clip2_0_5037">
<rect width="14.5924" height="14.5924" fill="white" transform="translate(0.222412 0.662109)"/>
</clipPath>
</defs>
</svg>
