<svg width="7" height="19" viewBox="0 0 7 19" fill="none" xmlns="http://www.w3.org/2000/svg">
<g clip-path="url(#clip0_0_4986)">
<path d="M2.68173 0.941201C2.14675 1.4741 1.90897 2.02418 1.88916 2.72897C1.88916 3.10716 1.92878 3.45096 1.98823 3.50254C2.04767 3.55411 2.30526 3.17593 2.58266 2.6774C3.43468 1.13029 3.49413 0.150453 2.68173 0.941201Z" fill="#020202"/>
<path d="M0.541016 3.60569C0.541016 4.4652 1.11563 5.29033 1.71007 5.29033C2.22524 5.29033 3.01782 4.68867 3.31504 4.08702C3.45374 3.79478 3.533 3.51974 3.49337 3.48535C3.27541 3.31346 2.38376 3.88074 2.10635 4.39644L1.76951 4.94653L1.57137 4.20734C1.45248 3.79478 1.15527 3.31346 0.937305 3.14155C0.541016 2.83213 0.541016 2.83213 0.541016 3.60569Z" fill="#020202"/>
<path d="M0.184104 6.9239C0.322805 7.86935 0.956865 8.55696 1.72963 8.55696C2.46277 8.55696 3.09683 7.90374 3.39404 6.80356C3.49312 6.40819 3.45349 6.37381 3.11665 6.44257C2.56184 6.5629 1.92777 7.30207 1.92777 7.8006C1.92777 8.02406 1.84852 8.21316 1.72963 8.21316C1.63056 8.21316 1.53149 8.09283 1.53149 7.93812C1.53149 7.47398 0.897424 6.49414 0.481321 6.30505C0.104846 6.11596 0.0850313 6.15034 0.184104 6.9239Z" fill="#020202"/>
<path d="M2.91933 9.58693C2.52303 9.93073 2.42397 10.2917 2.50322 11.22L2.54286 11.7357L2.00786 11.048C1.45306 10.3433 0.937882 9.94793 0.30382 9.72445C-0.171728 9.55255 -0.151913 9.8104 0.363263 10.7387C0.799181 11.5294 1.67102 12.0451 2.36452 11.9592C2.99858 11.8732 3.55339 11.0825 3.67227 10.1198C3.77135 9.15717 3.57321 9.01966 2.91933 9.58693Z" fill="#020202"/>
<path d="M4.18822 12.5454C3.59378 13.0954 3.45508 13.594 3.69285 14.3159C3.79192 14.6425 3.83155 14.9176 3.79192 14.9176C3.73248 14.9176 3.41545 14.6425 3.0786 14.2988C2.44454 13.6799 1.57271 13.1986 1.05752 13.1986C0.205505 13.1986 1.94918 15.1583 2.95971 15.3474C4.20803 15.588 5.1393 14.2988 4.78264 12.8376L4.60431 12.1328L4.18822 12.5454Z" fill="#020202"/>
<path d="M5.61366 15.2922C5.17775 15.8251 5.21738 16.7878 5.69292 17.4582C6.10902 18.0598 6.02977 18.0426 4.99942 17.4066C3.94925 16.7362 2.32446 16.4096 2.32446 16.8566C2.32446 17.1144 3.41426 18.0426 4.04832 18.3349C4.64275 18.5928 5.73255 18.5755 6.18828 18.2833C6.70346 17.9739 6.82235 16.4096 6.40624 15.55C6.22791 15.2063 6.04958 14.9141 5.99014 14.9141C5.95051 14.9141 5.77218 15.0859 5.61366 15.2922Z" fill="#020202"/>
</g>
<defs>
<clipPath id="clip0_0_4986">
<rect width="7.09351" height="18.2405" fill="white" transform="translate(-0.0585938 0.46875)"/>
</clipPath>
</defs>
</svg>
