<svg width="9" height="19" viewBox="0 0 9 19" fill="none" xmlns="http://www.w3.org/2000/svg">
<g clip-path="url(#clip0_0_4995)">
<g clip-path="url(#clip1_0_4995)">
<path d="M5.04903 0.944059C5.58387 1.47682 5.82158 2.02676 5.84139 2.73138C5.84139 3.10947 5.80177 3.45319 5.74235 3.50475C5.68291 3.55631 5.4254 3.17821 5.14807 2.67983C4.29627 1.1331 4.23685 0.153512 5.04903 0.944059Z" fill="#020202"/>
<path d="M7.18734 3.60748C7.18734 4.46677 6.61288 5.29169 6.0186 5.29169C5.50356 5.29169 4.7112 4.69018 4.41406 4.08868C4.2754 3.79652 4.19617 3.52155 4.23578 3.48718C4.45368 3.31532 5.3451 3.88245 5.62242 4.39803L5.95918 4.94797L6.15727 4.20898C6.27612 3.79652 6.57326 3.31532 6.79116 3.14346C7.18734 2.83411 7.18734 2.83411 7.18734 3.60748Z" fill="#020202"/>
<path d="M7.5424 6.92371C7.40374 7.86893 6.76984 8.55637 5.99729 8.55637C5.26435 8.55637 4.63046 7.90331 4.33332 6.80342C4.23428 6.40814 4.27389 6.37377 4.61065 6.44252C5.1653 6.56281 5.7992 7.30181 5.7992 7.8002C5.7992 8.02361 5.87843 8.21265 5.99729 8.21265C6.09634 8.21265 6.19538 8.09235 6.19538 7.93768C6.19538 7.47366 6.82928 6.49407 7.24526 6.30503C7.62164 6.11598 7.64144 6.15036 7.5424 6.92371Z" fill="#020202"/>
<path d="M4.80831 9.58587C5.20449 9.92959 5.30354 10.2905 5.2243 11.2185L5.18468 11.7341L5.71953 11.0466C6.27418 10.342 6.78922 9.94677 7.42312 9.72336C7.89854 9.55149 7.87873 9.80928 7.36369 10.7374C6.92789 11.5279 6.05628 12.0435 5.36296 11.9575C4.72908 11.8716 4.17441 11.081 4.05557 10.1186C3.95652 9.15622 4.15461 9.01874 4.80831 9.58587Z" fill="#020202"/>
<path d="M3.541 12.5443C4.13527 13.0942 4.27394 13.5926 4.03623 14.3144C3.93718 14.6409 3.89757 14.9159 3.93718 14.9159C3.99661 14.9159 4.31356 14.6409 4.65031 14.2973C5.28421 13.6785 6.15581 13.1974 6.67085 13.1974C7.52264 13.1974 5.77944 15.1565 4.76917 15.3456C3.5212 15.5862 2.59016 14.2973 2.94673 12.8364L3.12501 12.1318L3.541 12.5443Z" fill="#020202"/>
<path d="M2.11394 15.2912C2.54974 15.824 2.51012 16.7864 2.03471 17.4566C1.61871 18.0581 1.69795 18.0409 2.72802 17.405C3.77791 16.7348 5.40225 16.4083 5.40225 16.8551C5.40225 17.1129 4.31275 18.0409 3.67886 18.3331C3.08459 18.5909 1.99508 18.5736 1.53948 18.2815C1.02444 17.9722 0.905581 16.4083 1.32157 15.549C1.49986 15.2052 1.67814 14.9131 1.73757 14.9131C1.77718 14.9131 1.95546 15.085 2.11394 15.2912Z" fill="#020202"/>
</g>
</g>
<defs>
<clipPath id="clip0_0_4995">
<rect width="7.29619" height="18.2405" fill="white" transform="translate(0.839355 0.46875)"/>
</clipPath>
<clipPath id="clip1_0_4995">
<rect width="8.10687" height="18.2405" fill="white" transform="translate(0.434326 0.46875)"/>
</clipPath>
</defs>
</svg>
