<svg width="17" height="17" viewBox="0 0 17 17" fill="none" xmlns="http://www.w3.org/2000/svg">
<g clip-path="url(#clip0_0_5096)">
<g clip-path="url(#clip1_0_5096)">
<mask id="mask0_0_5096" style="mask-type:luminance" maskUnits="userSpaceOnUse" x="1" y="0" width="16" height="17">
<path d="M16.7295 0.963867H1.57593V16.1175H16.7295V0.963867Z" fill="white"/>
</mask>
<g mask="url(#mask0_0_5096)">
<path d="M8.20576 6.01499C8.20576 5.66646 8.63006 5.38359 9.15286 5.38359C9.67566 5.38359 10.1 5.66646 10.1 6.01499C10.1 6.36353 9.67566 6.64639 9.15286 6.64639C8.63006 6.64639 8.20576 6.36353 8.20576 6.01499ZM15.9966 10.5238C16.8471 11.3055 16.9444 12.6775 16.217 13.6467L15.727 14.2996C14.8626 15.4519 13.4868 16.1395 12.0466 16.1395H6.25915C4.81892 16.1395 3.4431 15.4519 2.57871 14.3002L2.08938 13.6474C1.362 12.6782 1.45861 11.3055 2.30974 10.5232C2.55409 10.2984 2.84264 10.133 3.15139 10.0313L2.01803 8.3878C1.66634 7.92056 1.51228 7.31884 1.59878 6.71458C1.68528 6.11033 2.00161 5.57554 2.48969 5.20933C3.1817 4.69031 4.07008 4.63412 4.80693 4.96939C4.87701 4.60886 4.99887 4.26538 5.16367 3.944C4.56573 3.22925 4.59415 2.16787 5.26596 1.49669C5.97628 0.786359 7.12796 0.786359 7.83828 1.49669C7.92415 1.58256 7.9854 1.66149 8.02707 1.73536C8.38697 1.64696 8.76328 1.59518 9.15286 1.59518C9.53991 1.59518 9.91369 1.64633 10.2717 1.73347C10.3039 1.68548 10.3412 1.63559 10.3885 1.58192C11.0515 0.8274 12.2013 0.753527 12.9558 1.4165C13.6996 2.07063 13.7785 3.19516 13.1452 3.94968C13.3094 4.27106 13.43 4.61391 13.4994 4.97444C14.2401 4.63538 15.1253 4.69221 15.8148 5.20806C16.3035 5.57428 16.6198 6.10907 16.7063 6.71332C16.7928 7.3182 16.6388 7.91993 16.2719 8.40863L15.1524 10.0326C15.4618 10.1336 15.7516 10.2984 15.9966 10.5238ZM9.15286 2.85799C7.41209 2.85799 5.99585 4.13279 5.99585 5.69929C5.99585 7.2658 7.41209 8.5406 9.15286 8.5406C10.8936 8.5406 12.3099 7.2658 12.3099 5.69929C12.3099 4.13279 10.8936 2.85799 9.15286 2.85799ZM6.5597 14.8767C6.37217 13.7547 5.75529 12.92 5.74771 12.9105L4.69264 11.6067C4.50575 11.3573 4.19447 11.1792 3.85793 11.1792C3.60158 11.1792 3.35786 11.2746 3.16402 11.4532C2.78455 11.8018 2.75614 12.4332 3.09899 12.8903L3.58832 13.5426C4.2153 14.3779 5.21355 14.8767 6.25852 14.8767H6.5597ZM11.5743 11.9615L12.6565 10.7827C12.8775 10.4847 13.2033 10.253 13.572 10.1014L15.2478 7.67179C15.4265 7.43249 15.4953 7.16351 15.4568 6.89327C15.4176 6.6224 15.2762 6.38373 15.0584 6.2202C14.6063 5.88429 13.9654 5.97458 13.627 6.42477C13.627 6.42477 13.4382 6.69564 13.4344 6.70069C12.9514 8.48061 11.2175 9.80403 9.15286 9.80403C7.08818 9.80403 5.35309 8.47935 4.8707 6.69817C4.8688 6.69564 4.66549 6.40646 4.66549 6.40646C4.34095 5.97269 3.69819 5.88177 3.24737 6.21957C2.79655 6.558 2.70499 7.20013 3.04279 7.65095L4.73495 10.1046C5.10747 10.2605 5.44212 10.5024 5.68836 10.8313L6.74343 12.1352C6.79584 12.2046 7.63813 13.3437 7.83512 14.8773H10.4371C10.5767 12.9819 11.3476 12.1629 11.5743 11.9615ZM15.1417 11.4532C14.9239 11.2525 14.6448 11.1622 14.3506 11.183C14.0595 11.2102 13.8019 11.3541 13.6263 11.5884C13.6263 11.5884 12.4292 12.8916 12.402 12.9137C12.4027 12.9137 11.835 13.4295 11.7043 14.8767H12.0466C13.0915 14.8767 14.0898 14.3779 14.7168 13.5419L15.2067 12.8891C15.549 12.4319 15.5205 11.8011 15.1417 11.4532Z" fill="black"/>
</g>
</g>
</g>
<defs>
<clipPath id="clip0_0_5096">
<rect width="16.4164" height="16.4164" fill="white" transform="translate(0.435547 0.383789)"/>
</clipPath>
<clipPath id="clip1_0_5096">
<rect width="16.4164" height="16.4164" fill="white" transform="translate(0.435547 0.383789)"/>
</clipPath>
</defs>
</svg>
