<svg width="19" height="20" viewBox="0 0 19 20" fill="none" xmlns="http://www.w3.org/2000/svg">
<path fill-rule="evenodd" clip-rule="evenodd" d="M14.825 16.5268C15.3038 16.1563 15.6424 15.6318 15.7781 15.0516L16.9227 10.1403C17.0088 9.77223 17.0111 9.3895 16.9292 9.02045C16.8473 8.6514 16.6833 8.30553 16.4495 8.00847C16.2053 7.69649 15.8938 7.44356 15.5384 7.2685C15.1829 7.09343 14.7925 7.00072 14.3964 6.99726L12.1836 6.96306C12.2841 6.51418 12.3474 6.05775 12.3729 5.59845C12.3843 5.35904 12.3808 5.13104 12.3648 4.91443C12.3101 4.19849 12.1061 3.59998 11.7561 3.13827C11.5259 2.82852 11.2222 2.58091 10.8726 2.41777C10.5989 2.28739 10.3001 2.21815 9.99694 2.21484C8.784 2.21484 7.79787 3.12687 7.79787 4.24524C7.79787 6.06586 6.62706 7.54562 5.1872 7.54562H3.13857C2.43061 7.54562 1.85376 8.12247 1.85376 8.83043V15.8108C1.85376 16.5199 2.43061 17.0968 3.13857 17.0968H13.1514C13.7568 17.0968 14.3508 16.8939 14.8238 16.5268H14.825ZM15.3711 8.85095C15.5934 9.13596 15.6698 9.48937 15.5911 9.82914L14.4453 14.7415C14.3777 15.0212 14.2163 15.2694 13.9882 15.4448C13.7485 15.6288 13.4548 15.7286 13.1526 15.7287H6.08099V8.80307C8.02132 8.30488 9.1659 6.21863 9.1659 4.24524C9.1659 3.98075 9.43605 3.58288 9.99694 3.58288C10.1007 3.58642 10.2026 3.61207 10.2956 3.65812H10.298C10.443 3.72705 10.5685 3.83132 10.6628 3.96137L10.6639 3.96251L10.6651 3.96479C10.8212 4.16999 10.9614 4.5006 11.0002 5.01703C11.0344 5.45025 10.9922 6.00088 10.8463 6.6735L10.4929 8.30602L14.3758 8.3653C14.7805 8.371 15.1374 8.55226 15.3711 8.85095ZM4.71181 15.7287V8.91365H3.22293V15.7287H4.71181Z" fill="#1E1E1E"/>
</svg>
