<svg width="15" height="16" viewBox="0 0 15 16" fill="none" xmlns="http://www.w3.org/2000/svg">
<g clip-path="url(#clip0_0_5047)">
<g clip-path="url(#clip1_0_5047)">
<g clip-path="url(#clip2_0_5047)">
<mask id="mask0_0_5047" style="mask-type:luminance" maskUnits="userSpaceOnUse" x="0" y="0" width="15" height="16">
<path d="M14.7845 0.662109H0.192139V15.2545H14.7845V0.662109Z" fill="white"/>
</mask>
<g mask="url(#mask0_0_5047)">
<path d="M14.1765 12.2145V10.9984C14.1743 9.33081 13.5497 7.72409 12.4252 6.49278C11.3006 5.26145 9.75689 4.49421 8.09634 4.34124V3.53379C8.32817 3.39995 8.50935 3.19335 8.61179 2.94604C8.71423 2.69872 8.7322 2.42451 8.66292 2.16595C8.59364 1.90738 8.44097 1.6789 8.22859 1.51594C8.01622 1.35298 7.75601 1.26465 7.48832 1.26465C7.22064 1.26465 6.96043 1.35298 6.74805 1.51594C6.53568 1.6789 6.38302 1.90738 6.31373 2.16595C6.24444 2.42451 6.26242 2.69872 6.36486 2.94604C6.4673 3.19335 6.64848 3.39995 6.88031 3.53379V4.34124C5.21975 4.49421 3.67608 5.26145 2.55149 6.49278C1.42689 7.72409 0.802362 9.33081 0.800154 10.9984V12.2145C0.638899 12.2145 0.484247 12.2785 0.370222 12.3925C0.256197 12.5065 0.192139 12.6612 0.192139 12.8224C0.192139 12.9837 0.256197 13.1383 0.370222 13.2523C0.484247 13.3664 0.638899 13.4305 0.800154 13.4305H14.1765C14.3377 13.4305 14.4924 13.3664 14.6064 13.2523C14.7205 13.1383 14.7845 12.9837 14.7845 12.8224C14.7845 12.6612 14.7205 12.5065 14.6064 12.3925C14.4924 12.2785 14.3377 12.2145 14.1765 12.2145ZM2.01618 10.9984C2.30377 3.74234 12.6753 3.74781 12.9605 10.9984V12.2145H2.01618V10.9984Z" fill="#1E1E1E"/>
</g>
</g>
</g>
</g>
<defs>
<clipPath id="clip0_0_5047">
<rect width="14.5924" height="14.5924" fill="white" transform="translate(0.192139 0.662109)"/>
</clipPath>
<clipPath id="clip1_0_5047">
<rect width="14.5924" height="14.5924" fill="white" transform="translate(0.192139 0.662109)"/>
</clipPath>
<clipPath id="clip2_0_5047">
<rect width="14.5924" height="14.5924" fill="white" transform="translate(0.192139 0.662109)"/>
</clipPath>
</defs>
</svg>
