<svg width="20" height="20" viewBox="0 0 20 20" fill="none" xmlns="http://www.w3.org/2000/svg">
<g clip-path="url(#clip0_0_5057)">
<g clip-path="url(#clip1_0_5057)">
<g clip-path="url(#clip2_0_5057)">
<path fill-rule="evenodd" clip-rule="evenodd" d="M5.58703 0.837891H11.6854L16.854 6.22526V16.7037C16.854 18.0164 15.792 19.0784 14.4839 19.0784H5.58703C4.27437 19.0784 3.2124 18.0164 3.2124 16.7037V3.21252C3.21238 1.89986 4.27435 0.837891 5.58703 0.837891Z" fill="#F5959E"/>
<path d="M6.66762 3.59552C6.64535 3.6058 6.60937 3.63835 6.59053 3.66405C6.55626 3.71202 6.55455 3.73087 6.5494 4.49157L6.54427 5.2694H6.33011C6.09367 5.2694 6.02685 5.28653 5.96688 5.36363C5.93948 5.39961 5.9292 5.43387 5.9292 5.50241V5.59321L6.56482 6.3779C6.91262 6.80964 7.2193 7.17628 7.24499 7.1917C7.29811 7.22768 7.4266 7.23111 7.48314 7.20027C7.51399 7.18314 8.66702 5.77824 8.77496 5.62747C8.82122 5.56066 8.8195 5.42531 8.76982 5.36363C8.70986 5.28653 8.64303 5.2694 8.4066 5.2694H8.19244L8.1873 4.49328C8.18216 3.65034 8.18388 3.66919 8.0828 3.60752C8.03139 3.57496 7.99199 3.57324 7.36835 3.57324C6.87835 3.57324 6.69846 3.57839 6.66762 3.59552Z" fill="white"/>
<path opacity="0.302" fill-rule="evenodd" clip-rule="evenodd" d="M11.6809 0.837891V6.18423H16.854L11.6809 0.837891Z" fill="white"/>
<path d="M5.85132 14.4469V11.1152H7.26881C7.61977 11.1152 7.89781 11.2109 8.10746 11.4069C8.31712 11.5983 8.42196 11.8582 8.42196 12.1818C8.42196 12.5053 8.31712 12.7652 8.10746 12.9566C7.89781 13.1526 7.61977 13.2483 7.26881 13.2483H6.70364V14.4469H5.85132ZM6.70364 12.5236H7.1731C7.30071 12.5236 7.40099 12.4962 7.46937 12.4325C7.53772 12.3732 7.5742 12.2911 7.5742 12.1818C7.5742 12.0724 7.53775 11.9903 7.46937 11.931C7.40101 11.8673 7.30073 11.8399 7.1731 11.8399H6.70364V12.5236ZM8.77289 14.4469V11.1152H9.95337C10.1858 11.1152 10.4046 11.1471 10.6097 11.2155C10.8148 11.2839 11.0017 11.3795 11.1657 11.5118C11.3298 11.6394 11.462 11.8126 11.5577 12.0314C11.6489 12.2502 11.699 12.5008 11.699 12.7834C11.699 13.0614 11.6489 13.3121 11.5577 13.5308C11.462 13.7496 11.3298 13.9228 11.1657 14.0504C11.0017 14.1826 10.8148 14.2783 10.6097 14.3467C10.4046 14.415 10.1858 14.4469 9.95337 14.4469H8.77289ZM9.60697 13.7223H9.85309C9.98527 13.7223 10.1083 13.7087 10.2223 13.6767C10.3317 13.6448 10.4365 13.5947 10.5368 13.5264C10.6325 13.4579 10.71 13.3622 10.7647 13.2346C10.8194 13.107 10.8467 12.9566 10.8467 12.7834C10.8467 12.6056 10.8194 12.4552 10.7647 12.3276C10.71 12.2 10.6325 12.1042 10.5368 12.0359C10.4365 11.9675 10.3317 11.9174 10.2223 11.8855C10.1083 11.8536 9.98527 11.8399 9.85309 11.8399H9.60697V13.7223ZM12.1275 14.4469V11.1152H14.4976V11.8399H12.9798V12.3732H14.1921V13.0933H12.9798V14.4469H12.1275Z" fill="white"/>
</g>
</g>
</g>
<defs>
<clipPath id="clip0_0_5057">
<rect width="18.2405" height="18.2405" fill="white" transform="translate(0.913086 0.837891)"/>
</clipPath>
<clipPath id="clip1_0_5057">
<rect width="18.2405" height="18.2405" fill="white" transform="translate(0.913086 0.837891)"/>
</clipPath>
<clipPath id="clip2_0_5057">
<rect width="14.5924" height="18.2405" fill="white" transform="translate(2.73706 0.837891)"/>
</clipPath>
</defs>
</svg>
