<svg width="52" height="52" viewBox="0 0 52 52" fill="none" xmlns="http://www.w3.org/2000/svg">
<g clip-path="url(#clip0_0_5595)">
<g clip-path="url(#clip1_0_5595)">
<g clip-path="url(#clip2_0_5595)">
<mask id="mask0_0_5595" style="mask-type:luminance" maskUnits="userSpaceOnUse" x="0" y="0" width="52" height="52">
<path d="M51.1836 0.34375H0.110352V51.417H51.1836V0.34375Z" fill="white"/>
</mask>
<g mask="url(#mask0_0_5595)">
<path d="M23.1529 0.403664C16.9981 1.14183 12.0604 3.43614 7.85085 7.51602C4.67872 10.5983 2.42431 14.2892 1.16744 18.4389C0.758447 19.7557 0.359437 21.7607 0.209807 23.1074C0.0801293 24.3543 0.0801293 27.4066 0.209807 28.6536C0.838249 34.509 3.50164 39.9955 7.7511 44.1452C9.17756 45.5317 10.1351 46.2998 11.7312 47.3472C14.624 49.2525 18.0955 50.5791 21.8062 51.1876C23.3823 51.447 27.9111 51.447 29.4872 51.1876C36.8489 49.9707 42.9438 46.0704 47.0037 39.9555C48.8292 37.2123 50.086 34.1599 50.7245 30.9179C51.0836 29.1124 51.1834 27.9653 51.1834 25.8805C51.1834 23.7957 51.0836 22.6484 50.7245 20.843C49.7169 15.7555 47.2331 11.2068 43.4426 7.51602C39.632 3.82517 35.1332 1.55082 29.7964 0.633093C28.8288 0.463515 28.0707 0.413639 26.0458 0.393686C24.6492 0.373737 23.3424 0.383712 23.1529 0.403664ZM28.6991 4.89253C33.2379 5.56087 37.3577 7.6457 40.6395 10.9475C43.9313 14.2493 45.9363 18.2394 46.6546 22.9377C46.884 24.454 46.884 27.3369 46.6546 28.873C45.9464 33.5115 43.9014 37.5615 40.6096 40.8433C32.2902 49.1727 19.0032 49.1727 10.6838 40.8433C7.39199 37.5515 5.34706 33.5015 4.63882 28.8631C4.39942 27.3268 4.39942 24.5438 4.63882 22.9478C5.31714 18.3192 7.37204 14.2294 10.6838 10.9175C14.3647 7.23671 18.8835 5.16186 24.2502 4.69303C25.0981 4.62319 27.6218 4.73292 28.6991 4.89253Z" fill="white"/>
<path d="M22.0458 17.054C21.9061 17.1338 21.6966 17.3233 21.5969 17.4729C21.4174 17.7423 21.4073 18.0914 21.3774 25.5329C21.3575 29.8123 21.3774 33.5031 21.4073 33.7425C21.537 34.6005 22.3051 35.1191 23.0832 34.8698C23.5521 34.7102 34.2356 26.9494 34.445 26.6102C34.6645 26.2711 34.6744 25.6726 34.475 25.2835C34.3752 25.094 32.5497 23.7074 29.0285 21.1438C26.1157 19.029 23.5919 17.2036 23.4224 17.0939C23.0533 16.8744 22.4149 16.8545 22.0458 17.054Z" fill="white"/>
</g>
</g>
</g>
</g>
<defs>
<clipPath id="clip0_0_5595">
<rect width="51.0733" height="51.0733" fill="white" transform="translate(0.110352 0.34375)"/>
</clipPath>
<clipPath id="clip1_0_5595">
<rect width="51.0733" height="51.0733" fill="white" transform="translate(0.110352 0.34375)"/>
</clipPath>
<clipPath id="clip2_0_5595">
<rect width="51.0733" height="51.0733" fill="white" transform="translate(0.110352 0.34375)"/>
</clipPath>
</defs>
</svg>
