<svg width="16" height="17" viewBox="0 0 16 17" fill="none" xmlns="http://www.w3.org/2000/svg">
<g clip-path="url(#clip0_0_5931)">
<g clip-path="url(#clip1_0_5931)">
<g clip-path="url(#clip2_0_5931)">
<mask id="mask0_0_5931" style="mask-type:luminance" maskUnits="userSpaceOnUse" x="0" y="1" width="16" height="15">
<path d="M15.1373 1.02637H0.544922V15.6187H15.1373V1.02637Z" fill="white"/>
</mask>
<g mask="url(#mask0_0_5931)">
<path d="M15.1375 8.32241C15.1375 7.33378 14.7034 6.40109 13.9671 5.81496C14.0522 4.82876 13.6995 3.86262 13.0004 3.1628C12.3011 2.46419 11.3374 2.11032 10.3998 2.21733C9.17531 0.663245 6.52983 0.634061 5.33387 2.19605C3.36816 1.96257 1.47783 3.81337 1.73685 5.76389C0.182761 6.98843 0.152969 9.6339 1.71557 10.8305C1.63044 11.8167 1.98309 12.7828 2.68232 13.4827C3.38153 14.1813 4.34645 14.5351 5.28279 14.4281C6.50734 15.9822 9.15281 16.0113 10.3487 14.4494C11.3337 14.5339 12.3005 14.1825 13.0004 13.4827C13.699 12.7834 14.0515 11.8167 13.9458 10.8821C14.7034 10.245 15.1375 9.31227 15.1375 8.32364V8.32241ZM5.40927 6.49837C5.41291 5.70308 6.62164 5.70308 6.62529 6.49837C6.62164 7.29365 5.41291 7.29365 5.40927 6.49837ZM7.13116 10.4839C6.94389 10.7654 6.56389 10.8372 6.28784 10.6523C6.00815 10.4662 5.93277 10.0887 6.11942 9.80904L8.55149 6.16092C8.73754 5.88184 9.1145 5.80523 9.39481 5.9925C9.67448 6.17856 9.7499 6.55613 9.56322 6.83582L7.13116 10.4839ZM9.66536 10.7544C8.87008 10.7508 8.87008 9.5421 9.66536 9.53845C10.4606 9.5421 10.4606 10.7508 9.66536 10.7544Z" fill="#43C043"/>
</g>
</g>
</g>
</g>
<defs>
<clipPath id="clip0_0_5931">
<rect width="14.5924" height="15.5044" fill="white" transform="translate(0.544922 0.537109)"/>
</clipPath>
<clipPath id="clip1_0_5931">
<rect width="14.5924" height="15.5044" fill="white" transform="translate(0.544922 0.537109)"/>
</clipPath>
<clipPath id="clip2_0_5931">
<rect width="14.5924" height="15.5044" fill="white" transform="translate(0.544922 0.537109)"/>
</clipPath>
</defs>
</svg>
