<svg width="15" height="16" viewBox="0 0 15 16" fill="none" xmlns="http://www.w3.org/2000/svg">
<g clip-path="url(#clip0_0_5022)">
<g clip-path="url(#clip1_0_5022)">
<g clip-path="url(#clip2_0_5022)">
<mask id="mask0_0_5022" style="mask-type:luminance" maskUnits="userSpaceOnUse" x="-1" y="0" width="16" height="16">
<path d="M14.5919 0.662109H-0.000488281V15.2545H14.5919V0.662109Z" fill="white"/>
</mask>
<g mask="url(#mask0_0_5022)">
<path d="M11.5518 1.87793H3.03959C1.36329 1.87793 -0.000488281 3.2417 -0.000488281 4.918V13.4302C-0.000488281 13.7665 0.271903 14.0383 0.607527 14.0383C0.943155 14.0383 1.21554 13.7665 1.21554 13.4302V12.2142H13.3759V13.4302C13.3759 13.7665 13.6477 14.0383 13.9838 14.0383C14.3201 14.0383 14.5919 13.7665 14.5919 13.4302V4.918C14.5919 3.2417 13.2281 1.87793 11.5518 1.87793ZM3.03959 3.09396H11.5518C12.5574 3.09396 13.3759 3.91234 13.3759 4.918V8.5661H12.1598C12.1598 7.22481 11.069 6.13403 9.72779 6.13403H9.11974C8.39377 6.13403 7.74198 6.45385 7.2957 6.95911C6.84942 6.45324 6.19762 6.13403 5.47165 6.13403H4.86363C3.52236 6.13403 2.43158 7.22481 2.43158 8.5661H1.21554V4.918C1.21554 3.91234 2.03393 3.09396 3.03959 3.09396ZM7.90372 8.5661C7.90372 7.89546 8.44911 7.35007 9.11974 7.35007H9.72779C10.3984 7.35007 10.9438 7.89546 10.9438 8.5661H7.90372ZM3.6476 8.5661C3.6476 7.89546 4.19299 7.35007 4.86363 7.35007H5.47165C6.14229 7.35007 6.68768 7.89546 6.68768 8.5661H3.6476ZM1.21554 10.9981V9.78212H13.3759V10.9981H1.21554Z" fill="#1E1E1E"/>
</g>
</g>
</g>
</g>
<defs>
<clipPath id="clip0_0_5022">
<rect width="14.5924" height="14.5924" fill="white" transform="translate(-0.000488281 0.662109)"/>
</clipPath>
<clipPath id="clip1_0_5022">
<rect width="14.5924" height="14.5924" fill="white" transform="translate(-0.000488281 0.662109)"/>
</clipPath>
<clipPath id="clip2_0_5022">
<rect width="14.5924" height="14.5924" fill="white" transform="translate(-0.000488281 0.662109)"/>
</clipPath>
</defs>
</svg>
