<svg width="15" height="16" viewBox="0 0 15 16" fill="none" xmlns="http://www.w3.org/2000/svg">
<g clip-path="url(#clip0_0_5013)">
<g clip-path="url(#clip1_0_5013)">
<mask id="mask0_0_5013" style="mask-type:luminance" maskUnits="userSpaceOnUse" x="0" y="0" width="15" height="16">
<path d="M14.7125 0.662109H0.120117V15.2545H14.7125V0.662109Z" fill="white"/>
</mask>
<g mask="url(#mask0_0_5013)">
<path d="M4.68023 8.56631C4.13909 8.56631 3.6101 8.40584 3.16015 8.1052C2.71021 7.80455 2.35952 7.37724 2.15243 6.87729C1.94535 6.37734 1.89117 5.82721 1.99673 5.29646C2.10231 4.76571 2.36289 4.2782 2.74554 3.89555C3.12819 3.5129 3.61571 3.25232 4.14645 3.14674C4.6772 3.04118 5.22733 3.09536 5.72728 3.30244C6.22723 3.50953 6.65454 3.86022 6.95519 4.31017C7.25583 4.7601 7.4163 5.28909 7.4163 5.83024C7.4155 6.55565 7.12697 7.25111 6.61404 7.76404C6.1011 8.27698 5.40564 8.56551 4.68023 8.56631ZM4.68023 4.3102C4.37959 4.3102 4.08571 4.39935 3.83574 4.56638C3.58578 4.7334 3.39095 4.9708 3.2759 5.24855C3.16085 5.5263 3.13075 5.83193 3.1894 6.12679C3.24806 6.42164 3.39282 6.69249 3.6054 6.90507C3.81799 7.11766 4.08883 7.26242 4.38369 7.32107C4.67855 7.37972 4.98417 7.34962 5.26193 7.23458C5.53968 7.11952 5.77708 6.9247 5.9441 6.67473C6.11112 6.42476 6.20027 6.13087 6.20027 5.83024C6.20027 5.4271 6.04012 5.04048 5.75506 4.75542C5.47 4.47035 5.08337 4.3102 4.68023 4.3102ZM9.24035 14.6464V14.3425C9.24035 13.133 8.75991 11.9731 7.90472 11.118C7.04953 10.2628 5.88965 9.78234 4.68023 9.78234C3.47082 9.78234 2.31093 10.2628 1.45575 11.118C0.600556 11.9731 0.120117 13.133 0.120117 14.3425V14.6464C0.120117 14.8077 0.184176 14.9624 0.298201 15.0764C0.412225 15.1905 0.566877 15.2545 0.728133 15.2545C0.889389 15.2545 1.04404 15.1905 1.15806 15.0764C1.27209 14.9624 1.33615 14.8077 1.33615 14.6464V14.3425C1.33615 13.4555 1.68847 12.605 2.31561 11.9779C2.94275 11.3507 3.79333 10.9983 4.68023 10.9983C5.56714 10.9983 6.41772 11.3507 7.04486 11.9779C7.672 12.605 8.02432 13.4555 8.02432 14.3425V14.6464C8.02432 14.8077 8.08838 14.9624 8.2024 15.0764C8.31642 15.1905 8.47108 15.2545 8.63233 15.2545C8.79358 15.2545 8.94824 15.1905 9.06227 15.0764C9.17629 14.9624 9.24035 14.8077 9.24035 14.6464ZM14.7125 11.6064C14.7125 10.7847 14.4746 9.98071 14.0276 9.29129C13.5808 8.60186 12.9438 8.05654 12.1938 7.72115C11.4437 7.38575 10.6126 7.27463 9.80079 7.40119C8.98897 7.52776 8.23114 7.88658 7.61877 8.43437C7.55843 8.48739 7.5092 8.55184 7.47392 8.62399C7.43863 8.69615 7.41799 8.77457 7.41319 8.85475C7.40839 8.93493 7.41952 9.01527 7.44594 9.09111C7.47236 9.16696 7.51355 9.23682 7.56712 9.29667C7.6207 9.35651 7.6856 9.40515 7.75808 9.43976C7.83056 9.47437 7.90918 9.49429 7.9894 9.49835C8.06961 9.5024 8.14984 9.49053 8.22544 9.46341C8.30105 9.43627 8.37052 9.39445 8.42986 9.34032C8.8673 8.94913 9.40862 8.69291 9.98848 8.60258C10.5683 8.51226 11.1619 8.59169 11.6976 8.83128C12.2332 9.07088 12.6882 9.4604 13.0074 9.9528C13.3266 10.4453 13.4965 11.0196 13.4965 11.6064C13.4965 11.7676 13.5605 11.9223 13.6745 12.0363C13.7886 12.1503 13.9432 12.2144 14.1044 12.2144C14.2657 12.2144 14.4204 12.1503 14.5344 12.0363C14.6485 11.9223 14.7125 11.7676 14.7125 11.6064ZM10.7604 6.13425C10.2192 6.13425 9.69025 5.97378 9.24031 5.67314C8.79037 5.3725 8.43967 4.94518 8.23259 4.44523C8.0255 3.94527 7.97131 3.39514 8.07689 2.8644C8.18247 2.33366 8.44305 1.84613 8.8257 1.46349C9.20834 1.08084 9.6959 0.820255 10.2266 0.714683C10.7573 0.609112 11.3074 0.663295 11.8074 0.870382C12.3074 1.07747 12.7347 1.42816 13.0354 1.8781C13.336 2.32805 13.4965 2.85704 13.4965 3.39818C13.4957 4.12358 13.2071 4.81905 12.6942 5.33199C12.1813 5.84493 11.4858 6.13345 10.7604 6.13425ZM10.7604 1.87814C10.4597 1.87814 10.1659 1.96729 9.91588 2.13432C9.6659 2.30133 9.47109 2.53873 9.35608 2.81649C9.24099 3.09424 9.21091 3.39987 9.26953 3.69472C9.32818 3.98958 9.47301 4.26043 9.6856 4.47301C9.8981 4.68559 10.169 4.83036 10.4638 4.88901C10.7587 4.94766 11.0643 4.91756 11.3421 4.80251C11.6198 4.68746 11.8572 4.49263 12.0243 4.24267C12.1913 3.9927 12.2804 3.69882 12.2804 3.39818C12.2804 2.99504 12.1202 2.60841 11.8352 2.32335C11.5501 2.03829 11.1635 1.87814 10.7604 1.87814Z" fill="#1E1E1E"/>
</g>
</g>
</g>
<defs>
<clipPath id="clip0_0_5013">
<rect width="14.5924" height="14.5924" fill="white" transform="translate(0.120117 0.662109)"/>
</clipPath>
<clipPath id="clip1_0_5013">
<rect width="14.5924" height="14.5924" fill="white" transform="translate(0.120117 0.662109)"/>
</clipPath>
</defs>
</svg>
