<svg width="17" height="17" viewBox="0 0 17 17" fill="none" xmlns="http://www.w3.org/2000/svg">
<g clip-path="url(#clip0_0_5087)">
<g clip-path="url(#clip1_0_5087)">
<mask id="mask0_0_5087" style="mask-type:luminance" maskUnits="userSpaceOnUse" x="1" y="0" width="16" height="17">
<path d="M16.6338 0.963867H1.48022V16.1175H16.6338V0.963867Z" fill="white"/>
</mask>
<g mask="url(#mask0_0_5087)">
<path d="M14.1081 6.01508C13.4382 6.01508 12.7958 5.74898 12.3222 5.27534C11.8486 4.8017 11.5825 4.1593 11.5825 3.48947C11.5825 2.81963 11.8486 2.17725 12.3222 1.7036C12.7958 1.22996 13.4382 0.963867 14.1081 0.963867C14.7779 0.963867 15.4203 1.22996 15.8939 1.7036C16.3676 2.17725 16.6337 2.81963 16.6337 3.48947C16.6337 4.1593 16.3676 4.8017 15.8939 5.27534C15.4203 5.74898 14.7779 6.01508 14.1081 6.01508ZM14.1081 2.22667C13.7732 2.22667 13.4519 2.35971 13.2152 2.59654C12.9783 2.83336 12.8453 3.15455 12.8453 3.48947C12.8453 3.82438 12.9783 4.14559 13.2152 4.3824C13.4519 4.61923 13.7732 4.75228 14.1081 4.75228C14.443 4.75228 14.7642 4.61923 15.001 4.3824C15.2378 4.14559 15.3709 3.82438 15.3709 3.48947C15.3709 3.15455 15.2378 2.83336 15.001 2.59654C14.7642 2.35971 14.443 2.22667 14.1081 2.22667ZM15.0249 16.1175H9.42875C9.14568 16.12 8.86695 16.0478 8.62073 15.908C8.3745 15.7683 8.1695 15.5661 8.02641 15.3219C7.88619 15.0865 7.81065 14.8183 7.80743 14.5443C7.80422 14.2703 7.87343 14.0004 8.0081 13.7617L10.809 8.73641C10.9532 8.48734 11.1604 8.28057 11.4097 8.13682C11.6591 7.99308 11.9418 7.91741 12.2296 7.91741C12.5175 7.91741 12.8002 7.99308 13.0496 8.13682C13.2989 8.28057 13.5061 8.48734 13.6503 8.73641L16.4443 13.7579C16.5791 13.9969 16.6486 14.2672 16.6454 14.5416C16.6424 14.816 16.5669 15.0848 16.4266 15.3207C16.2835 15.5649 16.0787 15.7672 15.8326 15.9071C15.5866 16.047 15.3079 16.1195 15.0249 16.1175ZM12.2284 9.17208C12.1645 9.17056 12.1015 9.18639 12.0459 9.21784C11.9903 9.24931 11.9443 9.29524 11.9127 9.35077L9.11178 14.3761C9.08471 14.4227 9.07077 14.4758 9.07144 14.5298C9.07211 14.5837 9.08736 14.6363 9.11557 14.6823C9.14791 14.7367 9.19428 14.7814 9.24982 14.8118C9.30536 14.8421 9.36803 14.8568 9.43127 14.8547H15.0274C15.0907 14.8566 15.1534 14.8414 15.2089 14.8109C15.2644 14.7804 15.3108 14.7355 15.3431 14.6811C15.3708 14.6343 15.3854 14.581 15.3854 14.5266C15.3854 14.4723 15.3708 14.419 15.3431 14.3723L12.5447 9.3514C12.5133 9.29557 12.4672 9.24936 12.4115 9.21777C12.3557 9.18617 12.2924 9.17038 12.2284 9.17208ZM6.53125 15.4861C6.53125 15.3186 6.46473 15.158 6.34631 15.0396C6.22791 14.9212 6.06731 14.8547 5.89985 14.8547H3.59524C3.44758 14.8546 3.30247 14.8162 3.17417 14.7431C3.04587 14.6699 2.93876 14.5647 2.86337 14.4378C2.78798 14.3108 2.74689 14.1665 2.74414 14.0188C2.74138 13.8712 2.77706 13.7254 2.84766 13.5957L7.04774 5.82944C7.11958 5.69407 7.2271 5.58096 7.35868 5.50238C7.49023 5.4238 7.64081 5.38274 7.79405 5.38368C7.94744 5.38241 8.09824 5.42333 8.22996 5.50194C8.36168 5.58055 8.46929 5.69385 8.541 5.82944L9.31573 7.26083C9.3552 7.3338 9.40866 7.39827 9.47304 7.45058C9.53743 7.50288 9.61149 7.54201 9.69099 7.56568C9.77049 7.58937 9.85388 7.59717 9.93639 7.58863C10.0189 7.58009 10.0989 7.55538 10.1719 7.51592C10.2449 7.47644 10.3094 7.42299 10.3617 7.3586C10.414 7.29422 10.4531 7.22016 10.4768 7.14065C10.5005 7.06114 10.5083 6.97776 10.4997 6.89524C10.4912 6.81273 10.4665 6.7327 10.427 6.65974L9.6529 5.22898C9.47196 4.89386 9.20374 4.61392 8.87668 4.41881C8.5496 4.22371 8.17585 4.1207 7.795 4.1207C7.41415 4.1207 7.0404 4.22371 6.71332 4.41881C6.38626 4.61392 6.11804 4.89386 5.9371 5.22898L1.73639 12.9952C1.56219 13.3174 1.47459 13.6791 1.48214 14.0454C1.48969 14.4114 1.59215 14.7693 1.77949 15.084C1.96683 15.3987 2.23264 15.6593 2.55091 15.8406C2.86918 16.0216 3.22903 16.1171 3.59524 16.1175H5.89985C6.06731 16.1175 6.22791 16.0509 6.34631 15.9325C6.46473 15.8142 6.53125 15.6535 6.53125 15.4861Z" fill="black"/>
</g>
</g>
</g>
<defs>
<clipPath id="clip0_0_5087">
<rect width="16.4164" height="16.4164" fill="white" transform="translate(0.340088 0.383789)"/>
</clipPath>
<clipPath id="clip1_0_5087">
<rect width="16.4164" height="16.4164" fill="white" transform="translate(0.340088 0.383789)"/>
</clipPath>
</defs>
</svg>
