<svg width="64" height="64" viewBox="0 0 64 64" fill="none" xmlns="http://www.w3.org/2000/svg">
<path d="M54.787 11.4556H54.659C46.467 11.4556 38.531 7.99961 32.963 1.98361C32.451 1.47161 31.491 1.47161 31.043 1.98361C28.2695 4.96593 24.9122 7.34583 21.1798 8.97533C17.4474 10.6048 13.4196 11.4491 9.347 11.4556H9.219C8.515 11.4556 7.875 12.0316 7.875 12.7996V27.3276C7.875 39.2956 13.827 50.4316 23.747 57.0876L31.235 62.1436C31.427 62.2716 31.683 62.3996 32.003 62.3996C32.323 62.3996 32.515 62.3356 32.771 62.1436L40.259 57.0876C45.1456 53.8125 49.15 49.3839 51.9183 44.1934C54.6866 39.0028 56.1334 33.2102 56.131 27.3276V12.7356C56.067 12.0316 55.491 11.4556 54.787 11.4556ZM40.9278 28.118L31.5822 38.2668C31.1022 38.7996 30.4078 39.0668 29.7134 39.0668C29.0099 39.0521 28.3395 38.7654 27.843 38.2668L23.1438 33.1932C22.1822 32.1244 22.2366 30.5212 23.3038 29.5612C24.3726 28.5996 25.9742 28.6524 26.9358 29.7212L29.7662 32.7644L37.243 24.7004C38.203 23.6316 39.8062 23.5804 40.875 24.5404C41.835 25.4492 41.8894 27.0508 40.9278 28.118Z" fill="url(#paint0_linear_105_273)"/>
<defs>
<linearGradient id="paint0_linear_105_273" x1="2.5774" y1="-5.48519" x2="61.4686" y2="59.054" gradientUnits="userSpaceOnUse">
<stop stop-color="#55D475"/>
<stop offset="1" stop-color="#22943F"/>
</linearGradient>
</defs>
</svg>
