<svg width="24" height="23" viewBox="0 0 24 23" fill="none" xmlns="http://www.w3.org/2000/svg">
<path d="M22.1 6.9002C21.5 7.6002 20.9 8.4002 20.4 9.1002V17.0002C20.4 18.9002 18.9 20.4002 17 20.4002H6C4.1 20.4002 2.6 18.9002 2.6 17.0002V6.1002C2.6 4.2002 4.1 2.7002 6 2.7002H15.9C16.1 2.5002 16.4 2.2002 16.6 2.0002C17.2 1.5002 17.7 0.900195 18.3 0.400195C17.8 0.300195 17.4 0.200195 16.9 0.200195H6C2.7 0.200195 0 2.9002 0 6.2002V17.0002C0 20.3002 2.7 23.0002 6 23.0002H16.9C20.2 23.0002 22.9 20.3002 22.9 17.0002V6.1002C22.9 6.0002 22.9 6.0002 22.9 5.9002C22.6 6.2002 22.3 6.6002 22.1 6.9002Z" fill="#22943F"/>
<path d="M23.4003 0.400405C23.0003 -0.099595 22.2003 -0.199595 21.7003 0.300405C20.5003 1.30041 19.5003 2.4004 18.4003 3.50041C17.3003 4.60041 16.3003 5.70041 15.4003 6.9004C14.5003 8.1004 13.5003 9.30041 12.6003 10.6004C12.2003 11.2004 11.7003 11.9004 11.3003 12.5004L7.90029 8.30041C7.50029 7.80041 6.80029 7.70041 6.20029 8.00041C5.70029 8.4004 5.50029 9.1004 5.90029 9.70041L10.3003 16.2004C10.4003 16.4004 10.6003 16.5004 10.8003 16.6004C11.5003 17.1004 12.4003 16.8004 12.9003 16.1004C13.3003 15.4004 14.4003 13.4004 15.2003 12.2004C16.0003 11.0004 16.8003 9.80041 17.7003 8.60041C18.6003 7.40041 19.5003 6.3004 20.5003 5.2004C21.5003 4.1004 22.5003 3.0004 23.5003 2.1004C23.8003 1.70041 23.8003 0.900405 23.4003 0.400405Z" fill="#22943F"/>
</svg>
