<svg width="64" height="64" viewBox="0 0 64 64" fill="none" xmlns="http://www.w3.org/2000/svg">
<path d="M39.0369 10.0144C42.8929 6.17922 49.0529 4.98722 54.0065 7.10722C54.4825 7.31226 54.8662 7.68566 55.084 8.15594C55.3019 8.62622 55.3387 9.16033 55.1873 9.65602C55.0866 9.98452 54.9069 10.2834 54.6641 10.5264L48.3169 16.8752C48.0606 17.1364 47.917 17.4877 47.917 17.8536C47.917 18.2195 48.0606 18.5709 48.3169 18.832L51.1201 21.6352C51.381 21.8914 51.732 22.035 52.0977 22.035C52.4634 22.035 52.8144 21.8914 53.0753 21.6352L59.4561 15.2528C59.6934 15.0166 59.9836 14.8404 60.3027 14.7389C60.6218 14.6373 60.9605 14.6134 61.2906 14.6692C61.6208 14.7249 61.9329 14.8586 62.201 15.0591C62.4691 15.2597 62.6855 15.5214 62.8321 15.8224C63.8369 17.8864 64.1393 20.6624 63.6609 23.432C63.1521 26.368 61.8289 29.0096 59.9329 30.8816C56.6369 34.1248 51.5201 35.1216 45.9073 33.6256C45.6661 33.5617 45.412 33.5647 45.1724 33.6343C44.9328 33.7039 44.7167 33.8376 44.5473 34.0208L24.3249 55.6288C23.3553 56.7043 22.0796 57.457 20.6693 57.7857C19.2591 58.1143 17.7821 58.0032 16.4369 57.4672C15.3191 57.0205 14.3336 56.2962 13.5734 55.3628C12.8133 54.4295 12.3035 53.3177 12.0923 52.1327C11.8811 50.9476 11.9754 49.7282 12.3663 48.5897C12.7572 47.4511 13.4318 46.431 14.3265 45.6256L35.8977 25.5824C36.0848 25.4106 36.2206 25.1904 36.2901 24.946C36.3596 24.7017 36.36 24.443 36.2913 24.1984C34.6913 18.4976 35.6913 13.3344 39.0369 10.0144Z" fill="url(#paint0_linear_105_304)"/>
<path d="M45.3256 39.0234C49.1128 42.4954 52.828 45.8394 54.5672 47.2858C54.9607 47.6128 55.2817 48.0183 55.5096 48.4764C55.7375 48.9345 55.8673 49.4351 55.8906 49.9463C55.914 50.4574 55.8304 50.9678 55.6452 51.4447C55.46 51.9217 55.1773 52.3548 54.8152 52.7162L50.6344 56.889C49.9355 57.5752 48.9962 57.9611 48.0168 57.9642H47.8792C47.3693 57.9452 46.8687 57.8221 46.4081 57.6025C45.9475 57.3829 45.5367 57.0715 45.2008 56.6874L45.1928 56.6762C43.796 55.0506 40.6072 51.577 37.084 47.833L45.3256 39.025V39.0234Z" fill="url(#paint1_linear_105_304)"/>
<path d="M25.7823 6.06641C29.2415 6.06641 31.8783 7.61521 32.8943 8.53361C33.3263 8.93361 33.7263 9.36561 34.0911 9.82641C34.2863 10.0664 34.4191 10.2472 34.4511 10.2904C34.7058 10.6371 34.8416 11.0568 34.8382 11.4869C34.8349 11.917 34.6927 12.3346 34.4327 12.6773C34.1728 13.02 33.809 13.2695 33.3957 13.3887C32.9824 13.5078 32.5416 13.4902 32.1391 13.3384C31.851 13.2335 31.5572 13.1448 31.2591 13.0728C30.6366 12.9429 29.9985 12.9036 29.3647 12.956C28.0031 13.068 26.3999 13.7304 25.6911 14.2808C25.0127 14.8024 24.5023 15.5128 24.2223 16.3192C24.0361 16.862 23.984 17.4419 24.0707 18.0092C24.1574 18.5765 24.3801 19.1144 24.7199 19.5768L27.7807 23.7992L27.8623 23.8856C27.8703 23.8968 27.8783 23.908 27.8895 23.9176C28.8959 23.9656 29.8527 24.372 30.5839 25.0648L22.3215 32.7448C21.7083 31.9582 21.3896 30.9818 21.4207 29.9848C18.4879 27.0584 16.8047 25.9096 16.2143 25.5512C15.4191 25.068 14.8591 24.9864 14.7551 24.9752H14.7471C14.6662 24.9669 14.585 24.9873 14.5177 25.033C14.4504 25.0786 14.4013 25.1466 14.3791 25.2248C14.3664 25.2713 14.3635 25.3199 14.3707 25.3676C14.3778 25.4153 14.3949 25.4609 14.4207 25.5016C14.6671 25.9064 14.7967 26.3704 14.7951 26.8456C14.7965 27.1882 14.7291 27.5276 14.5969 27.8436C14.4647 28.1597 14.2704 28.446 14.0255 28.6856L10.3503 32.2776C9.85993 32.7502 9.20476 33.0131 8.52374 33.0107C7.84272 33.0083 7.18941 32.7408 6.70233 32.2648L0.775935 26.4856C0.291525 26.0034 0.0157616 25.3504 0.00798168 24.6669C0.000201708 23.9835 0.261027 23.3243 0.734335 22.8312L0.774335 22.7896L4.44793 19.2088C4.93387 18.7327 5.58842 18.4681 6.26873 18.4728H6.40473C6.63254 18.4876 6.85764 18.4166 7.03584 18.2739C7.21405 18.1313 7.33249 17.9271 7.36793 17.7016C7.44313 17.1736 7.64473 16.6696 7.95353 16.2328C8.77138 15.1454 9.66821 14.1197 10.6367 13.164L10.6479 13.1512C12.0879 11.7528 15.2207 9.11761 20.0063 7.18961C21.8413 6.44656 23.8026 6.06516 25.7823 6.06641Z" fill="url(#paint2_linear_105_304)"/>
<defs>
<linearGradient id="paint0_linear_105_304" x1="6.28471" y1="0.018193" x2="54.253" y2="66.2473" gradientUnits="userSpaceOnUse">
<stop stop-color="#55D475"/>
<stop offset="1" stop-color="#22943F"/>
</linearGradient>
<linearGradient id="paint1_linear_105_304" x1="35.019" y1="36.8163" x2="52.5604" y2="60.8706" gradientUnits="userSpaceOnUse">
<stop stop-color="#55D475"/>
<stop offset="1" stop-color="#22943F"/>
</linearGradient>
<linearGradient id="paint2_linear_105_304" x1="-3.81592" y1="2.92668" x2="18.5347" y2="42.8206" gradientUnits="userSpaceOnUse">
<stop stop-color="#55D475"/>
<stop offset="1" stop-color="#22943F"/>
</linearGradient>
</defs>
</svg>
