<svg width="13" height="13" viewBox="0 0 13 13" fill="none" xmlns="http://www.w3.org/2000/svg">
<path fill-rule="evenodd" clip-rule="evenodd" d="M2.16667 1.625C2.02301 1.625 1.88523 1.68207 1.78365 1.78365C1.68207 1.88523 1.625 2.02301 1.625 2.16667V9.20833C1.625 9.78297 1.85327 10.3341 2.2596 10.7404C2.66593 11.1467 3.21703 11.375 3.79167 11.375H8.125C8.69964 11.375 9.25073 11.1467 9.65706 10.7404C10.0634 10.3341 10.2917 9.78297 10.2917 9.20833V7.58333H10.8333C11.2643 7.58333 11.6776 7.41213 11.9824 7.10738C12.2871 6.80264 12.4583 6.38931 12.4583 5.95833V4.33333C12.4583 3.90236 12.2871 3.48903 11.9824 3.18428C11.6776 2.87954 11.2643 2.70833 10.8333 2.70833H10.2917V2.16667C10.2917 2.02301 10.2346 1.88523 10.133 1.78365C10.0314 1.68207 9.89366 1.625 9.75 1.625H2.16667ZM10.2917 3.79167V6.5H10.8333C10.977 6.5 11.1148 6.44293 11.2163 6.34135C11.3179 6.23977 11.375 6.10199 11.375 5.95833V4.33333C11.375 4.18967 11.3179 4.0519 11.2163 3.95032C11.1148 3.84874 10.977 3.79167 10.8333 3.79167H10.2917ZM2.70833 9.20833V2.70833H9.20833V9.20833C9.20833 9.49565 9.0942 9.7712 8.89103 9.97437C8.68787 10.1775 8.41232 10.2917 8.125 10.2917H3.79167C3.50435 10.2917 3.2288 10.1775 3.02563 9.97437C2.82247 9.7712 2.70833 9.49565 2.70833 9.20833Z" fill="#1E1E1E"/>
</svg>
