<svg width="25" height="24" viewBox="0 0 25 24" fill="none" xmlns="http://www.w3.org/2000/svg">
<path fill-rule="evenodd" clip-rule="evenodd" d="M10.634 2.95492C11.1342 2.61092 11.7269 2.42676 12.334 2.42676C12.941 2.42676 13.5338 2.61092 14.034 2.95492L20.901 7.67492C21.0347 7.76696 21.144 7.89017 21.2194 8.03391C21.2949 8.17764 21.3342 8.33758 21.334 8.49992V18.9999C21.334 19.5303 21.1233 20.0391 20.7482 20.4141C20.3731 20.7892 19.8644 20.9999 19.334 20.9999H14.834C14.5688 20.9999 14.3144 20.8946 14.1269 20.707C13.9393 20.5195 13.834 20.2651 13.834 19.9999V14.9999H10.834V19.9999C10.834 20.2651 10.7286 20.5195 10.5411 20.707C10.3536 20.8946 10.0992 20.9999 9.83398 20.9999H5.33398C4.80355 20.9999 4.29484 20.7892 3.91977 20.4141C3.5447 20.0391 3.33398 19.5303 3.33398 18.9999V8.49992C3.33394 8.33775 3.37333 8.17801 3.44876 8.03446C3.5242 7.89091 3.63341 7.76786 3.76698 7.67592L10.634 2.95492ZM12.9 4.60292C12.7333 4.48832 12.5358 4.42698 12.3335 4.42698C12.1312 4.42698 11.9337 4.48832 11.767 4.60292L5.33398 9.02592V18.9999H8.83398V13.9999C8.83398 13.7347 8.93934 13.4803 9.12688 13.2928C9.31441 13.1053 9.56877 12.9999 9.83398 12.9999H14.834C15.0992 12.9999 15.3536 13.1053 15.5411 13.2928C15.7286 13.4803 15.834 13.7347 15.834 13.9999V18.9999H19.334V9.02592L12.9 4.60292Z" fill="#191E3B"/>
</svg>
