<svg width="25" height="24" viewBox="0 0 25 24" fill="none" xmlns="http://www.w3.org/2000/svg">
<path d="M7 10C7.13261 10 7.25979 10.0527 7.35355 10.1464C7.44732 10.2402 7.5 10.3674 7.5 10.5V11.5C7.5 11.6326 7.44732 11.7598 7.35355 11.8536C7.25979 11.9473 7.13261 12 7 12H6C5.86739 12 5.74021 11.9473 5.64645 11.8536C5.55268 11.7598 5.5 11.6326 5.5 11.5V10.5C5.5 10.3674 5.55268 10.2402 5.64645 10.1464C5.74021 10.0527 5.86739 10 6 10H7ZM7.5 6.5C7.5 6.36739 7.44732 6.24021 7.35355 6.14645C7.25979 6.05268 7.13261 6 7 6H6C5.86739 6 5.74021 6.05268 5.64645 6.14645C5.55268 6.24021 5.5 6.36739 5.5 6.5V7.5C5.5 7.63261 5.55268 7.75979 5.64645 7.85355C5.74021 7.94732 5.86739 8 6 8H7C7.13261 8 7.25979 7.94732 7.35355 7.85355C7.44732 7.75979 7.5 7.63261 7.5 7.5V6.5ZM11 10C11.1326 10 11.2598 10.0527 11.3536 10.1464C11.4473 10.2402 11.5 10.3674 11.5 10.5V11.5C11.5 11.6326 11.4473 11.7598 11.3536 11.8536C11.2598 11.9473 11.1326 12 11 12H10C9.86739 12 9.74021 11.9473 9.64645 11.8536C9.55268 11.7598 9.5 11.6326 9.5 11.5V10.5C9.5 10.3674 9.55268 10.2402 9.64645 10.1464C9.74021 10.0527 9.86739 10 10 10H11ZM11.5 6.5C11.5 6.36739 11.4473 6.24021 11.3536 6.14645C11.2598 6.05268 11.1326 6 11 6H10C9.86739 6 9.74021 6.05268 9.64645 6.14645C9.55268 6.24021 9.5 6.36739 9.5 6.5V7.5C9.5 7.63261 9.55268 7.75979 9.64645 7.85355C9.74021 7.94732 9.86739 8 10 8H11C11.1326 8 11.2598 7.94732 11.3536 7.85355C11.4473 7.75979 11.5 7.63261 11.5 7.5V6.5Z" fill="#191E3B"/>
<path fill-rule="evenodd" clip-rule="evenodd" d="M1.5 5C1.5 4.20435 1.81607 3.44129 2.37868 2.87868C2.94129 2.31607 3.70435 2 4.5 2H12.5C13.2956 2 14.0587 2.31607 14.6213 2.87868C15.1839 3.44129 15.5 4.20435 15.5 5V19H21C21.1326 19 21.2598 18.9473 21.3536 18.8536C21.4473 18.7598 21.5 18.6326 21.5 18.5V9C21.5 8.73478 21.3946 8.48043 21.2071 8.29289C21.0196 8.10536 20.7652 8 20.5 8H18C17.8674 8 17.7402 7.94732 17.6464 7.85355C17.5527 7.75979 17.5 7.63261 17.5 7.5V6.5C17.5 6.36739 17.5527 6.24021 17.6464 6.14645C17.7402 6.05268 17.8674 6 18 6H20.5C21.2956 6 22.0587 6.31607 22.6213 6.87868C23.1839 7.44129 23.5 8.20435 23.5 9V20C23.5 20.2652 23.3946 20.5196 23.2071 20.7071C23.0196 20.8946 22.7652 21 22.5 21H2.5C2.23478 21 1.98043 20.8946 1.79289 20.7071C1.60536 20.5196 1.5 20.2652 1.5 20V5ZM4.5 4C4.23478 4 3.98043 4.10536 3.79289 4.29289C3.60536 4.48043 3.5 4.73478 3.5 5V19H5.5V15C5.5 14.7348 5.60536 14.4804 5.79289 14.2929C5.98043 14.1054 6.23478 14 6.5 14H10.5C10.7652 14 11.0196 14.1054 11.2071 14.2929C11.3946 14.4804 11.5 14.7348 11.5 15V19H13.5V5C13.5 4.73478 13.3946 4.48043 13.2071 4.29289C13.0196 4.10536 12.7652 4 12.5 4H4.5ZM9.5 16V19H7.5V16H9.5Z" fill="#191E3B"/>
<path d="M19.5 10.5C19.5 10.3674 19.4473 10.2402 19.3536 10.1464C19.2598 10.0527 19.1326 10 19 10H18C17.8674 10 17.7402 10.0527 17.6464 10.1464C17.5527 10.2402 17.5 10.3674 17.5 10.5V11.5C17.5 11.6326 17.5527 11.7598 17.6464 11.8536C17.7402 11.9473 17.8674 12 18 12H19C19.1326 12 19.2598 11.9473 19.3536 11.8536C19.4473 11.7598 19.5 11.6326 19.5 11.5V10.5ZM19 14C19.1326 14 19.2598 14.0527 19.3536 14.1464C19.4473 14.2402 19.5 14.3674 19.5 14.5V15.5C19.5 15.6326 19.4473 15.7598 19.3536 15.8536C19.2598 15.9473 19.1326 16 19 16H18C17.8674 16 17.7402 15.9473 17.6464 15.8536C17.5527 15.7598 17.5 15.6326 17.5 15.5V14.5C17.5 14.3674 17.5527 14.2402 17.6464 14.1464C17.7402 14.0527 17.8674 14 18 14H19Z" fill="#191E3B"/>
</svg>
