<svg width="16" height="17" viewBox="0 0 16 17" fill="none" xmlns="http://www.w3.org/2000/svg">
<path d="M6.58835 13.204C3.20967 13.204 0.470703 10.4651 0.470703 7.0864C0.470703 3.70771 3.20967 0.96875 6.58835 0.96875C9.96708 0.96875 12.706 3.70771 12.706 7.0864C12.706 10.4651 9.96708 13.204 6.58835 13.204ZM6.58835 12.2629C9.44727 12.2629 11.7648 9.94529 11.7648 7.0864C11.7648 4.22751 9.44727 1.90993 6.58835 1.90993C3.72946 1.90993 1.41188 4.22751 1.41188 7.0864C1.41188 9.94529 3.72946 12.2629 6.58835 12.2629ZM14.7261 15.8898L11.432 12.5957C11.2483 12.4119 11.2483 12.1139 11.432 11.9301C11.6158 11.7464 11.9138 11.7464 12.0976 11.9301L15.3917 15.2242C15.5755 15.408 15.5755 15.706 15.3917 15.8898C15.2079 16.0735 14.91 16.0735 14.7261 15.8898Z" fill="#191E3B" stroke="#191E3B" stroke-width="0.8"/>
</svg>
