<svg width="25" height="24" viewBox="0 0 25 24" fill="none" xmlns="http://www.w3.org/2000/svg">
<path fill-rule="evenodd" clip-rule="evenodd" d="M13.183 2.26958C12.9978 2.09636 12.7536 2 12.5 2C12.2464 2 12.0022 2.09636 11.817 2.26958C9.435 4.49358 8.027 7.32658 7.622 10.2626C6.04308 9.43053 4.28474 8.99695 2.5 8.99958C2.23478 8.99958 1.98043 9.10494 1.79289 9.29247C1.60536 9.48001 1.5 9.73436 1.5 9.99958C1.5 16.0746 6.425 20.9996 12.5 20.9996C18.575 20.9996 23.5 16.0746 23.5 9.99958C23.5 9.73436 23.3946 9.48001 23.2071 9.29247C23.0196 9.10494 22.7652 8.99958 22.5 8.99958C20.65 8.99958 18.907 9.45558 17.378 10.2626C16.973 7.32658 15.565 4.49458 13.183 2.26958ZM15.488 11.5236C15.368 8.98958 14.372 6.47158 12.5 4.42058C10.628 6.47058 9.632 8.98858 9.512 11.5236C10.7868 12.5789 11.808 13.9073 12.5 15.4106C13.192 13.9073 14.2132 12.5789 15.488 11.5236ZM11.438 18.9376C9.43195 18.6987 7.56454 17.7921 6.13603 16.3636C4.70751 14.935 3.80091 13.0676 3.562 11.0616C5.56805 11.3005 7.43546 12.2071 8.86397 13.6356C10.2925 15.0641 11.1991 16.9315 11.438 18.9376ZM21.438 11.0616C21.1991 13.0676 20.2925 14.935 18.864 16.3636C17.4355 17.7921 15.568 18.6987 13.562 18.9376C13.8009 16.9315 14.7075 15.0641 16.136 13.6356C17.5645 12.2071 19.432 11.3005 21.438 11.0616Z" fill="black"/>
</svg>
