<svg width="25" height="24" viewBox="0 0 25 24" fill="none" xmlns="http://www.w3.org/2000/svg">
<path fill-rule="evenodd" clip-rule="evenodd" d="M3.1665 20C3.29911 20 3.42629 19.9473 3.52006 19.8536C3.61383 19.7598 3.6665 19.6326 3.6665 19.5V17H21.6665V19.5C21.6665 19.6326 21.7192 19.7598 21.813 19.8536C21.9067 19.9473 22.0339 20 22.1665 20H23.1665C23.2991 20 23.4263 19.9473 23.5201 19.8536C23.6138 19.7598 23.6665 19.6326 23.6665 19.5V11C23.6665 9.93913 23.2451 8.92172 22.4949 8.17157C21.7448 7.42143 20.7274 7 19.6665 7H12.6665C12.4013 7 12.1469 7.10536 11.9594 7.29289C11.7719 7.48043 11.6665 7.73478 11.6665 8V15H3.6665V5.5C3.6665 5.36739 3.61383 5.24021 3.52006 5.14645C3.42629 5.05268 3.29911 5 3.1665 5H2.1665C2.0339 5 1.90672 5.05268 1.81295 5.14645C1.71918 5.24021 1.6665 5.36739 1.6665 5.5V19.5C1.6665 19.6326 1.71918 19.7598 1.81295 19.8536C1.90672 19.9473 2.0339 20 2.1665 20H3.1665ZM13.6665 15H21.6665V11C21.6665 10.4696 21.4558 9.96086 21.0807 9.58579C20.7056 9.21071 20.1969 9 19.6665 9H13.6665V15Z" fill="white"/>
<path fill-rule="evenodd" clip-rule="evenodd" d="M7.6665 8C7.27254 8 6.88243 8.0776 6.51845 8.22836C6.15448 8.37913 5.82376 8.6001 5.54518 8.87868C5.26661 9.15726 5.04563 9.48797 4.89487 9.85195C4.7441 10.2159 4.6665 10.606 4.6665 11C4.6665 11.394 4.7441 11.7841 4.89487 12.1481C5.04563 12.512 5.26661 12.8427 5.54518 13.1213C5.82376 13.3999 6.15448 13.6209 6.51845 13.7716C6.88243 13.9224 7.27254 14 7.6665 14C8.46215 14 9.22522 13.6839 9.78782 13.1213C10.3504 12.5587 10.6665 11.7956 10.6665 11C10.6665 10.2044 10.3504 9.44129 9.78782 8.87868C9.22522 8.31607 8.46215 8 7.6665 8ZM6.6665 11C6.6665 10.7348 6.77186 10.4804 6.9594 10.2929C7.14693 10.1054 7.40129 10 7.6665 10C7.93172 10 8.18607 10.1054 8.37361 10.2929C8.56115 10.4804 8.6665 10.7348 8.6665 11C8.6665 11.2652 8.56115 11.5196 8.37361 11.7071C8.18607 11.8946 7.93172 12 7.6665 12C7.40129 12 7.14693 11.8946 6.9594 11.7071C6.77186 11.5196 6.6665 11.2652 6.6665 11Z" fill="white"/>
</svg>
