<svg width="96" height="96" viewBox="0 0 96 96" fill="none" xmlns="http://www.w3.org/2000/svg">
<path d="M89.1657 39.0477L85.169 36.0103C85.6886 34.1718 86.1282 32.6131 86.5279 31.2542C88.1266 25.8987 89.0058 22.9411 86.8077 19.9037C84.6095 16.8662 81.612 16.7463 75.9367 16.5864H70.9809C70.3014 14.8279 69.7819 13.2692 69.3023 11.9503C67.4638 6.6747 66.4247 3.95696 62.8276 2.5981C59.2306 1.23923 56.7127 3.15763 52.0766 6.35497L48.0799 9.11267L44.0833 6.4349C39.9667 3.1976 36.9292 1.19926 33.2923 2.39826C29.6553 3.59726 28.6961 6.39493 26.8177 11.7105C26.3381 13.0294 25.7785 14.5881 25.1391 16.3866L19.9833 16.5465C14.388 16.5465 11.3106 16.7463 9.11241 19.7838C6.91424 22.8212 7.99334 25.7788 9.51207 31.1743C9.91174 32.5331 10.3913 34.0919 10.8709 35.9303L6.87427 38.9678C2.5179 42.325 0 44.2034 0 48.0003C0 51.7971 2.43797 53.6356 6.87427 57.0327L10.8709 60.0702C10.3913 61.9087 9.91174 63.4674 9.51207 64.8262C7.91341 70.1818 7.03414 73.1393 9.23231 76.1768C11.4305 79.2142 14.5479 79.2942 20.1033 79.4541H25.0192C25.6986 81.2126 26.2182 82.7713 26.6978 84.0902C28.5762 89.3658 29.5754 92.0835 33.1724 93.4424C36.7694 94.8013 39.2873 92.8829 43.9234 89.6855L47.9201 86.9278L51.9167 89.6056C54.3818 91.7634 57.4244 93.1527 60.6694 93.6023C61.3901 93.5948 62.105 93.4734 62.7877 93.2426C66.3847 92.0835 67.3839 89.2459 69.2623 83.9303C69.7419 82.6114 70.2615 81.0527 70.9409 79.2942H75.8968C81.4921 79.2942 84.5695 79.0944 86.7677 76.0169C88.9659 72.9395 88.1266 70.0219 86.5279 64.6664C86.1282 63.3075 85.6486 61.7488 85.169 59.9103L89.1657 56.8729C93.562 53.7155 95.9201 51.9969 95.9201 48.0003C95.9201 44.0036 93.562 42.4449 89.1657 39.0477Z" fill="#32BA55"/>
<path d="M41.445 69.0233C40.9047 69.0006 40.3746 68.8684 39.8869 68.6349C39.3991 68.4013 38.9638 68.0712 38.6074 67.6645L26.8172 54.5154C26.1123 53.7204 25.7521 52.678 25.8158 51.6174C25.8795 50.5568 26.3619 49.565 27.1569 48.8601C27.9519 48.1552 28.9943 47.795 30.0549 47.8587C31.1155 47.9225 32.1073 48.4049 32.8122 49.1999L41.6848 59.2315L66.9837 34.612C67.3482 34.1996 67.7939 33.8668 68.2929 33.6347C68.7919 33.4025 69.3335 33.2759 69.8838 33.2628C70.434 33.2498 70.981 33.3505 71.4905 33.5587C72 33.7668 72.461 34.078 72.8446 34.4727C73.2282 34.8673 73.5262 35.337 73.7198 35.8522C73.9135 36.3674 73.9986 36.917 73.97 37.4667C73.9413 38.0163 73.7994 38.5541 73.5532 39.0463C73.3069 39.5386 72.9617 39.9747 72.5391 40.3272L44.2427 67.9842C43.4793 68.6788 42.4768 69.0512 41.445 69.0233Z" fill="white"/>
</svg>
