<svg width="38" height="38" viewBox="0 0 38 38" fill="none" xmlns="http://www.w3.org/2000/svg">
<rect width="38" height="38" rx="6" fill="#F2FFFC"/>
<path d="M15 9V12" stroke="#191E3B" stroke-width="1.5" stroke-miterlimit="10" stroke-linecap="round" stroke-linejoin="round"/>
<path d="M23 9V12" stroke="#191E3B" stroke-width="1.5" stroke-miterlimit="10" stroke-linecap="round" stroke-linejoin="round"/>
<path d="M10.5 16.0898H27.5" stroke="#191E3B" stroke-width="1.5" stroke-miterlimit="10" stroke-linecap="round" stroke-linejoin="round"/>
<path d="M28 15.5V24C28 27 26.5 29 23 29H15C11.5 29 10 27 10 24V15.5C10 12.5 11.5 10.5 15 10.5H23C26.5 10.5 28 12.5 28 15.5Z" stroke="#191E3B" stroke-width="1.5" stroke-miterlimit="10" stroke-linecap="round" stroke-linejoin="round"/>
<path d="M22.6937 20.7002H22.7027" stroke="#191E3B" stroke-width="2" stroke-linecap="round" stroke-linejoin="round"/>
<path d="M22.6937 23.7002H22.7027" stroke="#191E3B" stroke-width="2" stroke-linecap="round" stroke-linejoin="round"/>
<path d="M18.9945 20.7002H19.0035" stroke="#191E3B" stroke-width="2" stroke-linecap="round" stroke-linejoin="round"/>
<path d="M18.9945 23.7002H19.0035" stroke="#191E3B" stroke-width="2" stroke-linecap="round" stroke-linejoin="round"/>
<path d="M15.2953 20.7002H15.3043" stroke="#191E3B" stroke-width="2" stroke-linecap="round" stroke-linejoin="round"/>
<path d="M15.2953 23.7002H15.3043" stroke="#191E3B" stroke-width="2" stroke-linecap="round" stroke-linejoin="round"/>
</svg>
