<svg width="38" height="38" viewBox="0 0 38 38" fill="none" xmlns="http://www.w3.org/2000/svg">
<rect width="38" height="38" rx="6" fill="#F2FFFC"/>
<mask id="mask0_160_4457" style="mask-type:luminance" maskUnits="userSpaceOnUse" x="7" y="7" width="24" height="24">
<path d="M31 7H7V31H31V7Z" fill="white"/>
</mask>
<g mask="url(#mask0_160_4457)">
<path d="M20.5 19C20.5 21.206 22.294 23 24.5 23C26.7059 23 28.5 21.206 28.5 19C28.5 16.794 26.7059 15 24.5 15C22.294 15 20.5 16.794 20.5 19ZM24.5 17.0001C25.603 17.0001 26.5 17.897 26.5 19C26.5 20.103 25.603 20.9999 24.5 20.9999C23.3969 20.9999 22.4999 20.103 22.4999 19C22.4999 17.897 23.3969 17.0001 24.5 17.0001ZM19 15C21.206 15 23 13.206 23 11C23 8.794 21.206 7 19 7C16.794 7 15 8.794 15 11C15 13.206 16.794 15 19 15ZM19 9C20.103 9 20.9999 9.89699 20.9999 11C20.9999 12.103 20.103 13 19 13C17.897 13 17.0001 12.103 17.0001 11C17.0001 9.89699 17.897 9 19 9ZM13.5 23C15.706 23 17.5 21.206 17.5 19C17.5 16.794 15.706 15 13.5 15C11.294 15 9.5 16.794 9.5 19C9.5 21.206 11.294 23 13.5 23ZM13.5 17.0001C14.603 17.0001 15.5 17.897 15.5 19C15.5 20.103 14.603 20.9999 13.5 20.9999C12.397 20.9999 11.5 20.103 11.5 19C11.5 17.897 12.397 17.0001 13.5 17.0001ZM31 28V31H29V28C29 27.062 28.364 26.2829 27.4889 26.066L24.5061 29.523L21.483 26.076C20.6241 26.3031 20.0001 27.0779 20.0001 27.999V30.999H17.9999V27.999C17.9999 27.061 17.364 26.282 16.4901 26.065L13.506 29.522L10.483 26.0751C9.624 26.302 9 27.077 9 27.998V30.998H7V27.998C7 25.85 8.686 24.0989 10.839 24.0111L11.317 23.9909L13.495 26.4741L15.636 23.993L16.11 24.006C17.2761 24.038 18.2961 24.5631 19.003 25.368C19.7 24.577 20.7 24.056 21.8391 24.01L22.3169 23.9901L24.4949 26.473L26.6361 23.992L27.1101 24.0051C29.292 24.0651 31.001 25.8179 31.001 27.9959L31 28Z" fill="#1E1E1E"/>
</g>
</svg>
