<svg width="25" height="25" viewBox="0 0 25 25" fill="none" xmlns="http://www.w3.org/2000/svg">
<mask id="mask0_163_4974" style="mask-type:luminance" maskUnits="userSpaceOnUse" x="0" y="0" width="25" height="25">
<path d="M24.1035 0.959961H0.103516V24.96H24.1035V0.959961Z" fill="white"/>
</mask>
<g mask="url(#mask0_163_4974)">
<path d="M22.5085 13.2709C22.4119 13.0733 22.4119 12.8467 22.5085 12.6492L23.4036 10.818C23.902 9.79847 23.5071 8.58324 22.5046 8.05135L20.7042 7.09604C20.5099 6.99301 20.3767 6.80964 20.3387 6.59313L19.9866 4.58553C19.7905 3.46775 18.7566 2.71663 17.6331 2.87558L15.615 3.16105C15.3972 3.1918 15.1818 3.12177 15.0238 2.96891L13.5589 1.5518C12.7432 0.762705 11.4654 0.762658 10.6498 1.5518L9.18485 2.96905C9.02678 3.12196 8.81139 3.19185 8.59361 3.16119L6.57552 2.87573C5.45169 2.71668 4.41811 3.46789 4.22203 4.58567L3.86991 6.59317C3.83189 6.80973 3.69872 6.99306 3.50452 7.09614L1.70406 8.05145C0.701594 8.58329 0.306721 9.79861 0.805093 10.8182L1.70017 12.6493C1.79673 12.8469 1.79673 13.0735 1.70017 13.271L0.805046 15.1021C0.306674 16.1217 0.701547 17.3369 1.70401 17.8688L3.50447 18.8241C3.69872 18.9271 3.83189 19.1105 3.86991 19.327L4.22203 21.3346C4.40053 22.3522 5.27306 23.0658 6.27585 23.0657C6.37461 23.0657 6.47483 23.0588 6.57556 23.0445L8.59366 22.759C8.8113 22.7282 9.02683 22.7983 9.18489 22.9512L10.6498 24.3683C11.0577 24.7629 11.5809 24.9601 12.1043 24.9601C12.6276 24.9601 13.1511 24.7628 13.5589 24.3683L15.0238 22.9512C15.1818 22.7983 15.3973 22.7285 15.615 22.759L17.6331 23.0445C18.7571 23.2035 19.7905 22.4523 19.9866 21.3346L20.3388 19.3271C20.3768 19.1105 20.51 18.9272 20.7042 18.8241L22.5046 17.8688C23.5071 17.337 23.902 16.1216 23.4036 15.1021L22.5085 13.2709ZM9.33583 6.73108C10.7352 6.73108 11.8736 7.86952 11.8736 9.26883C11.8736 10.6681 10.7352 11.8066 9.33583 11.8066C7.93652 11.8066 6.79808 10.6681 6.79808 9.26883C6.79808 7.86952 7.93652 6.73108 9.33583 6.73108ZM8.02596 18.0171C7.89082 18.1522 7.71368 18.2198 7.53659 18.2198C7.3595 18.2198 7.18231 18.1523 7.04722 18.0171C6.77694 17.7468 6.77694 17.3086 7.04722 17.0383L16.1826 7.90295C16.4529 7.63267 16.8911 7.63267 17.1614 7.90295C17.4317 8.17323 17.4317 8.61146 17.1614 8.88174L8.02596 18.0171ZM14.8727 19.1891C13.4734 19.1891 12.335 18.0506 12.335 16.6513C12.335 15.252 13.4734 14.1136 14.8727 14.1136C16.272 14.1136 17.4105 15.252 17.4105 16.6513C17.4105 18.0506 16.272 19.1891 14.8727 19.1891Z" fill="#32BA55"/>
<path d="M14.8723 15.498C14.2363 15.498 13.7188 16.0154 13.7188 16.6515C13.7188 17.2875 14.2362 17.8049 14.8723 17.8049C15.5084 17.8049 16.0258 17.2875 16.0258 16.6515C16.0258 16.0154 15.5084 15.498 14.8723 15.498Z" fill="#32BA55"/>
<path d="M9.33513 8.11523C8.69909 8.11523 8.18164 8.63268 8.18164 9.26873C8.18164 9.90477 8.69909 10.4223 9.33513 10.4223C9.97117 10.4223 10.4887 9.90482 10.4887 9.26873C10.4886 8.63273 9.97117 8.11523 9.33513 8.11523Z" fill="#32BA55"/>
</g>
</svg>
