<svg width="38" height="38" viewBox="0 0 38 38" fill="none" xmlns="http://www.w3.org/2000/svg">
<rect width="38" height="38" rx="6" fill="#F2FFFC"/>
<mask id="mask0_160_4448" style="mask-type:luminance" maskUnits="userSpaceOnUse" x="7" y="7" width="24" height="24">
<path d="M31 7H7V31H31V7Z" fill="white"/>
</mask>
<g mask="url(#mask0_160_4448)">
<path d="M26 9H12C9.243 9 7 11.243 7 14V28C7 28.553 7.448 29 8 29C8.552 29 9 28.553 9 28V26H29V28C29 28.553 29.4471 29 30 29C30.553 29 31 28.553 31 28V14C31 11.243 28.7571 9 26 9ZM12 11H26C27.6539 11 29 12.346 29 14V20H27C27 17.794 25.2059 16 23 16H22C20.806 16 19.7339 16.526 19 17.357C18.2661 16.525 17.194 16 16 16H15C12.794 16 11 17.794 11 20H9V14C9 12.346 10.346 11 12 11ZM20.0001 20C20.0001 18.8971 20.897 18.0001 22 18.0001H23C24.103 18.0001 25 18.8971 25 20H20.0001ZM13 20C13 18.8971 13.897 18.0001 15 18.0001H16C17.103 18.0001 17.9999 18.8971 17.9999 20H13ZM9 24.0001V22H29V24.0001H9Z" fill="#191E3B"/>
</g>
</svg>
